<?xml version="1.0" encoding="UTF-8"?><svg id="Camada_1" xmlns="http://www.w3.org/2000/svg" viewBox="0 0 154 164"><defs><style>.cls-1{fill:#009dd9;}.cls-2{fill:#003761;}.cls-3{fill:#fdd7ce;}.cls-4{fill:#fe5010;}.cls-5{fill:#fefefe;}</style></defs><path class="cls-5" d="M73,.07C98.98,.07,124.96,.11,150.94,0c2.5-.01,3.07,.57,3.06,3.06-.08,52.62-.08,105.25,0,157.87,0,2.5-.56,3.07-3.06,3.06-49.29-.09-98.59-.09-147.88,0-2.5,0-3.07-.56-3.06-3.06C.08,108.32,.08,55.69,0,3.07,0,.57,.56-.03,3.06,0,14.05,.16,25.04,.07,36.03,.07c.35,.45,.35,.91,.02,1.38C26.63,8.98,16.74,15.92,7.47,23.24c.17,.92,.38,1.18,.74,1.25,7.02,1.18,7.26,1.4,7.09,8.52-.09,3.62-.33,6.96,2.11,10.34,2.46,3.41,.86,9.97-2.15,13.21-9.36,2.34-12.36,5.98-12.81,15.7-.14,3.16,.09,6.33-.07,9.48-.2,3.71,1.51,5.28,5.06,4.9,7.15-.77,14.27-.43,21.36,.47,14.34,1.81,27.31,7.06,38.78,15.91,2.14,1.65,3.7,2.53,5.37-.73,8.54-16.66,22.48-27.73,38.53-36.46,7.3-3.97,14.84-7.49,22.15-9.7-6.37,.47-13.49,.13-20.61,.19-3.82,.03-5.35-1.92-5.36-5.57-.02-6.82,.04-13.64-.03-20.46-.12-12.12-4.92-16.85-17.08-16.89-3.81-.01-7.62-.03-12.46,.03,4.67,3.47,7.55,7.26,9.83,11.54,9.63,18.07,3.64,39.62-13.74,49.36-18.05,10.12-39.07,4.46-49.81-13.41-.68-1.14-1.45-2.23-1.92-3.49-.25-7.9-2.94-15.15-5.85-22.38-1.82-4.53-.93-8.93,2.66-12.37,4.79-4.59,9.84-8.9,15.17-12.86,1.71-1.27,4.02-2.73,5.73-.48,1.71,2.25-.33,3.98-1.98,5.4-3.63,3.13-7.4,6.11-11.56,9.75,8.47,.51,16,1.29,22.69-4.83,7.19-6.58,16.07-11.17,22.72-18.49,.32-.37,.65-.74,.98-1.1Z"/><path class="cls-3" d="M36,.95c.03-.29,.04-.59,.03-.88h36.97c.01,.32,.02,.64,.02,.97-1.46,1.32-3.25,1.58-5.11,1.6-8.96,.08-17.93,.11-26.89-.02-1.81-.03-3.69-.09-5.02-1.67Z"/><path class="cls-2" d="M92.67,96.08c0,15.21-.05,29.66,.05,44.11,.01,1.98-1.14,2.85-2.22,4.1-2.16,2.52-2.08,5.31,.43,7.5,2.26,1.98,5,1.93,7.21-.14,2.45-2.3,2.56-5.26,.1-7.43-1.78-1.56-2.07-3.12-2.06-5.16,.04-13.82,.08-27.64-.04-41.45-.02-2.67,.66-4.12,3.29-5.25,15.96-6.86,32.81-9.07,49.93-10.07,2.15-.13,2.48,.95,2.46,2.7-.05,4.49-.12,8.99,.02,13.48,.07,2.3-.95,2.78-2.97,2.77-9.32-.06-18.65-.07-27.97,0-1.7,.01-2.61-.87-3.77-1.89-2.49-2.2-5.17-2.09-7.49,.41-2.18,2.36-1.98,4.96,.1,7.13,2.26,2.36,5.27,2.63,7.39,.15,1.73-2.02,3.56-2.06,5.73-2.06,8.49,.01,16.98,.13,25.47-.06,3.44-.08,3.88,1.04,2.94,4.07-1.88,6.08-6.71,9.95-13.23,10-8.49,.06-16.99,.18-25.47-.06-3.21-.09-3.88,.98-3.81,3.94,.19,7.99,.1,15.98,.05,23.97-.07,9.67-5.55,15.31-15.07,15.2-4.76-.05-11.09,2.13-13.83-.93-2.36-2.63-.75-8.84-.83-13.46-.05-2.83,.04-5.66-.02-8.49-.05-2.48,.02-4.55,2.35-6.49,2.56-2.12,2.1-5.15-.41-7.38-2.32-2.06-4.92-1.99-7.16,.13-2.45,2.33-2.72,5.36-.12,7.4,2.27,1.78,2.24,3.69,2.23,5.99-.04,6.66-.13,13.32,.05,19.98,.07,2.65-.76,3.46-3.37,3.36-4.99-.18-9.99,.07-14.98-.09-7.02-.22-12.4-5.14-12.7-12.16-.38-8.81-.36-17.64-.2-26.46,.06-3.43-.84-4.62-4.42-4.51-8.32,.26-16.65,.02-24.97,.11-2.58,.03-4.92-.48-7.09-1.83-2.61-1.63-5.61-3.84-5.33-6.7,.21-2.08,4.12-1.94,6.43-2.57,14.61-3.99,29.33-5.47,44.32-2.04,3.28,.75,4.59,1.93,4.43,5.55-.34,7.81-.08,15.65-.12,23.47-.02,3.37,.54,6.64-2.57,9.57-1.99,1.87-1.18,5.1,1.29,6.98,2.26,1.72,4.72,1.55,6.75-.42,2.22-2.15,2.62-5.25,.46-7.09-2.69-2.28-2.42-4.8-2.42-7.58,0-7.99,.08-15.98-.03-23.97-.04-3.11,.41-4.25,3.89-2.71,7.44,3.28,7.51,3.08,13.23-2.93,3.9-4.11,8.17-7.74,14.06-10.69Z"/><path class="cls-1" d="M23.19,57.18c4.05,6.28,8.25,12.31,15.07,16.11,16.62,9.27,36.74,4.57,47.4-11.29,10.22-15.22,6.56-35.98-8.41-47.5-.64-.49-1.5-.68-2.26-1.01l.87-1.12c7.05,0,14.16-.55,21.14,.15,7.13,.71,11.55,6.74,11.67,14.51,.12,7.82,.19,15.64-.04,23.45-.1,3.51,.57,5.04,4.57,4.87,8.14-.33,16.3-.1,25.81-.1-14.71,5.5-27.99,11.12-39.84,19.64-11.94,8.59-21.66,18.97-27.6,32.91-12.45-10.91-26.74-17.35-42.95-19.53-7.62-1.03-15.25-1.05-22.87-.27-3.08,.31-4.63-.06-4.41-3.71,.3-4.81-.09-9.65,.12-14.47,.39-8.94,6.21-14.69,13.77-13.87,2.24,3.16,5.07,2.43,7.97,1.21Z"/><path class="cls-4" d="M86.22,42.37c-.28,12.67-6.31,21.91-17.72,26.99-11.06,4.93-21.86,3.34-31.14-4.61-9.63-8.26-12.38-18.88-9.23-31.08,.49-1.91,.96-4.15,3.72-3.58,10.52,2.15,17.97-3.5,25.23-9.73,.63-.54,1.29-1.04,1.95-1.54,7.44-5.59,9.82-5.49,16.91,.71,6.72,5.87,10.24,13.73,10.27,22.85Z"/><path class="cls-4" d="M23.19,57.18c-3.95,4.09-6.48,3.7-7.97-1.21,2.19-5.06,3.85-9.66-.93-14.76-2.43-2.6-.47-7.31-.34-10.96,.15-4.25-1.42-4.59-4.7-4.34-1.51,.12-3.72,.97-4.35-1.12-.49-1.64,1.48-2.38,2.62-3.25C15.41,15.52,23.33,9.53,31.25,3.53c1.45-1.1,2.91-2.19,4.76-2.58,12.34,.03,24.68,.06,37.02,.09,1.03,2.33-1.14,2.86-2.29,3.75-8.41,6.47-16.9,12.83-25.33,19.28-1.68,1.29-3.49,1.72-5.55,1.71-5.23-.05-10.46-.02-16.73-.02,5.32-4.39,9.9-8.11,14.39-11.93,1.17-.99,3.38-2.02,2.11-3.9-1.61-2.38-3.35-.14-4.54,.81-5.05,4.04-10.06,8.16-14.82,12.53-4.41,4.06-3.29,8.18-1.36,13.66,2.25,6.38,6.07,12.86,4.3,20.25Z"/></svg>