<?xml version="1.0" encoding="utf-8"?>
<!-- Generator: Adobe Illustrator 26.3.0, SVG Export Plug-In . SVG Version: 6.00 Build 0)  -->
<svg version="1.1" id="Camada_1" xmlns="http://www.w3.org/2000/svg" xmlns:xlink="http://www.w3.org/1999/xlink" x="0px" y="0px"
	 viewBox="0 0 931 912" style="enable-background:new 0 0 931 912;" xml:space="preserve">
<style type="text/css">
	.st0{fill:#274D76;}
	.st1{fill:#459BFE;}
	.st2{fill:#FEBC9E;}
	.st3{fill:#FE7742;}
	.st4{fill:#499CFE;}
	.st5{fill:#0A1C44;}
	.st6{fill:#C74301;}
	.st7{fill:#449BFE;}
	.st8{fill:#FEBDA0;}
	.st9{fill:#264D77;}
	.st10{fill:#429BFD;}
	.st11{fill:#0A1C43;}
	.st12{fill:#091B43;}
	.st13{fill:#F69678;}
	.st14{fill:#284B74;}
	.st15{fill:#569FF0;}
	.st16{fill:#1A507E;}
	.st17{fill:#E6EAE5;}
	.st18{fill:#B27972;}
	.st19{fill:#FEBEA1;}
	.st20{fill:#091D42;}
	.st21{fill:#3D98FD;}
	.st22{fill:#F39377;}
	.st23{fill:#4598F8;}
	.st24{fill:#F49576;}
	.st25{fill:#04254D;}
	.st26{fill:#F4FAFA;}
	.st27{fill:#F3F8FB;}
	.st28{fill:#032650;}
	.st29{fill:#244D77;}
	.st30{fill:#FE7741;}
	.st31{fill:#FE4F00;}
	.st32{fill:#254D79;}
	.st33{fill:#264E7A;}
	.st34{fill:#274F79;}
	.st35{fill:#499BFC;}
	.st36{fill:#EFFAFD;}
	.st37{fill:#081E48;}
	.st38{fill:#081E43;}
	.st39{fill:#071943;}
	.st40{fill:#204A77;}
	.st41{fill:#EBEDEE;}
	.st42{fill:#F2FAFA;}
	.st43{fill:#F1F7F7;}
	.st44{fill:#061F4D;}
	.st45{fill:#28517B;}
	.st46{fill:#F0FCF7;}
	.st47{fill:#31527A;}
	.st48{fill:#20497B;}
	.st49{fill:#E18576;}
	.st50{fill:#94AFDD;}
	.st51{fill:#284878;}
	.st52{fill:#0C1A43;}
	.st53{fill:#F95204;}
	.st54{fill:#F57640;}
	.st55{fill:#4D99ED;}
	.st56{fill:#539DF5;}
	.st57{fill:#1A0703;}
	.st58{fill:#F0F5F6;}
	.st59{fill:#F1F8FA;}
	.st60{fill:#F4F9FC;}
	.st61{fill:#2B496C;}
	.st62{fill:#2A5B85;}
	.st63{fill:#5598F3;}
	.st64{fill:#F1F8F8;}
	.st65{fill:#4B98F0;}
	.st66{fill:#FE7B45;}
	.st67{fill:#EEF4F6;}
	.st68{fill:#F4F9F7;}
	.st69{fill:#224672;}
	.st70{fill:#FEFEFE;}
	.st71{fill:#F19A7C;}
	.st72{fill:#F1997B;}
	.st73{fill:#306597;}
	.st74{fill:#3B5A73;}
	.st75{fill:#439BF9;}
	.st76{fill:#50A6E8;}
	.st77{fill:#FD4E00;}
	.st78{fill:#F9FAF7;}
	.st79{fill:#01224F;}
	.st80{fill:#FE7844;}
	.st81{fill:#439CF5;}
	.st82{fill:#469AF4;}
	.st83{fill:#7C90E7;}
	.st84{fill:#5D9FEB;}
	.st85{fill:#69A8F1;}
	.st86{fill:#F6F6F0;}
	.st87{fill:#FA7545;}
	.st88{fill:#6D4D52;}
	.st89{fill:#FE7440;}
	.st90{fill:#C44102;}
	.st91{fill:#EC9779;}
	.st92{fill:#1A1A33;}
	.st93{fill:#171D40;}
	.st94{fill:#FEBD9F;}
	.st95{fill:#BA3D02;}
	.st96{fill:#BC4307;}
	.st97{fill:#FBB49C;}
	.st98{fill:#314E7A;}
	.st99{fill:#425469;}
	.st100{fill:#2A5075;}
	.st101{fill:#6C6E88;}
	.st102{fill:#5BA4ED;}
	.st103{fill:#F6FAFA;}
	.st104{fill:#E4EDF6;}
	.st105{fill:#2F507B;}
	.st106{fill:#559AED;}
	.st107{fill:#265688;}
	.st108{fill:#62A5EF;}
	.st109{fill:#F6F4F1;}
	.st110{fill:#F6F5F1;}
	.st111{fill:#F88458;}
	.st112{fill:#25487F;}
	.st113{fill:#2470C3;}
	.st114{fill:#0C1C42;}
	.st115{fill:#FA7F4E;}
	.st116{fill:#FE804A;}
	.st117{fill:#1B4D79;}
	.st118{fill:#F6F8F4;}
	.st119{fill:#2E6D99;}
	.st120{fill:#FAFCFB;}
	.st121{fill:#092146;}
	.st122{fill:#040203;}
	.st123{fill:#F7F7F5;}
	.st124{fill:#F9F9F8;}
	.st125{fill:#0A2347;}
	.st126{fill:#030102;}
	.st127{fill:#F9F9F7;}
	.st128{fill:#F7F8F7;}
	.st129{fill:#4A99E1;}
	.st130{fill:#375169;}
	.st131{fill:#1A759A;}
	.st132{fill:#436A87;}
</style>
<path class="st0" d="M651,911.9c-145.6,0-291.3,0-436.9,0c-1.5-2.2-0.4-4.5,0-6.7c2.6-14.7,6.2-29.1,9.8-43.6
	c4.5-16.5,10.7-32.5,14.1-49.3c3.6-17.9,5-35.8,1-53.8c-0.3-1.1-0.4-2.3-0.5-3.5c-1.6-14.6-5.5-28.7-7.9-43.2
	c-0.4-2.3-1.3-4.5-0.1-6.8c0-8.2-2.1-16-3.1-24.1c-2.4-20.3-3.2-40.7-2.2-61.1c0.5-10.8,1.6-21.7,4-29.2c-4.8,21.1-5,45.5-3.6,70.1
	c0.9,14.6,3.2,28.9,4.8,43.4c-1.8,3.1-4.1,1-6,0.3c-6.7-2.4-13-6.1-20.1-7.3c-4-1.3-5.7-5-8-7.9c-13.2-17.5-25.8-35.4-37.9-53.7
	c-1.6-2.3-3.3-4.6-3.6-7.6c1.1-10.3,2.1-20.6,3.3-30.9c2.8-0.5,5.1-2.8,8.2-2.6c8.5-2.9,11.2-9.8,7-17.7c-2.4-4.5-5.7-8.6-6.1-14
	c1.1-5.2,3.8-9.9,5.2-15.1c1.7-6,0.9-11.2-3.6-15.6c-0.7-0.7-1.3-1.5-1.6-2.5c-0.5-6.7,1.4-13,2.6-19.4c0.8-4.6,0.7-9.6,3.4-13.8
	c2.2-1.6,4.2-0.1,6.1,0.7c18.7,7.8,36.9,16.6,54.5,26.6c13.8,7.9,27.4,16.3,40.5,25.3c1.7,1.3,3.5,2.4,5.3,3.5
	c7.3,4.8,14.7,9.5,21.9,14.4c1.6,1.1,3.5,1.9,4.2,4c0.1,0.8,0,1.6-0.1,2.4c-0.3,2.3-0.4,4.6,1.8,6.2c2.5,1.7,4.6,0.7,6.8-0.8
	c0.8-0.6,1.6-1.1,2.7-1.1c11.6,7.2,23.1,14.5,34.6,21.7c33.6,20.9,68.9,38.3,106.2,51.6c24.6,8.8,49.7,16.2,75.5,20.8
	c18,3.2,36.1,6,54.4,7c12.9,0.6,25.9,1.7,38.8,1.9c1.5,0,3,0.2,4.3,1.1c1.9,1.9,1.6,4.2,1.2,6.5c-0.8,5.3-0.9,10.6,0.2,15.8
	c1.4,10-0.5,19.9-0.9,29.9c-0.8,19.5-1.2,38.9,0.7,58.3c2.7,28,6.8,55.8,12.6,83.4c2,9.4,3.9,18.9,6.1,28.3
	C651.1,906.6,652.1,909.2,651,911.9z"/>
<path class="st1" d="M930.9,578c-13.4,9.1-26.9,18.1-40.8,26.6c-16.7,10.2-34.1,19.1-51.8,27.4c-27.5,12.9-55.9,23.4-85,31.7
	c-0.9,0.3-2,0.2-2.6,1.2c-3.6,3.1-8.3,3.1-12.6,4.1c-24.6,5.5-49.5,10.1-74.6,12.1c-10.6,0.9-21.2,1.8-31.8,1.3
	c-0.6,0-1.2-0.1-1.7-0.4c-14.3-0.4-28.6-0.9-42.9-1.8c-18.4-1.2-36.7-3.8-54.8-7.1c-33.3-6.1-65.4-16.3-96.7-29
	c-30.1-12.2-58.9-27.1-86.4-44.4c-9-5.7-17.9-11.4-27-17c-2.2-1.3-4-3-5.8-4.7c-2.8-3.3-3.8-6.4-1.4-10.7c1.8-3.3,0.5-7.4,0.7-11.2
	c0.1-2.1-0.1-4.3,0.3-6.4c0.1-0.5,0.4-1,0.7-1.5c3-1.1,4.5,0.9,6,2.9c0.8,7,2.1,14-2.1,20.6c-1.7,2.6-0.5,5.2,1.9,6.9
	c1.8,1.3,3.8,1.1,5.4-0.5c2.3-2.2,2-4.7,0.3-7.2c-1-1.5-2.7-2.5-3.1-4.4c-0.5-3.9-0.5-7.8,0-11.7c0.2-0.6,0.4-1.1,0.8-1.5
	c2.3-1.1,3.7,0.2,5,1.9c1.5,3.8,0,7.8,1.1,11.5c2.3-2.9-0.2-6.8,2-9.6c2.7-0.8,4.1,1.2,5.7,2.8c1.4,4,1.2,7.7-2.2,10.8
	c-2.3,2.1-2.4,4.7-0.5,7.1c1.4,1.8,3.3,2.3,5.3,1.1c2.7-1.6,2.9-4.1,1.8-6.9c-0.6-1.4-1.5-2.6-1.8-4c-0.3-1.6-0.3-3.1,0.5-4.5
	c2.2-1.4,3.9,0.2,5.6,1.2c2.8,3,5.7,5.8,3.2,10.7c-1,2,0.3,4.7,3,5.3c2.9,0.6,5.1-0.6,6-3.7c0.5-1.7-0.8-3.7,0.9-5.1
	c2.6-0.8,4.5,0.9,6.5,1.8c24.9,12,50.2,23,76.5,31.4c6.6,2.1,13.5,3.4,20.1,5.8c4.3,2.3,7.5,6.1,11.1,9.2
	c6.1,5.4,12.8,10.1,19.4,14.8c5.2,3.7,10.4,4.7,16.2,1.1c5.3-3.4,10.8-6.6,15.8-10.5c1.9-1.5,3.8-2.7,6.2-3
	c10.8,0.2,21.5,2.2,32.3,2.7c19.8,0.7,39.6,1,59.4-0.1c4.5-0.3,9-0.2,13.5-0.1c5.2,0.8,10.3,1.8,13.5,6.8c1.5,2.3,2.5,4.7,1.3,7.4
	c-1.3,2.8,0.6,3.4,2.7,3.9c3.2,1.1,6.5,0.9,9.8,0.9c10.1,0,20.2,0,30.3,0c1.3,0,2.6,0,4-0.1c1.3-0.1,2.9-0.1,3.4-1.5
	c0.6-2-1.5-2.2-2.5-3.2c-1.6-1.4-0.3-2.2,0.7-2.9c1.2-0.8,2.7-1.2,3.4-2.6c0.9-1.7,1.3-3.5,0.1-5.3c-2.6-2.8-5.9-2.5-9.2-2.6
	c-5.8-0.1-6.9-1.1-6.8-6.7c0-9-0.4-17.9,0.3-26.9c0.2-2.5,0.9-4.5,2.7-6.2c1.1-1.9,2.8-3.3,4.3-4.8c2.2-2.4,3.6-5.2,3.7-8.5
	c0-3.6-2.9-7.3-5.9-7.6c-2.9-0.3-5.6,2.6-6.1,6.6c-0.3,2.6-0.1,5.3-0.2,8c-0.2,5.1-1.3,6-6.9,6c-5.5,0-6.5-0.9-6.7-6.2
	c-0.1-2.7,0.2-5.3-0.3-8c-0.7-4.3-3.5-7-6.8-6.7c-3,0.3-6,4.5-5.8,8.2c0.1,2.5,1.2,4.8,1.4,7.3c-2.3,6,0.8,11.9,0.3,17.9
	c-0.6,6.1-0.1,12.3-0.1,18.4c0,1.8,0.1,3.7-0.2,5.5c-0.4,2.2-1.8,3.1-3.9,3c-2.1-0.1-4-1.3-3.5-3.3c1.7-7-3.5-11-6.4-16
	c-1.5-2.6-4.6-2.5-6.6-4.2c-1.2-0.6-2.4-1.3-3.3-2.4c-7.8-11.7-9.8-24.7-8.8-38.5c0.4-5.8,2.1-11.3,4.9-16.1
	c5.1-8.7,11.5-16.6,21-21.3c4.7-2.5,9.7-4.3,14.8-5.9c28.4-5.4,53.5,13.6,59.5,39.1c1.2,4.9,0.4,9.9,0.5,14.9
	c-0.9,16.3-9.9,28.4-20.5,40c13.3-2.6,25.9-7,38.6-11.3c31.8-11.2,61.9-26.1,91.1-42.9c22.7-13.1,44.8-27.5,65.3-44
	c7-5.6,14.1-11.1,20.9-17c1.4-1.2,2.9-2.9,5.2-2.2C930.9,522,930.9,550,930.9,578z"/>
<path class="st2" d="M722.9,696.1c-1.2,41.2-1.2,82.5-0.9,123.7c0.1,18.6,0.1,37.3,1.2,55.8c0.7,12.1,0.2,24.2,1.8,36.3
	c-24.7,0-49.3,0-74,0c-5.2-21.1-9.7-42.4-13.3-63.8c-6-35.6-10.4-71.4-8.5-107.6c0.6-12.1,1.2-24.2,1.9-36.4
	c0.2-0.2,0.4-0.4,0.6-0.7c1.8-1,3.8-0.9,5.8-0.9c26.9-0.3,53.7-2.2,80.3-7.2C719.6,694.9,721.4,694.4,722.9,696.1z"/>
<path class="st3" d="M729.4,572c0.3-10.4-1-20.4-6.5-29.4c-6.7-10.9-16-18.5-28.3-22.7c-8.2-2.8-16.3-1.6-24.5-1.8
	c-0.8-0.3-1.3-0.7-1.3-1.6c0.8-1.5,2.4-1.7,3.7-2.2c15.6-6.1,31-12.5,46.3-19.2c4.4-1.9,8.5-4.5,12.7-6.7
	c18.3-8.3,35.2-19.2,52.6-29.3c1.9-1.1,3.7-3,6.3-2.1c2.7,2.9,5,6.2,8.4,8.4c2.5,1.6,2.1,4.3,1.4,6.8c-2.6,9.4-6.8,18-11.4,26.5
	c-1.6,2.9-3.4,5.6-4.4,9.7c5.4-1.4,10.2-1.4,14.9-2.6c5.6-1.5,10.9-1.5,16.3,1.6c6.4,3.7,11.8,1,12.5-6.4c0.9-8.8,1.3-17.6-0.6-26.3
	c-1.1-5.3-3.8-9.6-9.4-11.3c-3.5-1.1-4.9-3.3-4-6.8c1.3-5.2-1.4-9.3-3.8-13.6c-0.4-2.2,1.2-3.2,2.6-4.4c4.3-3.6,8.8-7,13.2-10.5
	c1.6-1.3,3.6-2.6,3-5.2c0.4-1.9,0.7-3.6,3.5-2c4,2.3,5.9,1.5,8.7-2.4c1.3-1.8,1.5-1.8,5.7-0.2c1.6-2.8-1.8-5.3-0.6-8.1
	c19.1-14.6,36-31.4,52.4-48.9c10.1-10.8,19.3-22.4,28.4-34c0.9-1.1,1.6-2.7,3.5-2.1c0,37.3,0,74.6,0,112c-3.3,6-8.7,10-13.5,14.6
	c-20.7,19.6-42.6,37.7-65.8,54.2c-18.2,13-36.9,25.1-56.3,36.1c-13.6,7.7-27.4,15.1-41.7,21.6c-2.3,1-4.5,2.2-6.6,3.4
	c-4.2,1.7-8.3,3.4-12.5,5C732.8,572.6,731.1,573.6,729.4,572z"/>
<path class="st4" d="M818.8,299.8c1.9-4.8,5.9-7.9,9.1-11.6c21-24.5,39.7-50.5,55.9-78.5c13.6-23.5,25.2-47.8,34.4-73.2
	c3.8-10.4,7-21,10.6-31.5c0.6-1.7,0.5-3.6,2.1-4.9c0,55.7,0,111.3,0,167c-5.7,10.9-13.1,20.8-20,31c-8.5,12.5-18,24.4-27.8,35.9
	c-12,14-24.2,27.9-38.4,39.8c-2.2,1.9-3.4,5.1-6.9,5.4c-3.1,0.1-4.4-1.9-5.2-4.4c-1-3.4-1.6-6.8-1-10.3c1.5-8.2,0.3-16.4,0.6-24.7
	c0.1-3,0.5-6.7-3-8.8c-1.1-0.7-2-1.7-2.7-2.9c0-2.9,2.5-3.2,4.4-4.1c7-3.1,14.1-5.6,21.7-8.7c-1.5-1.6-3.3-1.9-4.8-2.5
	c-8.2-3.1-16.4-6.4-24.6-9.5C821.5,302.6,819.4,302.1,818.8,299.8z"/>
<path class="st5" d="M34.3,491.9c-9.2-17.6-18.4-35.1-27.5-52.7c-2.3-4.4-4.4-8.8-6.7-13.2c0-0.7,0-1.3,0-2c1.2-0.8,0.5-2.8,2.1-3.4
	c3.4-3.1,7.6-2.8,11.7-3c14-0.6,27.9,0.6,41.8,1c5,0.1,9.8-1.6,14.9-0.5c4.2,0.9,7.4,2.8,9.5,6.5c0.9,1.6,1.9,3.1,2.7,4.8
	c11.2,22.4,22.8,44.7,34.7,66.8c0.7,1.3,1.4,2.6,1.3,4.2c-0.8,2.5-3,2.9-5.1,3.6c-16.8,5.2-33.2,11.8-49.5,18.4
	c-1.5,0.6-3.1,1.2-4.7,1.7c-2.4,0.8-4.6,0.9-6-1.7c-1.5-2.6-2.6-5.2,0-7.7c5-5.1,10.5-9.7,15.8-14.4c4.7-4.2,9.3-8.5,13-13.7
	c2.7-3.8,3.9-8,3.6-12.7c-0.6-8.1-6.7-11.4-13.6-7.1c-11.2,6.9-21.5,15.1-31.9,23.1C38.6,490.9,37.1,493.4,34.3,491.9z"/>
<path class="st6" d="M230,244c-5.9-16.2-3.4-31.6,4.4-46.6c7.4-14.3,16.6-27.2,26.4-39.8c18-23.2,31.8-48.3,40.5-76.5
	c6-19.5,16.5-36.6,34.8-47.6c10.3-6.1,21.4-9,33.4-7.8c1.9,0.2,3.6,0.9,5.2-1.4c10-14.1,24.9-19.6,41.1-21.9
	c30.7-4.3,59.9,0.9,87.4,15.4c23.8,12.5,41.6,31,54.8,54.2c10.9,19.1,16.9,40,22.2,61.1c6.3,25.5,16,49.9,23.8,74.9
	c6.2,19.8,8.1,40,3.8,60.5c-2.3,10.9-9.6,23.9-17.9,30.7c2.5-7.9,3.7-15.5,2.9-24.8c-6.3,20.6-16.2,36.2-37.6,42.1
	c11.4-20.3,12.6-23.9,13.1-37.7c-8.4,21.3-20.2,38.8-45.5,41.4c-9.2,0.8-18.4,0.1-27.6,0.4c-2.7,0.1-3.4-1.5-3.5-3.7
	c0-2.8,1.8-4.6,3.5-6.3c13.6-13.9,23.8-30,30.1-48.4c1.6-4.5,4.5-7.5,8.3-10.1c17.2-11.7,28.2-38,24-56.9c-0.5-2.5-1.5-4.8-2.8-6.9
	c-3.5-5.7-6.5-6.7-12.3-3.2c-3.5,2.1-5.3,0.8-5.3-2.5c0-8.2-5.7-11.9-10.9-16.7c-10.4-9.5-22.1-17.7-29.9-29.8
	c-1.5-2.4-3.2-4.6-4.2-7.3c4.6,12.4,13.6,21,24.2,28.2c1.7,1.1,3.1,2.5,4.5,3.9c2.6,2.6,2.7,5.2-0.4,7.6c-4.9-2.4-9.3-5.5-14.6-7.3
	c-14.8-4.9-28.4-2.2-41.4,5.4c-0.7,0.4-1.4,0.9-2.3,1c-0.9,0-1.6-0.4-2.3-0.8c-7.4-4-7.7-7.6-0.9-12.3c1.8-1.2,3.6-2.4,6-3.9
	c-11.9-8.1-24.2-15.1-32.9-25.4c2.2,3.4,5.5,7.2,8.4,11.2c3.1,4.2,7.5,7.1,11.3,10.6c0.9,0.8,1.9,1.4,2.6,2.3c0.7,0.9,1.8,1.8,0.8,3
	c-0.7,0.8-1.9,0.5-2.8,0.1c-5.6-2.6-11.2-5.1-16.5-8.4c-19.3-12-32.9-28.6-40.1-48c1,2.1,1.6,6.5,3,10.7c5.4,15.9,14,29.8,25.9,41.6
	c1.8,1.8,5.3,3.7,3.7,6.3c-1.6,2.5-5.3,0.9-7.8,0.1c-20.6-6.7-35.2-20.4-44.8-39.5c-3.2-6.3-5.7-13-7-20.1
	c-4.5,17.4-11.4,33.8-19.8,49.6c-4.9,9.1-10.4,17.9-16.2,26.4c-2.8,4-4.7,8.4-5.6,13.2c-0.9,4.6-1.7,4.7-5.2,1.8
	c-4.8-4.1-10.3-3.3-13.4,2.2c-2.9,5-4.2,10.7-3.7,16.4c1.7,16.7,7.5,31.7,19.9,43.6c1.6,1.5,3.1,3.2,5.1,4c5.2,2.1,7.4,6.2,9.1,11.1
	c6.1,18.4,17.4,33.6,30.5,47.6c1.7,1.8,3.8,3.4,4.3,6c-0.1,5.7-0.2,5.8-5.4,5.8c-9.9-0.1-19.9,0.4-29.8-0.3
	c-12.5-0.1-25-0.6-36.5-6.5c-19.2-9.8-28.1-27-33.5-46.7c-1.7-6.4-2.3-13.1-3.2-19.9c-3.1,6.9-4.2,15.4-2.8,28.8
	c1,9.6,4.6,18.5,9.7,26.9c-7.3-4.8-13.4-10.6-17.7-18c-18.3-31.4-16.2-63,0-94.4c3.5-6.8,7.3-13.4,10.9-20.1
	c3-7.7,7.9-14.4,12.2-21.3c-4.3,6.6-10.3,11.8-15.2,17.9c-0.9,1.1-2.1,1.6-3.3,2.1c-12.8,14-23.8,29-28.1,48
	c-1.7,7.6-1.4,15.2-0.5,22.8C231.4,242.8,232.2,244.1,230,244z"/>
<path class="st7" d="M675.1,419.9c8.7-2.9,16.1-8.2,23.9-12.8c8.6-5.1,16.9-10.8,25.3-16.3c3.7-2.4,7.3-5.1,10.9-7.6
	c1.9-1.9,4.1-0.8,6.1-0.4c10.8,2,21.7,3.3,32.8,2.8c11.9-0.5,23.4-2.6,34.6-7.1c7.5-3.1,11.5-7.9,10.9-16.4c-0.5-7-0.1-14-0.1-21
	c0-2.1,0.2-4.5-2.4-5.4c-1.5-0.4-3.2-0.6-4.2-2.1c-0.5-2.4,1.6-2.6,2.9-3.1c1.8-0.7,3.5-1.7,5.2-2.6c3.5,0.4,6.4,2.1,9.2,4.1
	c1.8,1.8,2,4.2,2.1,6.5c0.3,11.6-0.4,23.2-0.2,34.9c0,1.4-0.4,2.7-1.3,3.7c-3,3-3.4,6.7-2.9,10.7c-0.2,1.8-1.4,2.9-2.7,4
	c-18,15.6-36.5,30.6-56.5,43.7c-16.2,10.6-32.8,20.5-49.6,30c-16.7,8-33.2,16.2-50.4,23c-35.4,14.1-72.1,22.4-109.8,27.2
	c-27.9,3.6-55.8,3.8-83.8,2.6c-28.8-1.2-57.4-4.9-85.5-11.3c-0.8-0.1-1.6-0.4-2.3-0.7c-4.3-1.8-8.9-2.9-13.2-4.7
	c0.4-5.1,4.5-8.4,9.1-7.4c0.6,0.1,1.3,0.4,1.9,0.5c2.5,0.3,4.8-0.3,5.7-2.9c0.9-2.7-0.7-4.6-2.9-5.6c-2.5-1.2-5-0.7-6.4,1.9
	c-2.4,4.3-4.9,8.3-10,9.7c-5.3-0.3-10.3-2-15.4-3.3c-1.9-0.5-3.7-1.4-4.8-3.3c-1.3-4.7-0.7-9.5-0.6-14.3c0-1.5,0.7-2.9,1.9-3.9
	c3.5-2.8,6-6.5,8.6-10.1c2.2-0.5,4.3-0.1,6.4,0.3c20.3,3.8,40.7,6.3,61.3,7.8c14.6,1,29.2,2.3,43.8,1.7c15.4-0.6,30.8-1.6,46.2-3.2
	c11.6-1.2,23-3.4,34.5-5.4c1.1-0.2,2.3-0.4,3.4,0c2,2.9,2.6,6.4,4,9.6c3,7.3,8.7,10.9,16.3,11c20.8,0.2,41.6,0.2,62.4,0
	c9.3-0.1,16.2-6.6,17.7-15.8c1.6-9.9,0.9-19.9,1.1-29.9c0.1-3.6-0.4-7.3,0.6-10.9C663.6,423.6,668.9,420.8,675.1,419.9z"/>
<path class="st8" d="M493.2,336.8c2.1,7.3,2.2,14.9,4.7,22.1c4.7,13.6,11.9,24.8,25.4,31c3,1.4,5.5,3.6,8.8,4.3
	c1.6,3.4-0.5,6.1-2,8.8c-11.2,19.6-28.2,32.7-48.8,40.9c-30.5,12.1-61.2,11.7-91.4-0.9c-20-8.3-36.3-21.5-47.9-40
	c-1.7-2.7-4.3-5.2-3-9c6.3-5.3,13.2-9.6,18.4-16.2c9.1-11.5,12.8-24.9,14.4-39c0.6-5.1,2.7-10.5,0.1-15.7c2.4-2.5,4.7-2,6.7,0.5
	c2.1,2.5,4.2,5.2,6.2,7.8c13.6,17.9,31.7,27.3,54.1,28.2c9.8,0.4,19.5,0.1,28.9-3.9C478,351.5,487.3,346.6,493.2,336.8z"/>
<path class="st9" d="M339,394.1c1.7,6.3,5.7,11.3,9.6,16.1c17.5,21.9,40.5,34.7,67.9,39.2c37.4,6.1,71-2.6,98.9-29.1
	c7.6-7.2,14-15.5,16.8-26c6-1.1,11.2,2.2,16.8,3.1c2.6,0.4,5,1.7,7.7,1.6c2.2,1.7,1.9,4.1,1.9,6.4c0.1,17.6,0.1,35.2,0,52.8
	c0,2.1,0.1,4.4-1.4,6.1c-17.8,4.2-35.9,6.5-54.1,7.8c-14.3,1-28.5,2.1-42.8,1.7c-22.9-0.6-45.7-2.1-68.5-5.5
	c-10.2-1.5-20.3-3-30.3-5.2c-1-0.1-1.2-1-1.6-1.7c-2.6-4.5-5.3-4.9-9-1.5c-0.6,0.6-1.1,1.2-1.9,1.5c-1.8,0.5-3.5-0.3-5.2-0.3
	c-0.8-0.1-1.6-0.3-2.3-0.5c-14.3-3.1-28.5-6.4-42.8-9.3c-2.8-0.6-5.5-1.3-8.3-1.8c-16.6-3.3-33.2-6.9-49.9-9.3
	c-7.7-1.1-15.4-2.6-23.2-2.9c-2.3-0.1-4.7-0.4-6.3-2.4c11-7.6,23.5-11.9,36.1-15.9c25.3-8.1,51.4-13.5,76.9-21.1
	C328.8,396.5,333.5,394,339,394.1z"/>
<path class="st10" d="M210.8,435c27.1,2.6,53.7,7.7,80.3,13.4c1.6,2.4,4.2,2.5,6.7,2.7c6.6,0.5,6.6,0.7,5.9,7.1
	c-0.3,3-1.7,6-0.4,9.3c1.2,2.8,2.4,4,5.2,2.1c5.6,3,6.8,5.6,4.8,11.5c-3.1,1.2-5.9-0.3-8.7-1.2c-18-5.9-36-11.9-54.2-17.1
	c-18.2-5.2-36.7-9.4-55.6-11.8c-26.3-2.7-52.5-3.3-78.2,4.7c-0.8,0.2-1.6,0.4-2.4,0.7c-4.5,1.5-4.7,2.4-2.1,6.3
	c0.4,0.5,0.8,1.1,1.2,1.6c1,1.9,2.3,3.7,3,5.8c1.2,3.3,3.6,4.7,6.9,4.5c18.4-0.8,36.2,3.2,54,7.4c32.9,10,63.7,24.8,93.9,41.2
	c1.6,0.9,3.4,1.4,4.3,3.3c0.8,8.1,1.9,8.5,10.1,6.9c6.6-1.3,13.4-1.3,20.1,0.1c-0.4,2.7-0.5,2.5-3.9,3c-1,0.2-3.6-2.1-3.3,1.4
	c-3,3.1-7.6,3.7-10.5,6.9c-0.9,1-2.1,0.1-3.1-0.5c-6.3-3.3-8.4-2.4-10.1,4.4c-0.1,0.5-0.4,0.9-0.8,1.2c-14-8.6-27.6-17.8-41.9-25.8
	c-18.7-10.6-38-19.7-57.9-27.8c-4.4,0.1-8.3-1.9-12.3-3.3c-10.7-3.7-21.5-6.5-32.8-7.7c-4.7-0.5-4.8-0.2-2.9,3.9
	c0.9,1.9,2,3.8,2.9,5.8c0.8,1.8,1.7,3.7,0.1,5.6c-3.5,1.4-7,1.3-10.6,0.3C105,476.4,92.5,451.6,80,426.9c-2.6-5.1-6.2-7.7-12.1-7.6
	c-19,0.2-37.9,0.1-56.9,0.1c-3,0-6,0.1-8.8,1.3c1.1-6.2,6.9-11.5,13.6-11.5c18.8-0.1,37.6-0.3,56.4,0c7.2,0.1,12.9,3.3,16.3,10.3
	c4.8,9.9,10.1,19.5,14.9,29.3c1.4,2.8,2.7,3.6,5.7,2.2c27.8-13.3,57.4-16.8,87.8-16.1C201.5,434.9,206.1,434.9,210.8,435z"/>
<path class="st11" d="M821.3,328.5c-2,3.1-6.1,2.2-8.6,4.4c-0.7,1.5-2.1,2-3.5,2.5c-12,4.4-24,9-35.9,13.7c-3.7,1.4-7,1.4-10.6,0
	c-18-6.9-36-13.9-53.9-20.9c-9.1-3.6-18-7.6-27.3-10.6c-1.1-0.3-2.3-0.7-2.4-2.2c12.6-4.9,25.2-9.9,37.8-14.8
	c16.3-6.3,32.7-12.5,49-18.9c2.4-0.9,4.2-0.9,6.6,0.1c14.1,5.7,28.2,11.2,42.3,16.8c1.4,0.5,2.8,0.8,4.2,1.2
	c12.2,4.9,24.5,9.9,37.4,15.1c-9.9,5.1-20.4,7.5-29.7,12.7c-2.8,1.2-5.2-0.6-7.6-1.3c-13.8-4.1-27.6-8.5-41.4-12.9
	c-2.4-0.8-4-2.1-5.4-4c-1.7-2.2-4-3.2-6.5-1.4c-2.1,1.6-2.6,3.9-1.2,6.2c1.6,2.7,4.2,2.9,6.4,1.1c2.9-2.2,5.7-1.9,8.9-0.9
	c11.7,3.7,23.4,7.6,35.2,10.9C817.1,326,820,325.9,821.3,328.5z"/>
<path class="st3" d="M557.1,464.3c0-20.8,0-41.6,0-62.4c0-1-0.3-2-0.5-2.9c0.2-0.3,0.4-0.6,0.7-0.9c1.8-2,4.3-1.7,6.5-1.7
	c29.5-0.1,58.9,0,88.4,0c2.3,0,4.7-0.3,6.6,1.6c1.7,4.2,0.3,8.7,1.2,13c2.1,5.4,2.1,10.8,0.1,16.2c-1,10.8-0.1,21.6-0.5,32.4
	c-0.2,6.6-0.2,13.3-4.9,18.8c-3.7,4.4-8,7.6-13.9,7.6c-21,0.1-41.9-0.2-62.9,0.2C565.6,486.5,557.3,474.8,557.1,464.3z"/>
<path class="st12" d="M817.3,334.1c2.5-0.5,3.8-0.1,3.7,3.1c-0.3,9.3-0.3,18.6,0,27.9c0.2,5.7-2.4,9.5-7,12.2
	c-8.9,5.2-18.8,7.3-28.8,8.7c-16.8,2.3-33.4,0.4-49.9-2.9c-4-1.8-8.1-3.5-12.1-5.3c-5.8-2.7-8.8-6.9-8.5-13.7
	c0.5-10.4,0.3-20.9,0.4-31.3c2.2-1.3,4.2,0.1,6.1,0.8c14,5.2,27.9,10.7,41.8,16.2c3.5,1.4,6.4,1.5,10,0.1c12-4.9,24.2-9.2,36.2-14.1
	C811.8,334.8,814.7,335.1,817.3,334.1z"/>
<path class="st13" d="M493.2,336.8c-0.6,7.4-6.8,10.4-11.8,13.7c-7,4.7-14.8,8.3-23.2,9.5c-20.8,2.8-40.4,0.7-58.2-12.2
	c-8.5-6.2-15.1-13.9-21.1-22.2c-1.8-2.5-3.7-4.2-6.9-2.5c-9.4-0.1-18.7-0.2-28.1-0.3c-1.6,0-3.3,0.4-4.8-0.6
	c8.8,0,17.6-0.1,26.5-0.1c8.6,0,7.2,0.6,7.4-7c2-0.8,3.1,0.7,4.3,1.8c12.2,11.1,26.3,18.8,42.1,23c12.6,3.4,25,2.1,37-3.2
	c11.2-5,21.4-11.3,30.9-19.1c1.6-1.3,3.2-3,5.7-2.6c-0.4,4,1.2,5.3,5.3,5.1c8.2-0.3,16.5,0,24.7,0c-7.5,2.1-15,0.7-22.6,0.8
	c-8.3,0.1-7.3-0.7-7.3,7.5C493,331.2,493.1,334,493.2,336.8z"/>
<path class="st14" d="M658.9,398c-33.9,0-67.7,0.1-101.6,0.1c-0.1-8.6,6.4-16,14.8-16.1c24.2-0.2,48.3-0.1,72.5,0
	C653.3,382,661.1,390.7,658.9,398z"/>
<path class="st15" d="M817.3,334.1c-15.8,6.1-31.6,12.2-47.3,18.4c-2,0.8-3.5,0-5.2-0.6c-16.6-6.3-33.2-12.7-49.8-19
	c-3.9-4.2-9.6-4.6-14.5-6.9c-6-2.8-12.3-4.7-18.5-7c-1.7-0.6-3.7-1-3-3.6c27,10.5,54,20.8,80.8,31.5c5.6,2.2,10.4,2.5,16.1,0.1
	c12.1-5.1,24.5-9.4,36.8-14C814.2,333.3,815.8,333.7,817.3,334.1z"/>
<path class="st16" d="M660.2,427.2c-0.8-5.4-0.5-10.8-0.1-16.2c5.1,2.8,10.9,4.4,15,8.9C670.2,422.4,665.2,424.8,660.2,427.2z"/>
<path class="st17" d="M259.8,170.9c6.8-7.8,13.6-15.6,20.5-23.4c-4.1,8.6-8.4,17.1-14.1,24.7C264.8,167.7,261.7,172.3,259.8,170.9z"
	/>
<path class="st18" d="M230,244c1.1-0.4,0.9-1.4,1.2-2.2c0.9,2.8,1.8,5.6,2.6,8.4C231.6,248.6,230.6,246.4,230,244z"/>
<path class="st19" d="M118.4,500.7c3.5-0.3,6.9-0.7,10.4-1c6.7-2,12.8,2.8,13.6,10.4c0.3,2.6-1.5,5.7,0.4,7.7
	c1.7,1.8,4.8,0.6,7.2,1.2c5.4,1.3,7,5.7,8.4,10.2c0.2,3.9-2.9,6.2-4.5,9.2c-0.7,1-1.5,1.9-2.7,2.5c-8.9,4.7-17.8,9.5-26.4,14.8
	c-13.5,8.4-27.6,15.9-41.1,24.2c15.4-9.2,31.1-17.8,46.3-27.2c6.8-4.2,13.7-8.6,21.3-11.3c5.1,3.1,6.8,8.4,8.4,13.5
	c1.3,4.3-2.7,6.7-5,9.6c-12.3,10.3-25.8,19.2-38.6,29.8c7.5,1.2,14.7-0.8,21.6,1.2c-1.1,1.8-0.1,3.2,0.8,4.9
	c5.3,9.8,12.2,18.6,17.3,28.5c11,17.4,22.8,34.2,35.1,50.7c4.2,5.6,7.7,11.6,13,16.3c5.8,5.4,9.5,12.3,14.1,18.6
	c9.1,12.6,17.3,25.6,21.9,40.6c2.3,11.3,3.1,22.6,2.5,34.1c-0.8,16.8-4.7,32.8-10,48.6c-2.7,8-4.3,16.4-7.8,24.1
	c-9.4-0.4-18.2-3.3-26.9-6.3c-15-5.2-29-12.5-40.5-23.9c-7.6-7.4-13.9-15.8-19.1-25.1c-7.7-13.8-13.4-28.2-17.9-43.4
	c-4-13.7-9-27.1-12.5-41c-2.8-11-5.3-22.2-8.2-33.1c-6.1-22.8-10.4-45.9-16.5-68.7c-1.5-5.7-5.4-9.4-9.9-12.6
	c-3.6-2.5-7.1-4.9-9.6-8.5c-2.4-3.4-6.3-5.3-9.7-6.7c-7.9-3.1-11.1-9.9-13.9-16.6c-2.1-4.9-5.9-7.8-9-11.6
	c-3.3-3.9-5.4-8.1-4.9-13.1c0.9-7.9-2.2-14.9-4.1-22.2c-3.8-14.2,0.6-26,11.4-35.6c0.4-0.4,0.6-1.1,0.9-1.7c4.8-1.8,8-5.7,12-8.5
	c8.2-5.7,16.2-11.7,24.3-17.5c3.5-2.5,7.5-4.3,11.6-1.6c3.8,2.4,5,6.4,4.9,10.9c0,6.6-3.2,11.8-7.4,16.4C72,500,63,506.9,54.8,514.7
	c-1.4,1.3-2.9,2.4-1.6,5c1.6,3.2,2.9,4.6,7,2.9C79.3,514.5,98.8,507.3,118.4,500.7z"/>
<path class="st20" d="M137.8,596.2c-8,0-16.1,0-24.1,0c-0.2-0.5-0.4-1-0.6-1.5c13.9-10.4,27.7-20.8,41.6-31.2
	c2.6,0.7,3.4,2.9,4.5,4.9c3,5.7,5.7,11.5,8.8,17.1c1.7,3.1,3.6,6.7-1.1,9.3c-1.6,1.9-5.3-0.2-6.2,3.2c-0.8-0.4-0.5-2-1.9-2
	C151.9,598.5,144.9,598.3,137.8,596.2z"/>
<path class="st21" d="M305.3,570.7c-8.8-5.8-17.5-11.6-26.3-17.3c4.8-2.8,8.8-6.8,13.1-10.2c4.6-3.7,9.9-2.7,15.2-1.9
	c1.8,2,4.8,2.1,6.7,4c0.9,5.9,0.6,11.8,0.3,17.8C314.1,568,311.6,569.8,305.3,570.7z"/>
<path class="st22" d="M240,755.1c-1.6-1.9-2.8-4.1-3.6-6.4c-5.5-14.6-14.7-27-23.6-39.6c-3-4.3-6.8-8.2-8.8-13.2
	c7.6,0.4,13.8,4.8,20.7,7.2c1.7,0.6,3.4,1,5.1,1.5c0.6-0.2,1,0,1.1,0.7c3,15.8,6.1,31.6,9,47.4C240.2,753.4,240,754.3,240,755.1z"/>
<path class="st23" d="M166.9,594.9c1.7-2.3,2.2-4.7,0.8-7.4c-4.3-8-8.7-16-13-24c5.2-8.5,4.3-13.6-3.7-21.5c-0.5-0.7-0.5-1.4,0-2.1
	c0.7-0.7,1.5-1.4,2.2-2.1c3.1-0.9,4.2,1.6,5.3,3.5c4.1,6.9,6.9,14.4,9.4,21.9c1.8,4.9,4.5,9.2,7,13.7c3.8,6.8,0.5,15.8-6.8,18.5
	C167.8,595.5,167.3,595.1,166.9,594.9z"/>
<path class="st24" d="M167.9,563.2c-3.7-4.2-4.5-9.8-7-14.6c-2-3.9-3.1-8.7-7.7-10.8c1.6-2.6,3.3-5.2,4.9-7.8c3.2,0.1,6.4-1,9.6-0.1
	c6,3.9,8,8.7,6.4,15.6C172.7,551.7,170.3,557.5,167.9,563.2z"/>
<path class="st25" d="M231,705.3c-0.4-0.2-0.8-0.4-1.1-0.7c-0.2-8-2.3-15.7-3.2-23.5c-1.2-10-2-20.1-2.4-30.2
	c-0.8-17.9-0.6-35.9,2.8-53.6c1-5.3,2.3-10.5,3.6-16.6c1.9,2.3,1.2,3.9,0.8,5.6c-6.1,23.4-6.2,47.4-5.1,71.3
	c0.7,15.3,3.3,30.6,5,45.9C231.4,704,231.1,704.6,231,705.3z"/>
<path class="st26" d="M305.3,570.7c8.3-2.2,7.8-8.7,7.5-15.1c-0.2-3.8-0.2-7.6-0.3-11.3c-0.1-0.6,0.1-1.2,0.6-1.6
	c2.6-0.9,3.6,0.4,4,2.8c0.2,1.3-1,2.5-0.2,3.8c0,4.8,0,9.6,0,14.5c0,2.3,0.9,4.9-2.2,6.5c-1.5,0.8-0.5,2.6,0.4,3.4
	c1.4,1.3,2.1,2.5,1.2,4.3c-2.7,3.5-6,5.5-10.1,2.5C302.7,577.7,303.3,574.1,305.3,570.7z"/>
<path class="st27" d="M307.8,542.1c-8.6-1.3-15.9,0.6-21.4,7.9c-1.8,2.5-4.6,2.9-7.4,3.4c-1.9-0.9-3.8-1.9-5.2-3.5
	c-0.7-3.3-0.4-6.4,2.8-8.1c3.1-1.6,6.1-1.3,8.5,1.4c1.1,1.2,2.1,1.8,3.1,0.3c2.3-3.4,5.9-4.4,9.5-5.4c2.7-2.1,5.8-1.3,8.8-1
	c2.1,0.7,3.2,1.9,2.3,4.2C308.7,541.5,308.3,541.9,307.8,542.1z"/>
<path class="st28" d="M629.9,681.9c0.3-0.1,0.6-0.1,0.9-0.1c3.7-1.2,4.9-0.2,3.3,3.7c-1.4,3.4-0.6,7.2-0.8,10.8
	c-0.1,2.8,0,5.6-2.4,7.7c0,0,0,0,0,0c-2.3-5.2-1.1-10.6-0.5-15.9C630.8,685.9,631.1,683.9,629.9,681.9z"/>
<path class="st29" d="M631,704c1.3-4.6,0.8-9.4,0.9-14.1c0.1-1.8-0.5-3.8,0.7-5.3c2.7-3.3-0.5-2.4-1.9-2.8
	c7.9-0.6,15.8-1.4,23.7-1.8c19.8-1,39.2-4.2,58.6-7.6c12.6-2.2,24.8-5.7,37.4-7.6c0.1,3.8,0,7.7,0.3,11.5c0.5,6.1-2.5,9.9-7.5,12.8
	c-6.4,3.7-13.7,4.8-20.6,6.9c-11.3,1.7-22.7,3.6-34,4.9C669.7,703.2,650.4,703.9,631,704z"/>
<path class="st30" d="M655.9,524c-7.6,4.6-13.9,10.6-18.6,18.1c-3.9,6.2-6.1,13-6.7,20.2c-0.9,11.8,1.1,22.9,7.5,33
	c0.6,0.9,0.7,2.2,1.1,3.3c-0.3,0.5-0.6,1-1.2,1.3c-1.1,0.5-2.2,1-3.3,1.2c-24.1,2.6-48.2,5.2-72.5,4.4c-2.5-0.1-5,0.1-7.4-0.5
	c-2.9-1.1-3.5-2.7-1.4-5.2c2.1-2.5,4.2-5.1,6.2-7.8c0.8-1.1,1.9-2.2,1.2-3.6c-0.7-1.4-2.3-1-3.6-1c-9.5-0.1-18.9,0-28.4,0
	c-1.5,0-3,0.1-4.5-0.3c-1.7-0.4-3.4-0.8-2.5-3.3c11.8-0.8,23.6-0.1,35.4-0.3c2.3-0.1,4.7,0.3,6.8-1.4c-0.9-2.5-3.7-1.4-5-2.9
	c-0.5-2.8,1.8-2.5,3.2-2.5c4.4-0.1,6-2.9,6.8-6.6c2.1-9,2.2-18.1,0.1-27.1c-0.4-1.7-1.4-3.4-0.4-5.3c4-1.9,8.4-2.4,12.6-2.9
	c9.3-0.9,18.4-2.4,27.6-4.1c13.1-2.4,26-5.7,38.8-9.2c2.1-0.6,4.2-1.2,6.4-0.8C655.6,521.4,657,522,655.9,524z"/>
<path class="st31" d="M521.9,584.1c0.8,2.9,3.2,1.9,4.9,1.9c11.1,0.1,22.2,0.2,33.3,0c3.5-0.1,4.1,0.9,2.4,3.9
	c-2.5,4.3-5.7,8.1-9.1,11.7c-1.4,1.5-0.2,1.4,0.5,1.9c-7,6.8-13,14.7-21.6,19.8c-6,2.7-10.7,7.6-16.4,10.9
	c-11.2,6.5-11.5,8.1-23.6,0.1c-9.1-6-17.4-12.8-25.3-20.1c-1-1-1.9-2.4-3.6-2.5c-6.9-5.5-12.4-12.2-17.2-19.5
	c-1.3-2-3.9-4.7-0.2-7.2c10.5-0.9,21.1-0.2,31.6-0.4c2.1-0.1,4.3,0.4,6.3-0.8c3.6-2.6,3.5-7,5.2-10.5c0.8-1.7,0.3-4.7,2.9-4.5
	c2.4,0.2,2.1,3,2.7,4.8c2.5,8.3,4.7,16.6,6.7,25c0.3,1.1,0.5,2.3,0.9,3.4c0.6,1.5,0.8,3.6,2.9,3.5c1.8-0.1,2-2,2.4-3.4
	c2.2-7.5,3.9-15.1,5.8-22.7c0.4-1.4,0.3-3.2,2-3.7c2-0.5,2.9,1.3,3.8,2.6C520.7,580.1,522.2,581.7,521.9,584.1z"/>
<path class="st32" d="M532.5,623.3c7.1-6.7,13.3-14.3,21.6-19.8c16.6,0.4,33.2,0.6,49.9-0.9c10.6-0.9,21.1-3,31.8-2.7
	c3.2,4.1,1.5,8.7,1.1,13.1c-0.3,3.4-1.2,6.8,0.4,10c0.9,0.5,1.9,0.9,2.7,1.6c0.4,0.5,0.4,0.9-0.1,1.3c-18.1,0.6-36.1,1.5-54.2,1.3
	C567.7,626.9,550.1,625.4,532.5,623.3z"/>
<path class="st33" d="M444.8,586.2c2.3,7.2,8,12.1,12.4,17.8c2,2.6,5.1,4.4,6.4,7.6c-24.9-6.2-48.7-15.4-72.1-25.7
	c-9-4-17.7-8.3-26.6-12.4c-1.2-0.5-2.5-0.9-3.7-1.3c-8.3-2.6-10.6-5.5-10.5-13.6c0-2.8-0.4-5.6,0.8-8.3c1.5-1.7,3-0.7,4.5,0
	c27.8,14.6,56.8,25.9,86.9,34.5C443.6,585.1,444.4,585.4,444.8,586.2z"/>
<path class="st34" d="M747.2,565.9c0.6,11.6,1.2,23.3,1.8,34.9c-13.5,5.4-27.5,9.2-42.1,12.3c10.6-12.2,20.8-24.5,22.5-41.2
	c5-0.5,9.1-3.4,13.7-5C744.4,566.5,745.7,565.7,747.2,565.9z"/>
<path class="st35" d="M639.8,625.9c0.2-0.3,0.3-0.5,0.5-0.8c2.4-2.3,5.4-1.3,8.1-1.4c3.3-0.2,4.2-1.5,3.9-4.8c-0.5-5-3.1-8.6-6.5-12
	c-1.8-1.9-4.9-3.3-3.9-6.9c7.6,1.4,9.5,8.7,13.9,13.5c1.9,2.1,0.3,4.8,0.1,7.2c-0.2,2.2,0.2,3.1,2.4,3.2c2.2,0.1,2.8-1.1,2.8-3.1
	c0.2-9.8,0.4-19.7,0-29.4c-0.2-4-0.8-7.9,0.2-11.8c2.7,0.5,4.2,1.9,4,4.8c0.7,10.6-1.7,21.1-1,31.7c0.5,7.4,0.1,7.4,7.2,7.1
	c3-0.6,1.9-3.1,2-4.8c0.2-8.1,0-16.3,0.1-24.4c0.1-6.3,4.6-9.5,10.6-7.6c3,1,3.2,3.6,3.3,6.1c0.1,8.5,0,17,0.1,25.4
	c0,0.8-0.1,1.6,0.1,2.2c-0.1-9.5-0.2-19.2,0.1-28.8c0.1-3.1,0.3-6.7,5.2-5.6c-2.9,3.7-2.9,8.1-2.9,12.5c0,7.1,0.2,14.2-0.1,21.3
	c-0.1,3.5,1.2,4.8,4.6,4.4c4-0.4,7.8,0,11.3,2.1c0.8,0.5,1,1.2,1.1,2c-12.7,0.6-25.5,0.1-38.3,0.3c-3,0-6-0.1-9,0.1
	c-1.6,0.1-3.8-0.2-4,2c-0.2,2.3,2.3,1.8,3.7,2.5c6,1.3,12.1,0.6,18.2,0.6c6.7,0,13.5,0.7,20.2-0.6c2.8-0.4,5.5-1,8.1,0.7
	c-0.8,3.1-3.8,2.8-5.9,3.9c-0.3,0.6-0.8,0.9-1.5,0.9c-12.8,0-25.5-0.5-38.3,0.3c-3,0.1-4.8,2-6.2,4.3c-2.3-0.6-5.2-0.6-2.4-4.3
	c1.7-2.2-1.1-9.5-4.1-10.2C644.8,627.9,642.6,626,639.8,625.9z"/>
<path class="st36" d="M692.8,585.7c-3.3,0.2-3.9,2.2-3.8,5.1c0.1,10.3,0.1,20.6,0,30.9c0,1.4,1,3.9-1.5,4c-2.4,0.1-1.7-2.4-1.7-3.9
	c-0.1-10.1,0-20.3,0-30.4c0-1.9,0.4-4.8-2.7-3.8c-2.8,0.9-8.1-2.9-8.1,3.9c0.1,10.5,0,20.9,0,31.4c0,1.1,0.5,2.5-1.2,2.9
	c-1.5,0.3-2.6-0.1-2.8-1.9c-1.6-1.8-1.5-4-1.5-6.1c0-6.5-0.2-12.9,0-19.4c0.2-5.4-0.2-10.5-4.5-14.5c-1.3-1.4-2.6-2.9-3.9-4.3
	c-1.5-3.9-2.8-7.8-0.7-11.9c1.4-2.7,3.2-4.7,6.4-4.8c3.3,0,5.6,1.7,7.1,4.6c1.9,4,1.4,8.2,1.1,12.3c-0.3,4.4,2.1,4.4,5.1,4.3
	c2.9-0.2,6.3,0.9,5.7-4.2c-0.3-3.3-0.2-6.7,0.4-9.9c0.7-3.8,2.9-6.8,7.3-6.8c3.7,0,7.2,3.9,7.5,8
	C701.5,577.8,697.3,581.8,692.8,585.7z"/>
<path class="st37" d="M679.2,655.5c-6.5,0-13,0-19.5,0c-2.5,0-4.9-0.7-4.8-3.8c0.1-3,2.3-3.7,4.9-3.7c13.5,0,27,0.1,40.5,0
	c2.6,0,4.4,1.1,4.5,3.6c0.2,3.1-2.2,3.9-4.7,4C693.2,655.7,686.2,655.6,679.2,655.5C679.2,655.6,679.2,655.6,679.2,655.5z"/>
<path class="st38" d="M705.8,633.6c-2.7,0.3-5.3,0.6-8,0.8c-12.9,0-25.8,0-38.7,0c-0.7-0.1-1.3-0.2-2-0.2c-2.4-0.1-4.5-0.8-4.2-3.7
	c0.2-2.4,1.6-3.8,4.3-3.8c15.1,0,30.3,0,45.4,0c1.6,0,2.9,0.6,4.2,1.4C707.1,630.1,707.2,632,705.8,633.6z"/>
<path class="st39" d="M653.9,643c-0.7-4.2,1.9-5.3,5.4-5.7c13.2,0.5,26.3,0,39.5,0.3c0.4,0,0.8,0,1.1,0c0.8,0.1,1.6,0.1,2.5,0.3
	c2.2,0.4,3.8,1.7,3.4,4c-0.3,2.2-2,3.2-4.3,3.2c-14.4-0.1-28.8-0.1-43.2-0.1C656.5,644.9,655.2,644,653.9,643z"/>
<path class="st40" d="M641.7,600c1.5,3.5,4.6,5.6,7,8.3c1.6,1.9,3.5,3.6,4.2,6.1c2.4,8.8,1.4,10.1-7.7,10.5c-1.7,0.1-3.3,0.1-5,0.1
	c-1.1-0.1-2.3-0.2-3.4-0.2c-1.4-2.3-1.1-4.9-0.7-7.3c0.9-6-0.1-12.2,2.1-18c0.4-0.3,0.7-0.5,1.1-0.8
	C640.1,599.1,640.9,599.6,641.7,600z"/>
<path class="st41" d="M351.9,549.9c0,2.1-0.1,4.3-0.1,6.4c-0.2,5.4-1,11,6.3,12.8c1.2,0.3,2.1,2,3.1,3.1c1.3,3.7,1,6.9-2.7,9
	c-2.2,1.3-4.6,1.5-6.5-0.2c-1.9-1.7-3.6-4.9-2.2-6.6c3.1-3.8,0.8-5.8-1.5-8.1c-0.3-0.3-0.4-0.9-0.5-1.4c-1.8-3.1-1.2-6.4-1-9.6
	c0.3-4.5-1-8-4.7-10.6c-1.2-0.6-2.9-0.5-3-2.5c4.3-2.8,8.8-2.2,13.3-0.4C353.9,544.5,354,547.3,351.9,549.9z"/>
<path class="st42" d="M326,553c-0.1,0.3-0.1,0.5-0.1,0.8c-0.7,4.4-0.7,8.8,0.1,13.2c1.2,1.1,2.7,2,3.7,3.3c2.2,2.9,2.1,6-0.4,8.6
	c-2.1,2.2-4.9,2.9-7.7,1c-2.9-2-5-5.4-2.7-8c4.9-5.8,2.3-12.3,3.1-18.5c0.1-0.8-0.1-1.7-0.1-2.5c-1.1-2.6-1.7-5.2-0.2-7.9
	c2.7-1.7,4-0.4,4.5,2.2c0.4,2.3,0.4,4.6,0.1,6.9C326.2,552.4,326.1,552.7,326,553z"/>
<path class="st43" d="M339.3,543c1.3,0.1,2.5,0.1,3.8,0.2c0.1,0.6,0.1,1.1,0,1.7c0.2,6.2,0.9,12.5-0.5,18.7c-0.3,1.4-0.4,3,0.3,4.4
	c0.8,1.1,1.7,2.1,2.3,3.2c1.8,3.7,1.1,6.8-2.5,8.9c-2.9,1.7-5.7,1-7.4-1.7c-2-3.1-2.5-6.8,1.3-9.1c4.1-2.5,1.6-6.2,2.3-9.3
	c-2.3-5.1-1.5-10.3-0.8-15.6C338.3,543.8,338.8,543.3,339.3,543z"/>
<path class="st44" d="M679.8,659.2c3.8,0,7.6,0,11.4,0c1,0,2.2-0.2,2.5,1c0.2,0.6-0.5,1.5-1,2.1c-5.8,7.2-20.3,7.1-25.7-0.3
	c-0.5-0.6-0.9-1.5-0.8-2.2c0.2-1,1.3-0.7,2.1-0.7c3.8,0,7.6,0,11.4,0C679.8,659.1,679.8,659.1,679.8,659.2z"/>
<path class="st45" d="M343.1,543.9c0.3-0.2,0.3-0.5,0.1-0.8c7.7,6,4.3,14.3,4.6,21.8c-1.6-0.7-3.1-1.4-4.7-2
	C342.2,556.6,342.2,550.3,343.1,543.9z"/>
<path class="st46" d="M334.3,557.2c-0.1,3.3-0.1,6.6-0.2,9.9c-0.1,2.4-0.8,3.6-3.3,1.8c-0.3-7.4-0.8-14.8-1.1-22.1
	c-0.1-2.6,0.5-5.2,4.3-4C336.5,547.6,336.2,552.4,334.3,557.2z"/>
<path class="st47" d="M334.3,557.2c-0.1-4.7-0.2-9.4-0.4-14.1c0.2-0.2,0.3-0.4,0.5-0.6c1.8-0.8,3.3-0.6,4.4,1.2
	c0,5.4,0,10.8,0.1,16.2C337.4,559,335.8,558.1,334.3,557.2z"/>
<path class="st48" d="M329.9,554.9c-1.3-0.6-2.6-1.2-3.8-1.9c0,0-0.1,0-0.1,0c-0.7-3.3-0.4-6.6-0.2-10c0.4-0.5,1-0.8,1.6-0.9
	c1.6-0.1,3.1,0.2,3.1,2.2C330.3,547.8,331.2,551.4,329.9,554.9z"/>
<path class="st49" d="M655.9,524c0-1.4-0.8-2-2-2.1c4-4.5,9.2-5.3,14.8-4.9c0.4,0.4,0.9,0.7,1.3,1.1c-1,3.3-4.1,1.1-5.9,2.2
	C661.5,521.9,658.9,523.3,655.9,524z"/>
<path class="st50" d="M329.9,554.9c0-3.1,0-6.2,0.2-9.3c0.2-2.2-0.9-2.9-2.8-2.9c2.5-3.2,4.8-3.1,7,0.3c0,0-0.3,0-0.3,0
	c-3.1-0.5-3,1.7-3,3.7c0,7.4-0.1,14.8-0.1,22.2C328.9,564.4,330.5,559.5,329.9,554.9z"/>
<path class="st51" d="M322,543c-0.1,2.6-0.1,5.3-0.2,7.9c-1.5-0.9-3.1-1.8-4.6-2.7c-1.2-1.7-0.3-3.7-0.7-5.5
	c1.1-2.1,2.7-0.9,4.2-0.7C321.2,542.2,321.6,542.5,322,543z"/>
<path class="st41" d="M343.1,543.9c0,6.3,0,12.7,0,19c0,1.7-0.1,3.3-0.1,5C341.5,559.9,341.2,551.9,343.1,543.9z"/>
<path class="st50" d="M326,567c-1.6-4.4-1.2-8.8-0.1-13.2C326,558.2,326,562.6,326,567z"/>
<path class="st50" d="M317.2,542.1c-0.7,2-0.4,4.1-0.1,6.1c0,0.3-0.1,0.6-0.2,0.9c-2.2-1.5,1.2-6.6-3.9-6.2
	c-0.3-0.6-0.1-1.1,0.4-1.4C314.8,540.9,316.2,540.8,317.2,542.1z"/>
<path class="st9" d="M668.7,517c-4.9,1.6-10.2,2.3-14.8,4.9c-6.6,1.5-13.2,2.7-19.7,4.6c-8.4,2.5-17,3.7-25.5,5.8
	c-11.3,2.8-22.9,3-34.2,5.4c-1.8,0.4-3.6,0.3-5.5,0.4c-3.1,0-3.9-2.9-5.4-4.6c-7.3-8.7-17-10.6-27.7-10.7
	c-11.7-0.1-21.3,4.4-29.5,12.4c-2,2-4,1.4-5.6-0.4c-7.5-9.1-18.2-11.1-28.8-13.1c-6.1-1.1-11.6,2.2-17.4,3.5c-3,0-5.3,1.1-7.1,3.5
	c-2.2,3.4-4.3,6.8-8.3,8.3c-5.1,0.4-9.8-1.5-14.6-2.4c-11.2-2.1-22.1-5.5-33.3-7.7c-3.7-3-8.6-1.8-12.6-3.9
	c-1.5-2.2-5.8-1.3-5.8-5.2c3.2-1.7,6.7-1.4,10.1-1.4c7.1,0,8.7-2.3,6.2-9.1c-0.2-0.5-0.3-0.9-0.3-1.4c7.3,0.1,14.2,2.4,21.3,3.6
	c19,3.1,38.1,5.3,57.3,6.7c16.6,1.2,33.2,1.2,49.9,0.9c28.8-0.6,57.2-4.4,85.3-10.3c39.6-8.4,76.9-22.8,112.7-41.5
	c1.3-0.7,2.6-1.5,4.2-1.3c4,1.9,5.7,5.8,7.5,9.4c2.6,5,5.6,10,5.2,16.1C711.9,500.4,690.3,508.5,668.7,517z"/>
<path class="st52" d="M789.9,456.5c0.2-10.9,5.4-16.8,14.3-16.6c2.4,0.1,4.1,1.8,6.4,1.9c4.6,4.6,6.6,9.9,4.5,16.3
	c-0.6,1.8-0.1,2.9,1.8,3.3c8.5,1.6,11.4,7.7,12.4,15.3c1.1,8.8,1.6,17.5-0.2,26.3c-1.4,6.8-8.3,9.9-14.1,5.7
	c-4.8-3.5-9.6-2.9-14.7-2c-6,1.1-12,2.2-18.7,3.4c1.6-5.2,4.4-9,6.5-13.2c4.5-8.5,8.8-17.1,11.2-26.5c0.5-1.9,0.9-3.4-1.5-4.4
	C793.8,464.3,791.4,460.7,789.9,456.5z"/>
<path class="st53" d="M830,423.1c-4.2,3.3-2.7-2.8-5.8-2.5c-0.3,0.3-1.3,1.2-3.3,3.1c0.3-12.6,4.4-23.5,5.5-34.7
	c-0.7-5-2.1-10.2,3.7-13.4c0.5-0.3,0.4-1.8,0.4-2.8c0-11.8,0-23.5,0-35.3c0-2-0.2-4-1.8-5.5c-0.6-0.7-0.5-1.4,0-2.1
	c3.1-0.3,3.9,1.5,4.1,4.2c0.9,9.2,0.3,18.5,0.4,27.7c0.1,3.8-0.1,7.6,0.1,11.4c0.2,3,1.8,4.9,5,4.8c-1.2,11.7,5.3,21.3,8.5,31.8
	c0.2,3.5,3.3,6.6,1.3,10.6c-0.6-0.2-1.3-0.2-1.8-0.6c-2.9-2.8-4.5-2.8-5.1,1.7c-0.2,1.5-0.6,5.5-3.7,1.6c-0.8-1-1.9-0.2-2.8,0.1
	c-1.6,0.5-2.1,0.4-3.3-1.3C830,419.2,830.2,422.1,830,423.1z"/>
<path class="st54" d="M828.9,329.9c0,0.7,0,1.4,0,2.1c-2.6-1.2-5.1-2.3-7.7-3.5c-14.6-4.4-29.2-8.7-43.7-13.4c-2.9-1-4,0.1-5.9,1.7
	c-2.6,2.2-5.5,2.1-7.9-0.5c-2.6-2.8-2.5-7,0.4-9.3c2.8-2.2,6.7-2.7,8.3,0.5c2.4,5,7,5.1,11,6.5c14.3,4.7,28.7,9.2,43.1,13.7
	C827.6,328.1,829.2,328,828.9,329.9z"/>
<path class="st55" d="M18.2,433.3c3.8,0.7,5.9,2.6,5.8,6.1c-0.2,3.3-2.3,5.3-5.6,5.1c-3.3-0.2-5.1-2.6-5.1-5.7
	C13.2,435.6,15.5,433.9,18.2,433.3z"/>
<path class="st56" d="M28,451.8c3.4,0.2,5.2,2.1,5.2,5.4c0,3.4-2.1,5-5.4,5.1c-3.6,0.1-5.2-2.2-5.1-5.3
	C22.6,453.7,24.3,451.6,28,451.8z"/>
<path class="st8" d="M492.9,315c-8.3,5.8-15.9,12.5-24.8,17.5c-14.9,8.4-30.6,13.4-47.5,9.2c-12.4-3-24-8.4-34.5-16.1
	c-4.6-3.3-8.7-7.1-13.1-10.6c-16.7-15.7-29.2-34.1-36.3-55.9c-0.5-1.6-1-3-2.8-3.9c-17.6-9.3-24.8-25.6-28.8-43.9
	c-1.5-6.8-1.3-13.6,1.2-20.2c4.1-10.8,11.7-12.4,19.9-3.4c0-9.6,5.4-16.2,10-23.2c14.4-22,25.9-45.3,32.3-71
	c0.2-0.6,0.5-1.2,1.1-2.4c8,32.6,25.3,55.6,59.1,63C411,137,398.8,117,395.2,92.1c11.4,28.8,31.7,48.4,60.4,59.5
	c-10.7-8.5-20.3-18-26.1-30.7c11,11.9,24.1,21.1,38.5,29.3c-3.2,2-6.1,3.7-8.9,5.7c-5.1,3.6-4.9,6.2,0.4,9.1c1,0.5,2.1,1.1,3.1,1.6
	c-0.2,1.7-1.4,2.6-2.5,3.6c-5.2,4.7-8.7,10.5-10.7,17.1c-1.2,3.8-3.1,4.9-7,3.5c-6.9-2.5-13.9-2.7-20.9-0.1
	c-2.4,0.9-4.8,1.2-5.7-1.9c-2.5-8.4-7.8-14.9-14.1-20.8c-0.5-0.5-0.8-1.1-1-1.7c0.1-2.2,2-1.8,3.3-2.3c4.2-1.5,4.5-3.2,1.2-6.3
	c-1.1-1-2.3-2-3.6-2.6c-14.8-7.3-35.2-8.8-50.1,2.2c-3.1,2.3-5.3,5-4.9,9.1c-1.3,3.8-4.8,5.9-7,8.9c-14.7,19.9-8.1,48.6,14,60.1
	c17.8,9.2,39.1,6.2,52.3-7.7c6.8-7.2,10.7-15.9,10.7-26.1c0-2.2-0.2-4.3,0.2-6.5c0.6-2.8,2-4.6,5.3-3.4c4.1,8.6,2.7,17.1-0.4,25.5
	c-1.9,5.1-4.4,10-7.7,14.4c-1.1,1.5-2.2,3.1-1.5,4.8c-0.8-2.7,1.4-4.7,2.8-6.8c5.8-8.9,9.7-18.4,9.1-29.3c-0.2-3.1-1.6-6.1-1.1-9.3
	c4.5-3.9,9.8-1.7,14.7-1.5c1.4,0,2.9,0.8,4.3,1.2c3.6,0.9,4.9,2.9,5,6.8c0.3,12.2,3.9,23.1,13,31.8c11.3,10.8,30.7,14.6,45.1,8.4
	c19-8.2,27.7-21.6,27-42.1c-0.3-9-4.3-16.6-9.9-23.5c-1.1-1.4-2.9-2.4-2.3-4.6c2.5-3,1.7-5.5-1.1-7.7c-2.2-1.7-4.4-3.6-6.8-5
	c-11.3-6.5-17.9-16.6-21.8-28.7c4.6,5.8,8.7,12.1,13.7,17.6c8.7,9.7,18.6,18.2,28.9,26c3.2,2.4,4.5,4.9,4.7,8.6
	c0.1,2.4,0.7,4.9,1.1,7.4c9.9-7.2,17.2-4,19.8,8.3c2.5,11.6-0.1,22.5-4.3,33.2c-4.6,11.8-12.1,21.4-23.2,27.8
	c-1.3,0.7-2.6,1.3-3.1,3C521.4,280,509.2,298.8,492.9,315z"/>
<path class="st57" d="M401.2,165.8c7.4,5.8,13.1,12.8,15.6,22c0.7,2.4,1.5,2.9,3.8,2c7.6-3.1,15.3-2.6,22.9,0.1
	c2.4,0.9,3.7,0.9,4.5-2.1c2.3-8.9,7.4-15.9,14.7-21.3c16.8-12.2,41.7-12.8,57.7,1c15.3,17.1,18.1,35.9,7.8,53.4
	c-10,16.9-31.5,24.9-51.7,19.1c-18.3-5.2-30.9-22.5-30.1-42.1c0.2-4.3-1.4-5.6-4.8-6.5c-5.8-1.5-11.7-2.3-17.6-0.3
	c-0.5,0.6-1.1,1-2,0.8c-3.3,0-3.9,1.8-3.7,4.9c1.3,23.2-14.9,42.2-38.3,45c-22.5,2.8-44.2-12.1-48.6-33.8
	c-3.1-15.3,1.1-28.6,12.6-39.5c0.8-0.8,1.6-1.7,2.4-2.5c0.3-1.7,1.6-2.5,3-3.1c15.5-7.8,31.1-9.2,47-1.2
	C398.3,162.7,400.2,163.7,401.2,165.8z"/>
<path class="st58" d="M389.1,505.8c3.5,1.8,3.9,4.9,2.8,8c-1.2,3.3-4.1,4.3-7.6,4.1c-3.7-0.2-7.5,0-11.3,0c-5.2,3-10.5,2.1-15.9,0.6
	c-1.2-1.3-1.2-2.8-0.5-4.3c2.4-2.2,5.3-1.4,8.1-1.5c3.8-0.2,7.6,0.1,11.4-0.6c-4-0.7-8-0.4-12-0.5c-2.5-0.1-5,0.4-7.2-1.3
	c-0.9-1.4-0.9-2.8-0.1-4.3c1.2-1.1,2.7-1.3,4.2-1.3c9-0.1,18.1-0.2,27.1,0.5C388.3,505.3,388.7,505.5,389.1,505.8z"/>
<path class="st59" d="M348.9,461c1.3-2.9,3.1-5.1,6.6-4.7c3.9,0.5,5.4,3.2,5.8,6.8c-0.2,3.2-1.7,5.7-4.4,7.4
	c-4.4,2.8-6,6.6-5.3,11.7c0.4,2.9,0.2,5.9,0.3,8.9c1,1.6,1.3,3.2,0.5,4.9c-1.7,2-3.4,2-5.1,0c-0.9-1.8-0.8-3.8-0.8-5.7
	c0-3.6,0.2-7.3,0-10.9c-0.2-4.6,1.1-8.4,4.9-11.1C348.9,466.4,346.9,464.4,348.9,461z"/>
<path class="st60" d="M372.1,496.6c3.1-2.6,6.5-4.7,7.9-9c1.2-3.6,4.7-4.2,7.8-3.4c3,0.8,5.3,3.3,4.9,6.6c-0.5,3.4-3.4,6.4-6.6,5
	c-6.1-2.6-8.7,1.4-11.9,4.8c-5,3.4-10.5,1.7-15.8,1.3c-2.6-3-2.2-4.5,1.2-5.2c3.6-0.7,7.2,0.5,10.7,0
	C370.9,496.6,371.5,496.5,372.1,496.6z"/>
<path class="st61" d="M357.7,501.3c5.5-0.2,11-0.4,16.5-0.6c4.9,0.6,9.3,2.7,13.8,4.4c-10.1,1.9-20.4,0.6-30.5,1
	C355.4,504.3,355.8,502.8,357.7,501.3z"/>
<path class="st62" d="M372.1,496.6c-0.5,0.3-0.9,0.5-1.4,0.8c-4.9,0.3-9.7-0.4-14.6,0.4c-1.7,0.3-3.2-0.3-4.2-1.8
	c0.1-1.6,0.1-3.3,0.2-4.9C358.4,494.2,365.4,495,372.1,496.6z"/>
<path class="st63" d="M308.1,470c-1.8,0.5-0.1,3.9-2.6,3.4c-1.7-0.3-1.7-2.6-2.6-3.7c-3.6-4.3-0.9-8.6-0.2-12.6
	c0.8-4.3-0.4-5.3-4.4-5.2c-2.9,0.1-6.6,1.2-7.3-3.6c15.7,3.3,31.5,6.7,47.2,10c1.3,0.3,2.5,0.9,3.7,1.4c-0.7,1.3-2.2,1.4-3.3,2
	c-3,1.8-3.7,4.4-1.5,7.1c5,6,3.6,12.6,2.1,19.3c-2.1,1-3.8,0.3-5.5-1c-1.8-3-0.9-6.4-1.1-9.6c-0.1-2.3,0-4.6-2.4-6
	c-0.4-0.4-0.7-0.8-0.8-1.3c-0.3-1.5,0.2-3,0.2-4.5c0-2.4-1-4.2-3.3-5c-2-0.7-3.6,0-4.9,1.5c-1.6,1.8-1.9,3.8-0.5,5.9
	c3.3,4.8,3.4,9.9,1.1,15.1c-1.9,0.9-3.6,0.6-5.1-0.8c-1.3-1.7-1.1-3.8-1.1-5.7c-0.1-2-0.3-4-2-5.4c-2.6-2.2-2.4-4.1-0.4-6.7
	c2.5-3.3,1.3-7.3-2-8.1c-2.1-0.5-4-0.1-5.3,1.7c-1.3,1.8-1.1,3.7-0.2,5.6C306.7,465.9,309.6,467.1,308.1,470z"/>
<path class="st64" d="M338.9,487.9c0.1-4.1,0.2-8.3,0.2-12.4c0-1.4,0.4-3.1-1.2-4c-3.1-1.8-4.4-4.4-3.2-7.9c1.2-3.6,4.2-3.7,7.3-3.8
	c0.8,0.2,1.5,0.4,2.3,0.6c3.7,2.5,5.5,6.3,3.2,9.1c-3.5,4.3-2.9,8.9-3,13.7c0,2.3,0.1,4.7,0,7c0,2.1,0.2,4.3-1.2,6.1
	c-1.5,0.9-3,0.9-4.5-0.1C337.2,493.4,337.2,490.6,338.9,487.9z"/>
<path class="st65" d="M343,490c-0.1-4.5-0.1-8.9-0.2-13.4c-0.1-2.7,0.4-4.6,2.8-6.8c3.4-3,1-6.6-1.4-9.5c1.7-0.7,3.1,0.8,4.7,0.7
	c0,3.6,0.8,6.6,6,6.4c-5.2,3-7.8,6.8-7,12.6c0.4,3.3,0,6.6-0.1,9.9C346.2,491.4,344.6,491.2,343,490z"/>
<path class="st66" d="M115.1,469.9c-0.8-1.6-1.5-3.3-2.3-4.9c0.5-3.1,3.2-3.7,5.5-4.2c10-2.4,20.1-4.6,30.5-4.4
	c12.8,0.3,25.6-0.6,38.3,1.4c15.1,2.1,29.9,5.7,44.6,10c18.5,5.4,36.7,11.5,55,17.6c6.8,2.3,13.7,4.1,20.2,6.9
	c1.7,0.7,3.6,1.1,4.3,3.1c-0.4,1.8-1.7,2.7-3.2,3.4c-4.4,0.8-8.9,0.4-13.4,0.4c-3.6,0-6.1-2.3-8.5-4.6c-1-0.9-1.7-2-2.9-2.7
	c-2.1-1.1-4.1-1.3-5.9,0.5c-1.4,1.4-1.6,3.2-0.8,5.1c1,2.3,2.9,3.3,5.3,2.6c8.8-2.6,17.4,2,26.2,1c0.6-0.1,1.2,0.5,1.6,1.1
	c0.7,1.8,0.6,3.4-1.2,4.5c-7.6,1.6-15.4,0.7-23.1,1.2c-4.2,0.3-8,0.5-11.5,3c-3.2,0.7-5.8-1.1-8.4-2.5
	c-22.8-11.8-46.4-21.7-70.7-29.7c-4.7-1.6-9.6-2.8-14.4-3.9c-10.3-2.7-20.7-4.4-31.3-5.4c-10.3-1-20.5-0.9-30.6,1.4
	C117.2,471,116,470.8,115.1,469.9z"/>
<path class="st9" d="M311,495.6c-6.9-3-14-5.5-21.2-7.7c-8.9-2.7-17.6-6-26.5-8.7c-12.4-3.8-24.6-8.1-37.1-11.5
	c-9.7-2.6-19.5-4.5-29.2-7.1c-2.8-0.8-5.9-0.8-8.9-1.2c1.2-4,3.6-7.1,7-9.4c10.2,0.3,20,2.7,29.9,4.8c27.8,5.9,54.5,15.3,81.4,24.1
	c2,0.7,4.1,1.2,6.2,1.8c3.5,4.8,2.3,9.9,0.9,14.9C312.6,496.5,311.8,496.6,311,495.6z"/>
<path class="st32" d="M180.9,474c8.8,0.8,16.8,4.3,25.1,7.2c22.5,7.7,44,17.7,65.1,28.5c0.7,0.4,1.6,0.4,2.4,0.5c3,7,3,7,11.3,6.1
	c2.8-0.3,5.5,0.4,8.2,1.1c2.4,1.8,5.7,2.4,7.2,5.4c-4.5,2.9-9.7,2.9-14.7,2.6c-3.7-0.2-7.2-0.3-10.7,0.8c-12-6-24-12.1-36-18.1
	c-18.4-9.3-37.5-16.9-57.1-23.1c-1.3-0.4-3.1-0.3-4-1.8C176.7,479.3,178.3,476.5,180.9,474z"/>
<path class="st67" d="M274.8,526c2.1-2.4,4.4-2.9,7.8-2.5c5.7,0.7,11.6,0.6,17.2-1.3c3.5-1.2,6.7-1.2,9.5,1.6c0.5,1.6,0,2.7-1.3,3.7
	c-5.9,1.9-12,0.3-18.6,1.1c6.3,0.5,12.1-1,17.7,0.9c1.5,1.3,2.1,2.8,1,4.6c-0.8,0.5-1.7,0.7-2.5,0.1c-6,0-11.9-0.1-17.9,0
	c-0.9,0-2,0.2-2.8,0.7c-3,1.9-6.1,1.9-8.7-0.3C273.4,532.3,273.5,529.1,274.8,526z"/>
<path class="st68" d="M313.1,495.9c-0.2-5-0.4-10.1-0.6-15.1c1.2-4.7,0-8.4-4.5-10.8c0-1.9-1.5-2.8-2.6-4c-2.8-3-2.7-7.4,0.3-9.7
	c2.9-2.2,6-2.1,8.7,0.2c2.4,2.1,2.1,7.3-0.3,9.7c-0.8,0.8-3,1.9-1.1,2.9c5.8,3.1,3.2,8.4,3.9,12.8c2.8,4.7,1.8,9.4-0.4,14
	C315.3,496.8,314.2,496.9,313.1,495.9z"/>
<path class="st69" d="M305.7,534.2c0.8,0,1.7-0.1,2.5-0.1c0.9,1.3,2.2,2.6,0.1,4c-3.5-0.1-6.9-0.1-10.4-0.2c-0.6-0.9-1.2-1.8-2-2.9
	C299.3,534.8,302.5,534.5,305.7,534.2z"/>
<path class="st70" d="M612.5,411c8.5,0,17,0,25.5,0c2.7,0,4.3,0.4,4.2,3.8c-0.2,14.1-0.5,28.3-0.1,42.4c0.2,7.2-5.6,13.2-13,12.9
	c-13.6-0.6-27.3-0.1-40.9-0.2c-8.1,0-12.9-4.9-12.9-12.9c0-11.3-0.1-22.6-0.1-34c0-7.6,3.9-11.8,11.5-12
	C595.1,410.8,603.8,411,612.5,411C612.5,411,612.5,411,612.5,411z"/>
<path class="st71" d="M151,539.9c0,0.7,0,1.4,0,2.1c-8.5,4.8-17.1,9.4-25.5,14.3c-12.9,7.5-25.7,15.1-38.5,22.7
	c-2,1.2-4.1,2.4-6.6,2.8C103.4,567.1,126.8,552.9,151,539.9z"/>
<path class="st72" d="M138.5,519.6c-22.8,14-47.6,24.3-71.7,35.9C90.2,542.6,114.5,531.5,138.5,519.6z"/>
<path class="st73" d="M312.7,542c0,0.3,0.1,0.6,0.3,0.9c-0.2,0.4-0.3,0.8-0.5,1.2c-2.9,2.3-3.6-0.4-4.7-2.1c0,0,0.3-0.3,0.3-0.3
	C309.7,540.7,311.2,540.6,312.7,542z"/>
<path class="st74" d="M308.2,575.4c0.1-1,0.6-2,1.7-2c1.1,0,1.7,0.9,1.9,1.9c0.1,0.9-0.6,1.5-1.4,1.6
	C309.2,577.1,308.5,576.4,308.2,575.4z"/>
<path class="st75" d="M312.7,542c-1.5,0-3-0.1-4.5-0.1c0-1.2,0.1-2.5,0.1-3.7c0-1.3-0.1-2.7-0.1-4c0.4-1.4,0.2-2.8-0.9-3.8
	c-0.5-1.3-0.7-2.6,0.9-3.3c0.2-0.9,0.4-1.9,0.7-2.8c-0.7-1.8-1.3-3.7-1.1-5.7c0-0.8-0.1-1.6,0-2.4c0.1-1.8,0.1-3.6,0.1-5.4
	c0.1-1.5-0.3-3,0.5-4.4c1.1-1.4,0.7-2.9,0.3-4.5c-0.7-1.2-1.9-2.3-0.3-3.6c0.9-0.9,0.7-2.9,2.7-2.6c0.7,0.1,1.4,0.2,2.1,0.3
	c0.9,0,1.9,0,2.8,0c1.6-1.3,3.5-1.3,5.5-1.3c1,0,2.1,0,3.1,0c0.5,0,0.9,0,1.4,0c2.7,0.3,2.8-2.2,3.9-3.6c3.1-0.6,1.8,3.7,4.3,3.8
	c1.7,0.6,3.4,0.6,5.1,1c1.2,0,2.5,0.1,3.7,0.1c1.8-1.3,3.5-1.3,5.3,0c1.3,0.7,2.5,1,3.8,0c6.1,2.2,12.6,0.6,18.8,1.4
	c-3.5,0.9-7.1,0.2-10.6,0.4c-2.6,0.1-3.8,0.8-2.4,3.5c-0.5,1.6-0.7,3.1-0.3,4.7c0,1.3-0.1,2.5-0.1,3.8c1,1.5,0.8,3-0.3,4.4
	c0.2,1.1,0.3,2.3,0.5,3.4c0.6,1.3,1,2.6,0.9,4.1c0,1.4,0.1,2.8,0,4.1c0,1.6,0,3.3,0,4.9c0,1.3,0,2.7,0,4c0,1.4,0,2.7-0.1,4.1
	c-0.1,1.1-0.3,2.2-0.9,3.1c-0.6,0.6-1.4,0.9-2.2,1c-1.1,0.1-2.2-0.1-3.2-0.7c-4.2,0-8.5-1-12.6,0.7c-0.2,0.2-0.3,0.5-0.5,0.8
	c-1.5-0.8-3-1-4.6-0.7c-2.3-1.8-4.6-1.4-7-0.3c-0.4,0.1-0.8,0.1-1.2,0.2c-1.6-0.6-3.3-0.5-4.9-0.4c-1.3,0.4-2.6,0.3-3.9-0.4
	C315.7,542.1,314.2,542,312.7,542z"/>
<path class="st76" d="M278.3,547.7c-0.1-1.3,0.5-1.7,1.4-1.8c1-0.1,2.1,0.1,2.2,1.4c0.1,0.9-0.5,1.6-1.4,1.7
	C279.5,549.1,278.7,548.5,278.3,547.7z"/>
<path class="st77" d="M454.1,524c5.3-1.4,10.4-4.4,16.1-3.8c11.6,1.3,23.1,3.3,31.2,13c2.2,2.7,3.8,2.3,6-0.2
	c9.1-9.9,20.8-12.4,33.7-11.7c7.1,0.4,13.3,2.8,19.2,6.5c3.9,2.5,5.4,7.1,8.8,10.1c3.7,10.2,3.7,20.7,1.8,31.2
	c-1.3,7.2-2.5,8.1-9.7,8.8c-0.8,0.1-1.5,0.6-2.2,0.9c-0.6,0.7-1.3,1.1-2.2,1.1c-9.5,0.5-19,0.4-28.5,0c-2.1-0.1-3.7-1.3-5.1-2.9
	c-1.1-1.3-1.9-2.7-2.8-4.1c-1.3-2-2.6-4.2-5.3-4c-3.1,0.3-3.6,3.1-4.3,5.5c-1.2,4-2,8.1-3.2,12.1c-0.4,1.2-0.5,3-2.1,3.1
	c-1.8,0.1-2.3-1.6-3-2.9c-0.6-1.2-0.8-2.5-1.2-3.8c-2.5-9-4.6-18.1-6.9-27.1c-0.4-1.6-0.6-3.8-2.5-3.9c-2,0-2.1,2.3-2.5,3.9
	c-1.7,6.5-3.7,12.8-5.4,19.2c-0.9,3.4-2.8,5.1-6.4,5.1c-12-0.1-24,0.4-36-0.2c-1.8-0.4-2.9-1.6-3.5-3.2c-4.2-11.9-5.3-24-1.4-36.3
	c0.5-1.7,1.2-3.5,3-4.4c3.1-2.2,4.6-5.7,7.1-8.3C449.4,526.8,451.7,525.3,454.1,524z"/>
<path class="st78" d="M442.1,579.1c11.8,0,23.6-0.1,35.4,0.1c3.4,0.1,4.7-1.3,5.4-4.3c1.8-7.2,3.9-14.4,5.8-21.7
	c0.5-1.8,0.7-3.8,3.1-3.9c2.4-0.1,2.8,1.8,3.2,3.7c2.6,10.1,5.3,20.2,8,30.4c0.5,2.1,0.9,4.2,2.5,6.4c1.6-6.1,2.9-11.7,4.4-17.2
	c0.7-2.4,1.3-5,4.4-5.4c2.9-0.4,5.2,1,6.1,3.4c3.2,8.5,9.8,9.4,17.6,8.7c7-0.5,14-0.2,21-0.2c1.3,0.1,2.7,0.1,3.9,0.3
	c1.4,0.3,3.9-1,3.8,1.6c-0.1,1.8-1.1,4.2-3.6,4.1c-13.7-0.2-27.5,1.3-41.2-0.9c-1.8-2.7-3.7-5.4-5.9-8.7c-2.4,9.4-4.7,18.3-7,27.1
	c-0.2,0.6-0.2,1.3-0.4,1.9c-0.5,1.6-0.9,3.2-3.1,3.4c-2.5,0.2-3.1-1.6-3.6-3.4c-2.4-8.6-4.7-17.2-7-25.9c-0.8-3.1-1.7-6.2-2.8-10.1
	c-2.7,5.9-3,11.7-6.3,16.3c-3.9,1.3-7.9,0.5-11.8,0.5c-9.3,0.1-18.7,0.1-28,0C441.3,585.4,439.9,583,442.1,579.1z"/>
<path class="st79" d="M638.1,599.5c-0.4,8.4-0.9,16.9-1.3,25.3c-4.1-3-1.8-7.3-1.4-10.7c0.5-4.8,0.7-9.5,0.3-14.3
	C636.4,599.3,637.3,599.2,638.1,599.5z"/>
<path class="st80" d="M442.1,579.1c-0.5,3.3-0.1,6,4.1,6c13.2,0,26.5,0.5,39.7-0.2c-1.3,1.9-3.3,1.2-5,1.2
	c-12,0.1-24.1,0.1-36.1,0.1c-6.4,0-12.2-2.9-18-4.7c-12.1-3.9-24.1-8.3-35.8-13.3c-12.8-5.4-25.6-10.8-37.5-18
	c-0.4-0.2-1-0.2-1.4-0.3c0-2.5,0-5,0-7.6c1.2,0,2.4,0,3.6,0c5.5-1,11-1.1,16.5-0.4c3.8,2.2,6.7,5.3,9.6,8.5c2.3,2.6,5,2.5,7.5,0.2
	c2.1-1.9,1.7-4.2,0.1-6.3c-1.2-1.6-3.1-2.5-4.8-1.4c-4.1,2.6-7.5,1.5-10.7-1.5c-0.5-0.4-1.2-0.5-1.8-0.8c-4.7-1.2-9.8,0.8-14.4-1.3
	c-0.1-1.5-0.1-3.1-0.2-4.6c7.3-3.9,15.2-2.6,22.7-1.6c8.9,1.2,8.8,1.8,10.7-6.8c0.1-0.3,0.4-0.5,0.7-0.6c7.8,0.2,15,3.3,22.4,4.9
	c8.6,1.9,17.2,3.8,25.9,5.4c-5.3,12.9-4.9,25.8-0.9,38.9C439.5,576.9,439.9,578.6,442.1,579.1z"/>
<path class="st1" d="M665.1,583.9c5.2,1.7,6.6,5.2,6.3,10.6c-0.6,9.8-0.3,19.6-0.4,29.4c-8,2.3-8,2.3-8-6.7c0-6.9,0-13.9,0-20.8
	c0-1.7-0.4-3.4,1.7-4.7c2.1-1.3,0.1-2.7-0.9-3.9C662,585.8,661.8,584.3,665.1,583.9z"/>
<path class="st1" d="M698.8,637.5c-13.2,0.1-26.4,0.5-39.5-0.3C672.5,636.9,685.6,636.4,698.8,637.5z"/>
<path class="st1" d="M659.1,634.4c12.9-0.6,25.8-0.4,38.7,0C684.9,635.3,672,635.2,659.1,634.4z"/>
<path class="st81" d="M671.8,578.7c-0.2,1.4,0.4,3-1,3.7c-1.6,0.8-2.8-0.6-3.7-1.7c-3.1-3.2-5.5-6.7-3.3-11.5
	c0.7-1.6,1.7-3.1,3.6-2.9c1.9,0.2,3.3,1.5,3.6,3.6C671.3,572.9,671.5,575.8,671.8,578.7z"/>
<path class="st82" d="M689,577c-0.3-2.9-0.1-5.7,1.3-8.2c0.7-1.4,1.9-2.4,3.6-2.1c1.5,0.3,2.6,1.4,3,3c1.2,4.1-2,11-5.9,12.8
	c-1.7,0.8-2,0-2-1.4C689,579.6,689,578.3,689,577z"/>
<path class="st83" d="M355.9,574.1c0.8,0.2,1.2,0.8,1,1.8c-0.1,0.9-0.7,1.6-1.6,1.4c-1-0.1-1.3-1-1.2-1.8
	C354.1,574.5,354.7,574,355.9,574.1z"/>
<path class="st50" d="M321.1,542.5c1.7-0.8,3.4-1.2,4.9,0.4c0,3.4-0.1,6.7-0.1,10.1c-1.8-2.1-0.8-4.6-0.9-6.9
	c-0.1-2.2-0.7-3.4-3.1-3.1C321.7,542.9,321.4,542.7,321.1,542.5z"/>
<path class="st84" d="M326.1,573.4c0.2,1.7-0.3,2.5-1.6,2.4c-0.9,0-1.5-0.7-1.5-1.6c0-1.1,0.3-2.1,1.6-2
	C325.6,572.3,326.1,572.9,326.1,573.4z"/>
<path class="st85" d="M341.7,574.1c0,0.9-0.5,1.6-1.4,1.8c-1.1,0.1-1.4-0.6-1.4-1.6c0-0.8,0.1-1.8,1.2-1.8
	C341,572.5,341.6,573.2,341.7,574.1z"/>
<path class="st86" d="M391.5,525.8c0.7,3.1,1.6,6.2-1.4,8.6c-2.8,2.3-5.6,1.3-8.7,0.5c-6.6-1.6-13.4-0.7-20.1-0.5
	c-1.3,0-2.6,0.2-3.9,0.3c-0.4-1.3-0.4-2.6,0-3.9c3.5-2.3,7.5-0.8,11.2-1.4c2.8-0.5,5.6-0.7,8.4-1.6c-4.1-0.5-8.2-0.3-12.3-0.5
	c-2.4-0.1-5,0.6-7.2-1.3c0-1.3,0-2.5,0.1-3.8c4.9-3.5,10.5-1.4,15.8-1.7c1.9-0.1,3.9,0.4,5.8,1.2c2.5,1.8,5.4,0.5,8,1.3
	C388.7,523.5,390.3,524.4,391.5,525.8z"/>
<path class="st87" d="M379,521.7c-7.2,0.2-14.4,0.4-21.6,0.5c0-1.5,0-3.1,0.1-4.6c5.2,0,10.3,0.1,15.5,0.1
	C374.1,520.4,377.8,519.2,379,521.7z"/>
<path class="st88" d="M454.1,524c-2,2-3.7,4.5-7.1,3.8C448.7,525.5,450.7,523.3,454.1,524z"/>
<path class="st89" d="M432.4,297.2c-17.6-0.4-30.9-8.5-40.6-22.9c-2.1-3.1-4.7-6-5.3-10c-0.4-2.5,0-3.5,2.6-3.1
	c13.2,2.1,26.4,4.4,39.8,5.5c8.2,0.7,16.2-1.1,24.2-2.3c7.4-1,14.7-2.3,22.1-3.4c4-0.6,5.2,0.7,3.5,4.5
	C470.6,283.2,452.7,297.8,432.4,297.2z"/>
<path class="st90" d="M401.2,165.8c-18.3-11.5-36.6-10.3-54.8,0.2c-2.9-4.2,0.3-6.7,2.9-8.7c10.3-8.2,22.3-10.8,35.2-8.8
	c7.4,1.1,14.8,2.7,20.9,7.5c1.9,1.5,4.8,2.9,4.1,5.7c-0.8,3.1-3.9,3.7-6.9,3.8C402.1,165.5,401.6,165.7,401.2,165.8z"/>
<path class="st91" d="M422,191.9c0.5-0.7,1.2-0.8,2-0.8c3.3,14.8,0.3,28.2-8.6,40.4c-2.4,3.3-2.3,3.3-2.3,8.9
	c-2.1-4.6-1-7.9,1.4-11.1c5.8-8.1,9.3-17.1,9.5-27.2C424.1,198.5,422.6,195.3,422,191.9z"/>
<path class="st71" d="M452.1,246.5c-6.2-1.6-10.8,0.4-15.1,3.8c-3.2,2.5-6.9,2.5-10.1-0.1c-3.3-2.7-6.5-5-11.1-4.8
	c3-2.3,5.8-1.6,8.6,0.5c7.1,5.4,7.1,5.5,14.6,0.6C445.3,242.6,448,242.5,452.1,246.5z"/>
<path class="st92" d="M549.9,226.7c-0.4,2.2-1.4,4.2-4,4.2c-2.4,0-4-1.4-4.1-4c-0.2-2.7,1.5-3.9,3.9-4.1
	C548.2,222.7,549.4,224.3,549.9,226.7z"/>
<path class="st93" d="M322.6,226.8c-0.3,2.2-1.1,4.1-3.4,4.2c-2.6,0.2-3.8-1.6-4-4c-0.2-2.2,0.8-4,3.2-4.1
	C320.9,222.9,322.1,224.5,322.6,226.8z"/>
<path class="st2" d="M516.3,169c3.1-0.1,4.8,2,6.5,4.1c20.1,24.6,6.7,59.8-25.3,66c-15.9,3.1-29.6-1.7-39.8-14.1
	c-10.2-12.5-12.5-26.9-6-42.1c3-7,8-12.2,14.3-16.2c12.7-0.4,25.4-0.8,38,2c0.7,0.1-0.2-0.7-0.1-0.1c0.1,0.2-0.1,0.3-0.4,0.2
	c-2.2-1-6.1-1.4-5.3-4.2c0.9-3,4.3-1,6.4-0.3C508.7,165.7,512.9,166.4,516.3,169z"/>
<path class="st94" d="M397.8,166.8c13.6,7.9,20.8,23.6,18,39.6c-2.8,16.2-15.6,29.3-31.8,32.6c-25.8,5.2-49.2-11.6-51.3-37.5
	c-1.1-12.5,3.7-23.1,13-31.6c1.2-1.1,2.5-2.2,4.4-1.9c8.2,1.8,16.1-1,24.1-1.7C382.1,165.5,389.9,165,397.8,166.8z"/>
<path class="st95" d="M516.3,169c-6.1-0.5-11.5-3.8-18.3-5.2c2.5,3.3,6,3.7,8.1,6.2c-13.2-3.3-26.8-0.9-40-3.3
	c10.1-5.7,20.8-8.4,32.4-6.6c5.6,0.9,10.8,3,15.9,5.4C515.9,166.1,516.9,167.2,516.3,169z"/>
<path class="st96" d="M397.8,166.8c-12.7,0.4-25.5,0.4-38,2.9c-3.3,0.6-6.9,0.9-9.7-1.7c0-0.7,0.1-1.4,0.9-1.6c9.5,0,18.2-3,27-6.1
	C385.2,160.4,391.6,163.4,397.8,166.8z"/>
<path class="st97" d="M377.9,160.2c-8.3,4.9-17,8.5-27,6.1C359.2,161,368.3,159.4,377.9,160.2z"/>
<path class="st98" d="M357,514.2c0.1-1.5,0.2-3,0.3-4.4c6.3,0,12.6,0,18.9,0.1c1.6,0,4-0.9,3.9,2.2c-0.1,2.9-2.4,1.7-3.7,1.7
	C369.9,514.1,363.4,514.1,357,514.2z"/>
<path class="st99" d="M385.8,510.1c1.2-0.1,1.8,0.6,1.9,1.7c0.1,1.1-0.6,1.9-1.7,2c-1.1,0.1-1.9-0.5-1.9-1.7
	C384,510.9,384.7,510.3,385.8,510.1z"/>
<path class="st100" d="M348.1,496c-1.8,0-3.5,0-5.3,0c0.1-2,0.1-4,0.2-6c1.6,0,3.2,0,4.8,0C347.9,492,348,494,348.1,496z"/>
<path class="st101" d="M357,462.3c-0.3,0.9-0.8,1.4-1.8,1.1c-1-0.3-1.9-0.9-1.8-1.9c0.1-0.7,0.9-1.4,1.8-1.2
	C356.2,460.6,357,461.1,357,462.3z"/>
<path class="st102" d="M387.8,489.8c-0.3,1.4-0.9,2.1-2,2.1c-1.3,0-1.7-0.8-1.6-1.9c0.1-1.1,0.7-1.8,1.9-1.8
	C387.4,488.1,387.4,489.3,387.8,489.8z"/>
<path class="st103" d="M325.1,496c-1,0-2.1,0-3.1,0c-2.4-4.3-2-8.7-0.5-13.1c0.3-5.2,1.8-10.5-2.8-14.9c-1.9-1.8-0.5-4.1,0.7-5.9
	c1.5-2.3,3.6-3.4,6.4-2.9c2.7,0.5,4.6,2,5.2,4.7c0.5,2.2,0.2,4.3-1,6.2c-3.8,4.2-4.3,9.1-3.1,14.3c0,0.5-0.1,1-0.3,1.5
	C325.7,489.2,327.4,492.9,325.1,496z"/>
<path class="st104" d="M334.1,496c-4.9,1.3-2.5-3.2-3.8-4.8c-2-1.5-1.6-3.7-1.7-5.8c1.1-4.7-1.5-9.8,1.5-14.3
	c3.2-0.8,4.1,0.7,4.1,3.6c-0.1,4.1,0,8.1,0.1,12.2C335.8,490,336.2,493,334.1,496z"/>
<path class="st105" d="M321.5,482.9c1,4.3,0.3,8.7,0.5,13.1c-2,0-4.1-0.1-6.1-0.1c1.2-4.6,0.4-9.3,1-13.9
	C318.4,482.5,319.8,483.4,321.5,482.9z"/>
<path class="st106" d="M330.1,471.1c-0.1,4.7,0.8,9.5-0.2,14.2c-1.5,0.9-2.8,0.9-4.1-0.5c-0.2-1.3-0.4-2.6-0.5-3.9
	c-0.3-4.4-0.8-8.9,4.7-10.8C330,470.5,330.1,470.8,330.1,471.1z"/>
<path class="st107" d="M334.1,496c0.1-3,0.1-6,0.2-9.1c1.5,0.3,3.1,0.7,4.6,1c0.1,2.6,0.2,5.3,0.3,7.9
	C337.5,497,335.8,496.8,334.1,496z"/>
<path class="st108" d="M340.3,464c0.9,0,1.6,0.4,1.7,1.3c0.1,1.1-0.4,2-1.5,2.2c-1,0.2-1.5-0.6-1.6-1.4
	C338.8,465.1,339,464.1,340.3,464z"/>
<path class="st109" d="M308.6,515.9c0,0.6,0,1.2,0,1.8c-5,3.1-10.1,1.8-15.2,0.5c-4.1-0.2-8.1-1.3-12.5,0.3c-4.1,1.5-7.7-3-7.4-8.4
	c2.9-3.9,6.2-4.2,11.1-3.6c5.5,0.7,11.4-0.4,17.2-0.4c2.1,0,4.3,0,6.4,0.1c0.1,1.2,0.3,2.3,0.4,3.5c-1.8,2.1-4.2,1.5-6.5,1.6
	c-4.1,0.2-8.1-0.1-12.2,0.6c4.5,0.7,9.1,0.4,13.6,0.6C305.7,512.7,308.5,512.5,308.6,515.9z"/>
<path class="st110" d="M308.3,498.2c0.1,1.2,0.2,2.4,0.3,3.6c-5.3,0-11,1.4-15.7-0.2c-4.6-1.6-8-1.4-12.2,0.1c-2.8,1-4.8-1.2-5.9-4
	c-1.1-2.9-0.3-5.5,2-7.1c2.4-1.8,6.5-2.1,7.8,0.1c5.3,9.2,13.8,7.4,21.9,7.5C307,498.2,307.6,498.2,308.3,498.2z"/>
<path class="st111" d="M293.4,518.3c5.1-0.2,10.1-0.3,15.2-0.5c0.5,2.1,0.9,4.2,0.2,6.4c-2.6-2.3-6.1-0.6-8.9-2
	C297.3,521.6,295.1,520.3,293.4,518.3z"/>
<path class="st112" d="M308.1,526.9c-0.3,1.1-0.6,2.2-0.9,3.3c-5.3,0.1-10.6,0-15.9,0.2c-2.8,0.1-4.9-0.3-5.1-3.6
	C293.5,526.9,300.8,526.9,308.1,526.9z"/>
<path class="st113" d="M280.5,528c1,0.1,2.2,0.4,2.1,1.5c-0.1,1-1.2,1.5-2.2,1.5c-0.9,0-1.7-0.6-1.7-1.4
	C278.5,528.4,279.4,527.9,280.5,528z"/>
<path class="st114" d="M332.6,536.9c-4.7,0-9.3-0.1-14,0c-2.7,0.1-3.4-0.9-3.3-3.5c0.1-8.7,0.1-17.3,0-26c0-2.9,0.8-4.3,3.9-4.3
	c9.3,0.1,18.7,0.1,28,0c2.2,0,2.9,0.9,2.9,3c-0.1,9.3-0.1,18.7,0,28c0,2.3-0.9,2.8-3,2.8C342.3,536.9,337.4,537,332.6,536.9z"/>
<path class="st115" d="M357.4,526.1c6.8,0,13.6-0.1,20.3,0c1.1,0,3-0.7,2.8,1.6c-0.1,1.7-0.9,2.6-2.9,2.6
	c-6.8,0.1-13.5,0.4-20.3,0.6C357.3,529.2,357.3,527.7,357.4,526.1z"/>
<path class="st116" d="M308.6,515.9c-0.5-2.4-2.4-1.7-4-1.7c-5.1,0-10.2,0-15.4,0c-1.6,0-3-0.1-3.1-2.3c-0.1-2.5,1.9-1.8,3.2-1.9
	c6.4-0.1,12.9-0.2,19.3-0.3C308.6,511.8,308.6,513.9,308.6,515.9z"/>
<path class="st117" d="M325.9,484.8c1.4,0.1,2.7,0.3,4.1,0.5c0.1,2,0.2,4,0.3,5.9c-0.3,2.7-0.1,5.9-4.4,4.8
	C325.3,492.3,325.4,488.6,325.9,484.8L325.9,484.8z"/>
<path class="st86" d="M357.5,539.4c5.3-0.1,10.6-1.1,15.9,0.5c-1.6,2-3.9,1.4-6,1.5c-1.8,0.1-3.6,0-5.3,0.9
	c-1.7,0.1-3.4,0.7-4.9-0.4C357.2,541,357.3,540.2,357.5,539.4z"/>
<path class="st41" d="M357.1,541.9c1.7,0,3.3,0,5,0c3-1.5,6.1-0.8,9.2-0.7c1.2,0,2.3,0.6,1.7,2.2c-5.7-1.7-11.7,0.1-17.5-1
	C356,542.2,356.6,542.1,357.1,541.9z"/>
<path class="st106" d="M325.9,484.9c0,3.7,0,7.4,0,11.1c-0.3,0-0.5,0-0.8,0C325.5,492.3,324.6,488.5,325.9,484.9z"/>
<path class="st118" d="M372.9,543.4c-3.3-3-7.3-0.7-10.9-1.6c0.9-3.2,3.5-1.6,5.4-1.8c1.9-0.3,3.9-0.1,5.9-0.2
	c1.1,0.1,1.8,0.7,2.4,1.5c2,2.7,3.7,3.5,6.7,0.8c2.7-2.4,5.9-1.5,8.2,1.5c2.1,2.8,1.9,5.7-0.5,8c-2.4,2.2-5.8,3.8-8.3,0.7
	C379.1,549.1,375.2,547,372.9,543.4z"/>
<path class="st119" d="M387.8,529.2c0,1.2-0.6,1.8-1.8,1.9c-1.1,0.1-1.9-0.6-2.1-1.6c-0.2-1.4,0.7-2.2,2-2.2
	C387,527.3,387.6,528.2,387.8,529.2z"/>
<path class="st120" d="M390.8,263.9c28.1,10.4,55.3,10.8,82.8,0.2c-2.2,10.2-20.1,22.3-33.4,23.8
	C416.9,290.5,400.2,279.9,390.8,263.9z"/>
<path class="st121" d="M488.1,208.3c-3.4,1.7-6.9,1.5-10.3,0c-6.6-3.2-8.9-9-7.1-17.9c8-4.8,16.2-7.2,25-1.9
	C498.8,196.4,495.6,204.8,488.1,208.3z"/>
<path class="st122" d="M495,189.2c-6.1-3.2-12.2-2.9-18.4-0.5c-1.9,0.7-3.7,1.5-5.6,2.2c-1.7,5-5.5,8.3-9.2,11.7
	c-1.9-1.3-0.6-2.6,0-3.9c6.9-16.6,22.9-22.2,38.8-13.7c4.1,2.2,7.8,5.9,13.4,2.3c0.1,0.6,0.3,1.2,0.4,1.7c-2.2,1.9-4.3,3.9-6.5,5.8
	C502.6,195.4,498.7,192.6,495,189.2z"/>
<path class="st123" d="M495,189.2c4.3,1.9,8.6,3.8,12.9,5.7c-4.5,7.5-10.4,13-19.8,13.3C494.4,203.4,496.9,197.1,495,189.2z"/>
<path class="st124" d="M461.8,202.6c2.2-4.6,5.7-8.1,9.2-11.7c0.2,6.6,0.6,13.1,6.8,17.3C471.9,208.1,465.9,208,461.8,202.6z"/>
<path class="st125" d="M386.9,207.4c-3.5,2.3-7.2,2.1-11,0.8c-7.7-3.1-10.7-11-7.5-19.7c7.5-4.5,19.6-3.2,24.9,2.7
	c1.3,4.6,0.2,8.8-2,12.9C390.4,205.8,389.3,207.4,386.9,207.4z"/>
<path class="st126" d="M393,191.9c-7.4-6-15.6-5.7-24-2.7c-3.5,3.1-7.1,5.9-12,6c-3.6-1-4.7-4.2-6.7-7.1c5.3,2.8,9-0.3,13-2.7
	c19.8-11.8,34.6,1.6,39.7,15.8c0.2,0.5-0.1,1.2-0.1,1.9C398.5,200.3,395.7,196.1,393,191.9z"/>
<path class="st127" d="M357,195.1c4-2,8-4,12-6c-2.1,8,0.6,14.1,6.9,19C368.7,208.5,358.7,201.6,357,195.1z"/>
<path class="st128" d="M393,191.9c4,3.1,7.1,7,9.9,11.2c-0.1,4.3-3.9,2.7-6,3.6c-3.1,1.3-6.5,2.6-9.9,0.8
	C391.9,203.3,392.5,197.6,393,191.9z"/>
<path class="st129" d="M324.4,467.5c-1,0.1-1.5-0.5-1.5-1.4c-0.1-1.1,0.4-1.9,1.6-2c0.9-0.1,1.6,0.4,1.6,1.4
	C326.2,466.6,325.4,467.1,324.4,467.5z"/>
<path class="st130" d="M280.3,514.1c-1.2-0.1-2.1-0.5-2.2-1.6c0-0.9,0.7-1.5,1.6-1.4c1.2,0,2.3,0.4,2.2,1.9
	C281.9,514,280.9,514,280.3,514.1z"/>
<path class="st131" d="M280.5,497.3c-0.9,0-1.7-0.2-1.6-1.3c0.1-1.3,0.7-2.2,2.1-2.1c1.1,0.1,1.9,0.7,1.7,1.9
	C282.6,496.9,281.6,497.3,280.5,497.3z"/>
<path class="st132" d="M386,545.3c1.1,0.4,1.8,1,1.6,2.1c-0.3,1.2-1,2.2-2.4,1.8c-1-0.3-1.5-1.2-1.2-2.3
	C384.3,545.9,384.9,545.3,386,545.3z"/>
</svg>
