<?xml version="1.0" encoding="UTF-8"?><svg id="Camada_1" xmlns="http://www.w3.org/2000/svg" viewBox="0 0 399.95 389.7"><defs><style>.cls-1{fill:#19253d;}.cls-2{fill:#d4e0f1;}.cls-3{fill:#4a312d;}.cls-4{fill:#1c253c;}.cls-5{fill:#463532;}.cls-6{fill:#f9fbfb;}.cls-7{fill:#19253f;}.cls-8{fill:#4a3631;}.cls-9{fill:#fdbca8;}.cls-10{fill:#283343;}.cls-11{fill:#3b77bd;}.cls-12{fill:#4c3b3b;}.cls-13{fill:#fdbca9;}.cls-14{fill:#1d263e;}.cls-15{fill:#fcbda9;}.cls-16{fill:#412f29;}.cls-17{fill:#432e2c;}.cls-18{fill:#1b213a;}.cls-19{fill:#da9985;}.cls-20{fill:#d0ddef;}.cls-21{fill:#d6e0f1;}.cls-22{fill:#28a9dd;}.cls-23{fill:#d5e1f2;}.cls-24{fill:#512c26;}.cls-25{fill:#f28424;}.cls-26{fill:#d5e0f1;}.cls-27{fill:#5b4941;}.cls-28{fill:#443132;}.cls-29{fill:#161f30;}.cls-30{fill:#433235;}.cls-31{fill:#3c3234;}.cls-32{fill:#3f2d2c;}.cls-33{fill:#3f3236;}.cls-34{fill:#3d74b6;}</style></defs><path class="cls-11" d="M392.1,32.35c-6.38,9.74-14.53,17.64-23.98,24.4-5.05,3.61-10.36,7.82-15.73,10.93-5.52,3.2-10.81,6.27-16.65,8.88-6.14,2.74-11.13,4.76-16.67,5.72-10.2,2.75-22.12,4.24-33.54,3.64-10.44-.55-20.9-1.12-31.3,.46-20.29,3.07-36.15,13.49-48.52,29.58-6.8,8.85-11.46,18.83-15.4,29.18-.09,.23-.25,.42-.43,.58-.71,.65-.87,1.6-1.16,2.49-1.63,5.1-2.68,10.34-3.65,15.6-1.44,7.85-1.58,15.78-1.49,23.72,.03,2.69-.21,2.87-2.92,2.9-2.85,.04-5.69,0-8.54,.02-3.09,.02-5.84,1.97-6.87,4.88-.71,2.02-1.42,4.03-2.18,6.04-.81,2.1-1.45,4.26-2.19,6.39-.08,.36-.27,.67-.39,1.01-.95,2.19-1.49,4.52-2.37,6.74-1.06,3.28-2.45,6.43-3.62,9.66-.06,.17-.1,.34-.1,.52-.02,.51,.04,1.01,.18,1.51,.36,.65,.9,.89,1.62,.72,1.5-.41,1.78-1.73,2.21-2.95,2.97-8.56,6.09-17.08,9.12-25.62,1.58-4.45,2.32-4.9,7.13-4.89,10.04,.01,20.08-.05,30.12,.03h.02c1.37,.01,2.17-1.58,1.27-2.62-.54-.63-1.38-1.03-2.57-1.25-1.58-.3-3.18-.03-4.77-.09-1.01-.09-2.03,.02-3.03-.13-.07-.01-.15-.02-.23-.02-.98,0-1.94,.16-2.92,.16-.74-.06-1.49,0-2.23,0-2.04-.1-2.34-.11-2.09-1.49,.52-2.84,1.22-5.65,2.07-8.41,3.56-11.49,8.73-22.14,16.04-31.68,1.84-2.36,3.68-4.74,5.73-6.93,16.18-17.33,36.39-25.18,59.84-24.87,8.4,.11,16.79,1.18,25.16,2.07,9.12,.97,18.27,1.24,27.39,.11,20.54-2.56,37.97-11.59,52.77-25.83,9.59-9.22,16.94-20.04,22.67-31.88V18.73c-2.52,4.59-4.98,9.23-7.85,13.61Z"/><path class="cls-2" d="M205.3,295.33c-.86,1.17-.52,2.53-.39,3.76,.61,6.02,.57,12.08,.93,18.11,.6,10.05,1.25,20.1,1.91,30.14,.46,6.83,.91,13.66,1.5,20.48,.51,5.85,1.24,11.67,1.81,17.51,.14,1.44,.08,2.91,.11,4.37H40.43c.63-8.17,1.25-16.35,1.88-24.52,.19-2.49,.26-4.98,.45-7.47,.57-7.22,.69-14.48,1.08-21.72,.37-6.82,.86-13.64,1.28-20.47,.07-1.13-.16-2.22-.79-3.19,.11-1.4,1.51-1.23,2.27-1.81,6.2-4.75,12.42-9.48,18.65-14.2,6.21-4.7,11.69-10.15,17.65-15.05,6.16-5.06,11.34-11.06,17.16-16.41,3.03-2.78,5.83-6.14,9.45-7.87,6.84-3.27,13.63-6.68,20.65-9.57,1.46-.6,3.01-.5,4.51-.86,4.25-1.01,7.59-3.52,10.88-6.16,.78-.51,1.36-.08,1.92,.43,.17,.17,.31,.37,.44,.57,.39,.75,.79,1.5,.86,2.37,.03,1.65,1.17,2.79,1.93,4.07,2.75,4.61,6.39,8.34,11.55,10.13,3.26,1.13,6.75,1.51,10.05,2.57,3.62,1.17,7.32,.94,11.02,.96,1.69,.01,3.4-.07,5.02,.56,.6,.24,1.17,.53,1.6,1.02,4.04,10.21,8.99,19.97,14.5,29.45,.48,.82,1.59,1.55,.84,2.78Z"/><path class="cls-22" d="M399.95,165.88c-12.92,5.36-26.41,8.79-40.45,9.86-16.11,1.23-32.03-.53-47.6-5.11-7.78-2.28-15.5-4.74-23.29-6.96-11.57-3.29-23.28-5.41-35.42-4.86-9.86,.44-19.22,2.66-28.23,6.58-.66,.32-1.29,.68-1.95,1-10.25,5.03-19.1,11.82-26.09,20.91-.77,1-1.77,1.95-1.33,3.44,.94,.88,2.05,.38,3.1,.4,.76-.45,1.62-.65,2.35-1.2,5.8-4.35,12.24-7.43,19.1-9.75,2.98-1.01,6.13-1.31,9.03-2.55,1.15,.09,2.22-.25,3.3-.55,3.31-.33,6.62-.33,9.93,0,.97,.06,1.94,.06,2.9,.18,11.21,1.34,21.29,5.75,30.89,11.44,9.76,5.78,18.48,13.01,27.51,19.81,17.04,12.84,35.63,22.47,56.55,27.21,13.13,2.98,26.37,4.12,39.7,3.63v-73.46Z"/><path class="cls-25" d="M399.95,79.92c-9.25,13.94-20.9,25.66-35.83,34.41-14.1,8.26-29.39,12.26-45.59,12.84-7.36,.26-14.68-.78-22-1.62-3.21-.37-6.41-.99-9.63-1.17-7.76-.43-15.5-.81-23.29-.15-7.34,.63-14.47,2.09-21.25,4.78-12.25,4.85-22.68,12.44-31.4,22.34-.67,.92-1.37,1.81-2.09,2.69-8.43,10.27-14.51,21.82-18.58,34.44-.28,.86-.84,1.82,.1,2.68,.72,.01,1.45,.02,2.17,.03,3.33-4.33,6.2-8.99,9.63-13.26,5.83-7.26,12.71-13.21,20.77-17.83,.66-.3,1.31-.63,1.96-.97,10.21-5.43,21.05-8.28,32.66-8.03,5.09,.11,10.16-.01,15.25,.82,6.4,1.05,12.78,2.14,19.05,3.76,13.49,3.48,26.96,6.88,40.9,8.32,9.21,.95,18.3,.63,27.37-.44,10.4-1.23,20.5-3.99,30.31-7.74,3.24-1.24,6.39-2.61,9.5-4.08V79.92Z"/><path class="cls-26" d="M190.19,145.48c-1.55,6.1-3.3,12.14-4.33,18.37-1.38,8.26-1.87,16.56-1.36,24.91,.13,2.08-.47,2.63-2.49,2.54-3.72-.17-7.45-.04-11.17-.07-2.33-.02-3.77,1.04-4.51,3.27-.84,2.52-1.83,4.99-2.75,7.49-3.27-3.66-7.99-3.87-12.27-5.1-.84-.24-1.76,.06-2.62,.32-6.19,1.87-12.41,3.67-18.52,5.79-2,.7-4.11,.76-6.14,1.37-2.77,.84-4.9,2.4-6.74,4.53-3.69,4.27-5.91,9.42-8.55,14.31-2.75,5.08-6.27,9.05-11.44,11.98-10.11,5.71-21.16,9.28-31.47,14.49-1.75,.89-3.84,.6-5.58,1.57-1.18,.25-2.28,.75-3.41,1.14-1.79,.63-2.55,.09-2.23-1.7,.61-3.34,.38-6.69,.46-10.04,.49-3.26,.11-6.55,.26-9.81,.47-2.56,.34-5.17,.4-7.74,.18-7.4,.55-14.8,.75-22.2-.37,9.45-.72,18.9-.94,28.36-.01,.49-.04,.97-.2,1.44-.1,2.85,.02,5.7-.06,8.55-.52,3.53,.09,7.11-.49,10.64-.54,1.26-1.56,.77-2.51,.72-7.2-.37-14.47-.8-21.58,.04-9.94,1.18-19.76,3.36-28.72,8.22-1.53-.53-2.12-1.61-1.89-3.2,1.05-7.25,1.07-14.6,2.22-21.86,.65-4.13,.76-8.34,1.2-12.5,.5-4.8,1.09-9.59,1.65-14.39,.57-4.87,1.09-9.75,1.76-14.61,.56-4.06,1.26-8.11,1.98-12.14,.51-2.85,1.15-5.69,1.62-8.53,1.21-7.41,5.49-12.58,11.31-16.79,6.04-4.38,12.96-6.8,20.03-8.82,13.33-3.8,26.73-7.39,39.99-11.41,3.14-.95,6.65-1.61,9.15-4.18,1.05,1.5,.88,3.42,1.72,4.98,3.54,6.55,7.96,12.2,14.47,16.24,4.22,2.62,8.76,4.27,13.42,5.38,4.54,1.08,9.25,.5,13.89-.74,3.71-.99,6.77-2.91,9.83-4.99,4.45-3.03,6.73-10.49,4.89-15.56-.33-.91-1.2-1.87-.18-2.89,3.59,.24,6.72,2.08,10.13,2.98,5.59,1.48,11.17,3.04,16.64,4.89,4.8,1.62,9.8,2.6,14.42,4.77Z"/><path class="cls-15" d="M1.94,258.85c.54-2.46,3.01-2.54,4.62-3.17,4.73-1.84,9.73-2.9,14.64-4.22,9.91-2.67,19.97-1.59,29.98-1.89,1.18-.04,2.05,.93,3.21,.62,.7,2.5,.59,2.79-2.1,3.71-7.05,2.4-13.97,5.14-18.89,6.95,7.55-3.05,17.45-6.16,26.97-10.24,2.19-1.51,4.92-1.41,7.28-2.69,6.29-3.38,13.22-5.36,19.58-8.73,3.11-1.65,6.31-3.34,9.52-4.72,5.06-2.16,8.21-5.92,10.6-10.37,1.6-2.97,3.24-5.96,4.78-8.97,2.2-4.28,4.86-8.5,9.54-10.66,1.49-.69,3.12-1.38,4.71-1.47,3.03-.16,5.73-1.39,8.49-2.28,3.92-1.27,7.96-2.2,11.78-3.71,3.79-1.5,7.07-.41,10.61,.77,1.73,.58,3.38,.98,4.98,1.98,1.05,.66,1.25,1.26,1.3,2.22-.72,2.07-1.45,4.14-2.18,6.22-2.38,.99-4.38-.2-6.3-1.27-1.77-.98-3.21-.73-4.62,.53-.9,.8-1.46,1.73-1.01,2.99,.31,2.31,.27,4.61-.39,7.04,1.79-.07,2.82-1.04,3.92-1.79,1.21-.83,2.47-1.54,3.85-2,1.86-.63,2.04-.45,1.85,1.78-.89,3.61-2.31,7.02-3.92,10.36-.86,.4-1.55-.15-2.29-.41-2.39-.84-4.15,.3-4.33,2.84-.06,.8-.18,1.65,.16,2.39,.75,1.62,.4,2.66-1.27,3.49-1.3,.65-1.43,2.02-1.18,3.38,.17,.91,.82,1.8,.15,2.76-.5,2.11-2.6,2.62-4,3.71-2.86,2.23-6.28,3.27-9.94,3.72-2.32,.28-4.5,1.32-6.61,2.44-3.32,1.76-6.55,3.97-10.11,4.93-4.32,1.17-7.62,3.72-10.71,6.46-5.32,4.72-10.07,10.06-15.27,14.92-6.64,6.2-13.15,12.61-20.34,18.12-5.66,4.35-11.16,8.97-17.19,12.86-2.5,1.61-4.71,3.71-7.51,4.89-4.56,2.75-9.34,5.06-14.4,6.69-10.09,3.26-16.93,1.68-22.47-8.41-3.31-6.02-4.76-12.58-5.54-19.38-.64-5.56-1.03-11.11-.83-16.69,.18-5.24,.56-10.48,.85-15.72Z"/><path class="cls-9" d="M148.99,132.84c.14,2.02,1.58,3.58,1.85,5.58,.43,3.14-.65,5.88-2.12,8.47-1.79,3.17-4.41,5.52-7.58,7.4-6.2,3.68-12.94,4.32-19.84,3.73-2.52-.22-4.94-1.56-7.44-2.28-4.93-1.43-9.31-4.19-12.81-7.6-4.51-4.38-8.57-9.45-10.27-15.83-.15-.58,.1-1.27,.16-1.9,2.39-3.6,3.01-7.81,3.31-11.88,.44-6.05,1.37-12.16,.12-18.24-.87-1.59-.95-3.35-1.14-5.09-.27-2.63-.25-2.64-2.88-2.44-.63,.05-1.27,.04-1.9,.14-.47-.54-.83-1.25-1.42-1.6-5.14-3.03-6.99-8.16-8.6-13.41-.99-3.22-.7-6.35,1.08-9.3,.24-.39,.24-.92,.35-1.38,2.47-1.81,5.99-1.72,8.56,.16,2.03,1.49,3.12,3.69,4.5,5.67,.58,.84,1.09,1.98,2.39,1.71,1.3-.26,1.7-1.42,1.96-2.54,.43-1.84,.41-3.72,.07-5.55-.77-4.16,.03-7.89,2.8-11.14,2.35-2.75,2.98-5.84,1.98-9.3-.52-1.8-.73-3.65-.68-5.53,.11-4.14,1.99-7.25,5.46-9.45,4.27-2.7,9.12-3.52,13.97-3.57,7.7-.09,15.36-.6,23.03-1.16,5.77-.42,9.6,2.46,12.28,7.1,2.99,5.18,4.67,10.82,5.03,16.83,.03,.54-.06,1.15,.33,1.63,.53,9.39,.89,18.79,2.7,28.07,.73,3.74,.08,7.56-.36,11.33-.71,6.15-2.8,11.94-5.5,17.39-1.56,3.15-3.63,6.27-6.48,8.63-2.39,1.97-4.19,4.19-3.57,7.56-.08,0-.23,.02-.23,0-.97-3.08-2.98-1.99-5.13-1.51-6.43,1.42-12.68,.17-18.86-1.69-4.94-1.49-9.3-4.12-13.62-6.83-.59-.37-1.09-1-1.93-.87-.19,.78,.36,1.22,.77,1.67,7.29,7.83,15.99,13.35,26.45,15.86,3.86,.93,7.72,.89,11.24-1.41,.41-.27,.88-.4,1.39-.3,.8,.84,.26,1.95,.57,2.89Z"/><path class="cls-7" d="M161.55,52.07c-1.46-2.3-1.3-5.03-1.94-7.55-1.03-4.02-2.27-7.94-4.54-11.44-2.21-3.4-5.14-6.2-9.44-5.86-10.47,.84-21.02,.6-31.44,2.07-3.91,.55-7.5,2.09-10,5.39-2.14,2.83-2.79,6.11-1.69,9.43,1.63,4.91,1.07,9.17-2.55,13-2.32,2.46-2.31,5.55-1.94,8.69,.29,2.4,.62,4.82-.08,7.23-.41,1.4-1.12,2.62-2.6,2.93-1.62,.33-2.13-1.14-2.84-2.19-.95-1.41-1.79-2.89-2.84-4.23-2.31-2.95-5-3.66-8.61-2.47-.36,.12-.77,.09-1.16,.13-.38-3.64-1.17-7.11-2.85-10.45-3.35-6.69-3.52-13.7-1.25-20.78,1.06-3.31,3.07-5.92,5.64-8.31,5.35-4.97,10.62-9.98,16.82-13.92C108.93,6.94,120.22,1.69,133,.28c7.18-.79,14.08-.06,20.32,3.95,4.64,2.98,7.15,7.16,6.86,12.81-.07,1.46-.01,2.92-.12,4.37-.22,2.89,.58,5.43,2.32,7.72,3.01,3.95,3.51,8.23,1.67,12.82-1.3,3.24-2.18,6.6-2.49,10.1Z"/><path class="cls-19" d="M148.43,129.95c-4.94,4.37-10.59,3.36-16,1.6-8.8-2.86-16.48-7.73-22.9-14.47-.55-.58-1.11-1.19-1.54-1.86-.39-.61-1.39-1.27-.5-2.07,.72-.65,1.57-.05,2.22,.39,2.46,1.68,5.02,3.17,7.62,4.64,6.2,3.5,12.96,4.88,19.9,5.32,2.83,.18,5.84-.21,8.49-1.52,1.87-.93,2.48-.55,2.26,1.47-.06,.55-.08,1.14,.38,1.6,.03,1.64,.05,3.28,.08,4.91Z"/><path class="cls-14" d="M88.46,92.9c.26-1.86,1.65-.52,2.46-.86,2.88-1.22,3.07,.56,3.09,2.72,.01,1.84,.24,3.69,.37,5.53-2.61-1.96-4.42-4.55-5.92-7.39Z"/><path class="cls-13" d="M188.33,262.71c-3.67-.86-7.4-.32-11.1-.47-2.49-.1-4.81-.81-7.09-1.63-1.42-.51-3.1-.9-4.32-.94-2.76-.1-4.73-1.93-7.23-2.35-.43-.07-.83-.45-1.19-.75-3.67-3.17-6.86-6.73-9.04-11.12-.37-.75-.48-1.34,.05-1.99,.92-.55,1.04,.42,1.36,.8,2.38,2.78,5.03,5.28,7.94,7.47,1.41,1.06,3.12,1.68,4.86,2.15,4.21,1.15,8.48,1.86,12.85,2.2-11.96,.03-21.28-4.91-28.01-14.76l.04,.05c-1.14-1.42-1.99-2.98-1.92-4.85,.05-1.23,.37-2.36,1.69-2.97,1.28-.59,2.15-.01,3.06,.73,2.25,1.84,4.56,3.6,6.75,5.51,4.53,3.97,9.99,5.83,15.78,6.96,2.92,.57,5.84,1.18,8.78,1.66-4.29-.71-8.52-1.66-12.75-2.63-4.88-1.11-8.99-3.58-12.71-6.76-1.96-1.68-4.02-3.24-6.02-4.87-1.72-1.4-2.33-3.32-2.35-5.36-.01-1.65,.53-3.28,2.39-3.83,1.96-.58,3.42,.28,4.5,1.89,.34,.24,.69,.48,1.03,.72,.86,0,1.52,.46,2.21,.9,6.11,3.91,12.83,6.11,19.99,7.08,.32,.04,.64,.1,.97,.07,.65-.05,1.39-.08,1.59-.83,.18-.65-.43-1-.88-1.32-1.99-1.41-4.17-2.49-6.26-3.71-3.15-1.83-6.3-3.67-9.22-5.85-1.78-1.33-3.1-2.94-2.4-5.36,.54-1.88,2.59-3.07,5.26-3.17,3.27-.12,6.16,1.21,9.04,2.5,6.43,2.86,12.81,5.87,19.59,7.87,1.55,.91,3.25,1.35,4.79,1.65-1.09-.77-3.4,.18-3.82-2.21,.35-2.92,1.79-5.48,2.72-8.21,.91-2.66,2-5.26,2.88-7.93,.32-.98,.58-2.03,1.61-2.59,2.04-.82,3.32,.12,4.04,1.92,.57,1.42,1.28,2.86,1.19,4.43-.15,2.72,.32,5.35,1.15,7.89,.88,2.69,.97,5.42,.82,8.17-.13,2.4,.46,4.65,.96,6.94-.03,1.01,.32,1.88,.89,2.7,5.08,7.38,11.29,13.69,18.2,19.34,3.49,2.86,7.25,5.32,11.24,7.46-9.66-4.94-17.18-12.48-24.58-20.17-.67-.7-1.24-1.52-.9-2.62,1.56-1.8,3.82-2.14,5.9-2.3,2.75-.21,5.43-.79,8.07-1.39,3.69-.84,7.36-.64,11.05-.65,.98,0,2.18-.15,2.56,1.22,1.18,5.25,2.79,10.39,4.18,15.58,1.92,7.15,3.95,14.3,5.28,21.57,1.44,7.85,2.07,15.85,.19,23.79-1.46,6.17-4.17,11.52-9.95,14.72-1.45,.8-3.13,1.42-4.77,1.63-10.7,1.38-19.12-2.88-25.97-10.8-2.88-3.34-5.51-6.87-8-10.52-2.68-4.81-5.47-9.57-8-14.45-2.57-4.96-4.88-10.04-7.3-15.07-.4-.84-.25-1.75-.23-2.63,.34-1.27,1.46-.5,2.18-.79,.8-.33,1.77-.04,2.55-.39-1.99,.41-4.09,.49-6.17,.72Z"/><path class="cls-26" d="M244.33,239.36c-3.97-.88-7.96-.64-11.93-.09-3.07,.43-6.04,1.31-9.14,1.68-2.18,.26-4.77,.1-6.25,2.42-2.53-1.15-3.45-3.74-5.08-5.69-.3-.36-.47-.83-.76-1.21-1.36-4.21-.31-8.67-1.14-12.84-.79-3.97-1.93-7.81-1.91-11.92,0-1.14-.7-2.41-1.15-3.58-.49-1.28-1.73-1.64-3.08-1.33-.83-1.03-.17-2.02,.14-2.97,1.05-3.21,2.56-6.28,2.73-9.74-.65-2.06-2.15-2.86-4.22-2.86-1.29,0-2.58-.06-3.87-.09,5.21-4.97,11.58-8,18.17-10.54,3.94-1.52,7.96-3.01,12.32-2.96,1.94,6.96,3.93,13.91,5.82,20.89,3.01,11.11,5.96,22.24,8.92,33.36,.45,1.71,.86,3.43,1.23,5.15,.2,.9,.16,1.79-.81,2.32Z"/><path class="cls-26" d="M232.48,177.07c3.31-.66,6.62-.63,9.93,0-3.31,0-6.62,0-9.93,0Z"/><path class="cls-7" d="M206.78,194.08c.86,1.07,.72,2.2,.3,3.41-1.08,3.09-2.12,6.2-3.17,9.3-2.33,6.18-4.65,12.36-6.98,18.54-.15,.8-.41,1.44-1.43,.98-7.26-1.82-13.85-5.3-20.7-8.17-1.64-.68-3.29-1.35-4.99-1.85-1.72-.51-3.49-.64-5.22,.15-2.96,1.35-3.48,3.64-1.18,5.91,1.08,1.07,2.34,2,3.64,2.79,4.21,2.56,8.5,4.99,12.73,7.53,.92,.55,2.3,1.1,1.81,2.51-.5,1.42-1.99,1.29-3.15,1.13-8.26-1.14-16.13-3.33-22.75-8.74,1.26-.21,1.52-1.26,1.87-2.24,3.22-9.13,6.4-18.28,9.71-27.38,1.44-3.96,2.02-4.23,6.28-4.23,10.29,0,20.58,0,30.86-.01,.82,0,1.61,.06,2.37,.39Z"/><path class="cls-23" d="M205.76,148.83c1.54,1.56,3.82,1.84,5.5,3.16-4,5.08-7.92,10.2-11.06,15.89-4.1,7.42-7.91,14.94-9.82,23.27-.73,.04-1.45,.07-2.18,.12-.91,.06-1.07-.35-.9-1.18,3.1-15.12,8.9-29.02,18.45-41.26Z"/><path class="cls-20" d="M222.44,159.89c1.07,1.95,2.6,3.73,2.37,6.18-2.78,1.74-5.83,2.96-8.59,4.75-7.01,4.54-13.33,9.82-18.43,16.47-.82,1.08-1.46,2.3-2.19,3.45-.93,.68-1.98,.59-3.03,.45,.61-3.03,2.83-5.15,4.48-7.54,4.08-5.92,8.7-11.43,14.24-16.06,3.46-2.9,6.84-6.01,11.16-7.69Z"/><path class="cls-21" d="M158.68,215.47c-.14-.83,.38-1.89-1.51-1.19-2.27,.84-4.03,2.33-6.03,3.49-.93,.53-1.8,1.03-2.64,.53-1.15-.69,.08-1.47,.17-2.24,.24-1.91,.2-3.86,.27-5.79,.36-3.53,2.97-5.16,5.99-3.58,1.93,1.01,4.06,1.37,6.06,2.15-.46,2.32-1.26,4.52-2.3,6.64Z"/><path class="cls-28" d="M154.66,226.84c-1.65-1.1-3.35-2.85-5.35-.95-1.87,1.77-1.31,4-.34,6.08,.23,.5,.56,1,.97,1.37,7.08,6.42,14.51,12.17,24.47,13.34,2.89,.34,5.74,1.05,8.51,1.92-8.87-1.28-17.97-1.82-25.36-7.93-2.62-2.17-5.29-4.27-7.99-6.33-1.71-1.3-3.17-.58-3.58,1.55-.4,2.1,.92,3.66,1.46,5.47-.75,0-.85-.87-1.44-1.08-.28-1.08-.62-2.15-.82-3.25-.19-1.06-.14-2.5,.72-2.89,2.55-1.16,1.85-2.9,1.48-4.88-.32-1.71,.23-3.34,1.85-4.4,2.15-1.4,3.8-.02,5.52,.96,.1,.35,.62,.75-.11,1.01Z"/><path class="cls-30" d="M160.98,208.83c-2.18,.12-4.1-.74-5.98-1.69-2.94-1.47-4.82-.62-5.63,2.59-.05,.2-.29,.35-.44,.53-.91-1.53-.08-2.67,1.05-3.47,1.34-.96,2.83-2.06,4.61-.86,2.06,1.39,4.37,1.97,6.79,2.27-.13,.21-.27,.43-.4,.64Z"/><path class="cls-17" d="M147.42,241.32c1.71,.98,2.81,2.62,3.98,4.08,5.34,6.72,12.64,9.18,20.78,10.02,1.55,.16,3.08,.5,4.54,1.08-7.83-1.06-16.09-.8-22.31-7.06-1.99-2-3.99-3.99-5.98-5.99-.64-.57-1.07-1.24-1-2.14Z"/><path class="cls-12" d="M188.33,262.71c2.52-1.03,5.25-.71,7.85-1.31-1.86,1.7-4.31,1.1-6.42,1.77-.48-.15-.95-.31-1.43-.46Z"/><path class="cls-5" d="M60.37,250.6c-.03,.46-.33,.71-.73,.86-10.04,3.76-20.08,7.52-30.12,11.27-.19,.07-.44-.02-.85-.04,.6-1.05,1.62-1.14,2.44-1.44,7.03-2.61,14.05-5.24,21.12-7.73,1.75-.62,2.56-1.5,2.15-3.33,.31-3.63-.1-7.29,.55-10.9,.61,.38,.13,1.1,.48,1.56v11.3c1.67-.18,3.08-1.67,4.96-1.54Z"/><path class="cls-10" d="M55.1,230.64c.33-11.07,.66-22.13,.99-33.18,.99-.1,.84,.52,.83,.95-.38,10.6-.77,21.19-1.16,31.79,0,.15-.12,.3-.18,.44-.16,.23-.32,.23-.47,0Z"/><path class="cls-29" d="M55.1,230.64c.16,.01,.31,.02,.47,0-.05,3.4-.11,6.79-.16,10.19-.16-.52-.32-1.04-.48-1.56,.06-2.88,.11-5.76,.17-8.65Z"/><path class="cls-8" d="M123.58,211.95c3.99,2.39,7.98,4.78,11.96,7.19,.85,.52,.99,1.51,1.06,2.37,.27,3.31,.72,6.66-.48,9.87-.68,1.81,.08,1.89,1.5,1.72,2.48-.3,4.31-1.47,5.02-3.91,1.48-5.09,1.35-10.24,.22-15.36-.39-1.78-1.83-2.79-3.43-3.53-3.75-1.74-7.61-3.16-11.54-4.41-.67-.21-1.44-.17-1.81-1.08,5.8,1.64,11.86,2.75,16.56,6.97,1.69,1.52,1.61,4.02,1.79,6.18,.29,3.56,.17,7.13-.75,10.61-.9,3.41-3.01,5.23-6.55,5.39-1.3,.06-2.33,.25-3.17,1.29-.29,.36-.78,.57-1.17,.86-1.35,1.03-3.36,.64-4.46,1.61-.98,.87,0,2.92-.91,4.38-.63-.71-.37-1.36-.33-1.94,.1-1.49,.09-2.51-1.71-3.38-2.79-1.35-2.32-6.08,.66-8.73-1.77-1.86-4.33-2.64-6.06-4.57,2.63,.98,4.99,2.44,7.1,4.26,.81,.7,.34,1.18-.58,1.5-2.66,.93-2,3.23-1.84,5.13,.17,1.99,1.75,2.2,3.44,2.16,4.25-.1,6.84-2.34,7.64-6.66,.53-2.83,.26-5.64,.03-8.47-.11-1.35-1.03-1.96-2.01-2.53-2.99-1.77-6.01-3.51-9-5.27-.55-.32-1.2-.53-1.15-1.62Z"/><path class="cls-1" d="M123.86,51.23c1.98,.11,3.73,.4,5.35,1.18,.85,.41,1.48,1.11,1.44,2.07-.05,1.16-1.11,1.32-1.96,1.44-5.17,.71-10.1,2.14-14.67,4.72-.66,.37-1.46,.93-2.18,.08-.64-.75-.29-1.58,.09-2.27,2.62-4.77,6.83-6.88,11.92-7.21Z"/><path class="cls-7" d="M150.76,50.55c4.82,.02,8.09,2.11,9.33,5.26,.31,.79,.56,1.61-.04,2.3-.61,.71-1.36,.19-2-.08-3.98-1.71-8.06-2.86-12.45-2.62-.63,.03-1.37,.01-1.59-.78-.22-.79,.15-1.44,.76-1.91,2.07-1.61,4.48-2.15,5.99-2.16Z"/><path class="cls-31" d="M127.11,92.78c8.13,2.45,16.03,2.98,23.48-1.8,.71,4.6-2.63,8.82-7.48,9.78-7.2,1.43-14.41-2.02-16-7.98Z"/><path class="cls-4" d="M127.55,67.21c0,2.47-1.28,4.33-2.96,4.32-1.77-.02-3.44-2.25-3.43-4.6,0-2.31,1.42-4.13,3.21-4.12,1.85,0,3.18,1.86,3.18,4.4Z"/><path class="cls-18" d="M154.31,65.97c.04,2.41-1.29,4.22-3.05,4.17-1.71-.04-3.19-2.07-3.24-4.44-.05-2.28,1.17-3.9,2.98-3.96,1.87-.07,3.27,1.72,3.31,4.23Z"/><path class="cls-33" d="M140.62,60.37c.16,1.42,.35,2.83,.48,4.25,.32,3.65,1.56,6.92,4.01,9.68,1.08,1.22,2.04,2.51,2.55,4.08,.89,2.76-.22,5.66-2.7,7.11-2.38,1.39-6.5,1.01-8.28-.9,1.45,.31,2.74,.68,4.06,.85,2.24,.3,4.27-.33,5.53-2.25,1.2-1.83,1.02-3.89,.01-5.78-.56-1.06-1.39-1.98-2.15-2.92-3.36-4.12-4.25-8.91-3.5-14.13Z"/><path class="cls-3" d="M89.32,82.32c-.61-5.15-1.53-9.85-8.2-10.31,2.5-1.13,4.16-.23,5.64,1.22,2.44,2.38,3.66,6.43,2.56,9.09Z"/><path class="cls-16" d="M123.73,87.9c-1.31,1.59-2.68,3.11-3.92,4.75,.49-2.22,1.88-3.76,3.92-4.75Z"/><path class="cls-24" d="M153.53,83.91c1.8,.8,2.97,2.09,3.13,4.14-1-1.42-2.06-2.78-3.13-4.14Z"/><path class="cls-32" d="M211.17,236.47c2.2,2.09,3.53,4.91,5.84,6.9,6.83,8.56,14.99,15.56,24.46,21.06,.8,.46,1.8,.68,2.33,1.57-.52,.64-.9,.08-1.24-.1-12.42-6.8-22.44-16.29-30.73-27.68-.38-.52-.83-1.02-.66-1.75Z"/><path class="cls-27" d="M195.5,226.31c.72,.03,1-.59,1.43-.98,.29,1.45,1.62,1.05,2.51,1.37,.98,.36,2.02,.57,3.02,.87,.12,.04,.19,.23,.58,.7-2.83-.32-5.23-.93-7.54-1.96Z"/><path class="cls-34" d="M177.66,201.64c-.08,1.55-1.02,2.42-2.43,2.51-1.26,.08-2.24-.86-2.27-2.06-.04-1.38,.8-2.48,2.33-2.6,1.45-.11,2.23,.71,2.37,2.15Z"/><path class="cls-6" d="M128.49,93.9c7.22,2.3,14.21,2.33,20.93-1.39,.1,3.73-2.09,6.39-5.91,7.27-6.44,1.5-12.72-.9-15.02-5.89Z"/></svg>