<?xml version="1.0" encoding="UTF-8"?><svg id="Camada_1" xmlns="http://www.w3.org/2000/svg" viewBox="0 0 195.66 75.93"><defs><style>.cls-1{fill:#54705f;}.cls-2{fill:#fff;}.cls-3{fill:#44570e;}.cls-4{fill:#212b73;}.cls-5{fill:#eddf7d;}.cls-6{fill:#41520a;}.cls-7{fill:#445509;}.cls-8{fill:#3e4e13;}.cls-9{fill:#7e943d;}.cls-10{fill:#909b32;}.cls-11{fill:#dcce3f;}.cls-12{fill:#d8cd3f;}.cls-13{fill:#fbf7bb;}.cls-14{fill:#6c759b;}.cls-15{fill:#ece07d;}.cls-16{fill:#464577;}.cls-17{fill:#919529;}.cls-18{fill:#afb1cf;}.cls-19{fill:#ebdc7a;}.cls-20{fill:#f0c900;}.cls-21{fill:#6a6692;}.cls-22{fill:#ebdf7b;}.cls-23{fill:#759580;}.cls-24{fill:#01411f;}.cls-25{fill:#232d74;}.cls-26{fill:#fcf6b9;}.cls-27{fill:#c1d0c4;}.cls-28{fill:#878c35;}.cls-29{fill:#909c2d;}.cls-30{fill:#faf5b9;}.cls-31{fill:#42520c;}.cls-32{fill:#637b24;}.cls-33{fill:#42604f;}.cls-34{fill:#dbce3d;}.cls-35{fill:#a2a9c6;}.cls-36{fill:#615e8c;}.cls-37{fill:#ecdf7c;}.cls-38{fill:#455d13;}.cls-39{fill:#b2c6ba;}.cls-40{fill:#405b0f;}.cls-41{fill:#536854;}.cls-42{fill:#bdcfc3;}.cls-43{fill:#f1e07e;}.cls-44{fill:#000177;}.cls-45{fill:#dec83a;}.cls-46{fill:#edde7b;}.cls-47{fill:#bcd3c7;}.cls-48{fill:#e7dd77;}.cls-49{fill:#ddce40;}.cls-50{fill:#8d9a30;}.cls-51{fill:#415b0e;}.cls-52{fill:#3e580c;}.cls-53{fill:#222c73;}.cls-54{fill:#00411f;}</style></defs><g><path class="cls-42" d="M21.91,47.98c-.46,.99-1.08,1.86-2,2.48-.09,.06-.18,.11-.27,.15-.35,.16-.71,.32-1.06,.48-.24,.11-.49,.14-.76,.14-2.56,0-5.12,0-7.67,0-3.15,0-6.3,0-9.45,0-.42,0-.57-.15-.57-.58,0-2.47,.03-4.95-.01-7.42-.1-5.63-.01-11.27-.06-16.9,0-.53-.04-1.06-.04-1.59,0-.09-.01-.19,.03-.28,.1-.2,.25-.26,.48-.26,1.89,0,3.79,0,5.68,0,1.44,0,2.87-.02,4.31,0,5.72,.11,11.44,.01,17.15,.06,.51,0,1.01,.05,1.52,.05,.26,0,.52,0,.78-.04,.17-.03,.36-.03,.53,0,.54,.08,1.07,.08,1.61-.01,.41-.05,.49,.02,.46,.41-.01,.17-.01,.35-.17,.48-.17-.02-.26-.13-.32-.27,.15-.33,.14-.34-.23-.34-.15,0-.28,.04-.43,.06-1.36-.09-2.72-.03-4.08-.05-.64,0-1.29,0-1.93,0-6.55-.08-13.1-.04-19.65-.08-1.66,0-3.32-.03-4.99-.05-.46,0-.48,.02-.48,.47,0,4.36-.05,8.71,.02,13.07,.05,2.89-.03,5.78,.06,8.66,.04,1.32,.02,2.64,.05,3.96,0,.33,.04,.37,.35,.37,5.82,0,11.65,0,17.47,0,.02,0,.04,0,.06,0,.86-.34,1.69-.73,2.36-1.4,.36-.36,.57-.81,.82-1.24,.14-.24,.27-.47,.24-.76,0-.05,.02-.1,.05-.14,.05-.05,.1-.1,.18-.04,.03,.04,.04,.09,.04,.15-.06,.15,0,.31-.06,.46Z"/><path class="cls-13" d="M21.91,47.98v-.5c.34-.34,.51-.76,.62-1.22,0-.03,.02-.06,.03-.09,.44-.85,.86-1.71,1.25-2.57,.32-.7,.68-1.37,.94-2.1,.09-.24,.21-.47,.34-.69,.35-.58,.52-1.25,.84-1.83,.36-.65,.7-1.32,.98-2,.25-.61,.6-1.18,.83-1.8,.13-.37,.27-.74,.51-1.06,.14-.2,.21-.42,.23-.67,.02-.3,.21-.52,.33-.78,.62-1.31,1.19-2.65,1.84-3.95,.41-.81,.73-1.65,1.15-2.45,.19-.37,.26-.79,.51-1.12,.08-.17,.19-.34,.18-.54,0-.22-.02-.24-.23-.28-.07-.01-.14-.03-.2-.06,.02-.06,.04-.11-.01-.17-.13-.13-.29-.23-.43-.34-.39-.3-.87-.42-1.31-.6-.26-.1-.51-.21-.75-.37-.2-.13-.41-.22-.64-.29-.26-.08-.55-.17-.72-.44-.06-.1-.15-.18-.28-.17-.13,.01-.18-.08-.22-.18,.11-.12,.25-.09,.39-.08,.3,.03,.5,.23,.73,.38,.48,.3,.99,.52,1.5,.75,1.23,.55,2.44,1.14,3.66,1.72,.82,.39,1.65,.78,2.46,1.19,.22,.11,.44,.23,.68,.29,.91,.44,1.83,.88,2.75,1.3,1,.45,1.99,.93,2.97,1.41,.76,.37,1.58,.64,2.29,1.11,.11,.07,.23,.08,.35,.12,.99,.51,2.01,.95,3.02,1.42,.75,.27,1.4,.76,2.18,.97,.14,.03,.3,.04,.36,.21-.46,.12-.91,.12-1.3-.16-.33-.24-.7-.38-1.09-.48-.16-.04-.3-.11-.44-.22-.25-.19-.53-.36-.83-.48-.44-.18-.87-.39-1.31-.58-.05-.02-.1-.04-.14-.07-.25-.27-.6-.28-.91-.4-.1-.04-.19-.07-.28-.13-.3-.21-.61-.4-.99-.41-.08,0-.13-.05-.2-.08-.42-.19-.79-.45-1.15-.72-.05-.04-.11-.06-.17-.07-.06,0-.13,0-.18-.04-.49-.28-1.06-.42-1.52-.77-.2-.15-.43-.21-.67-.24-.29-.04-.54-.15-.74-.36-.12-.13-.27-.17-.41-.19-.39-.06-.72-.25-1.04-.45-.23-.14-.47-.25-.72-.34-.34-.12-.65-.31-.96-.49-.19-.11-.39-.21-.6-.26-.45-.1-.81-.38-1.19-.59-.17-.1-.33-.2-.52-.26-.24-.07-.47-.15-.7-.26-.23-.11-.41-.01-.4,.24,0,.3-.1,.59-.07,.9,0,.05,0,.11-.02,.15-.18,.33-.22,.72-.4,1.04-.21,.38-.45,.74-.57,1.16-.02,.07-.1,.13-.15,.2-.07,.1-.19,.2-.21,.31-.09,.48-.43,.85-.58,1.3-.18,.53-.49,1-.71,1.51-.06,.13-.08,.28-.11,.42-.04,.23-.13,.43-.29,.6-.22,.23-.42,.49-.46,.83,0,.02,0,.04-.02,.06-.27,.41-.36,.91-.66,1.3-.14,.19-.24,.39-.28,.64-.05,.27-.19,.53-.33,.77-.18,.32-.35,.63-.42,1-.07,.34-.24,.64-.43,.92-.11,.17-.2,.33-.24,.53-.03,.17-.13,.32-.23,.47-.21,.34-.45,.67-.52,1.08-.01,.07-.05,.13-.09,.2-.18,.35-.36,.7-.48,1.08-.01,.04-.03,.08-.05,.11-.37,.42-.47,.95-.66,1.45-.05,.13-.08,.26-.19,.35-.27,.21-.36,.52-.45,.83-.05,.16-.11,.31-.2,.45-.17,.25-.3,.51-.4,.8-.12,.34-.31,.65-.49,.96-.09,.17-.16,.32-.16,.52-.02,.43-.19,.79-.61,.97-.09,.04-.13,.08-.13,.18,0,.07,.01,.15-.05,.2Z"/><path class="cls-47" d="M24.89,43.87c0-.11,0-.22,0-.34,0-.13,.05-.22,.19-.23,.14-.04,.23,.02,.27,.16-.01,.08-.06,.13-.13,.16-.14,.08-.11,.22-.11,.34,.04,1.98-.09,3.95-.07,5.92,0,.32,0,.64,0,.97-.04,1.6-.03,3.2-.08,4.8-.05,1.38,.01,2.76-.05,4.14-.09,1.86,.01,3.72-.07,5.58-.07,1.63,0,3.26-.05,4.89-.06,1.61-.13,3.22-.11,4.83,0,.43,.03,.46,.46,.46,2.82,0,5.64-.05,8.46,.01,4.32,.09,8.63,0,12.95,.07,1.42,.02,2.85,.02,4.27,.04,.36,0,.38-.03,.4-.39,.08-1.86,.01-3.72,.07-5.58,.08-2.55,0-5.09,.07-7.64,.03-1.1,.02-2.2,.05-3.3,.01-.53-.02-1.04-.23-1.55-.44-1.03-1.04-1.91-2.05-2.45-.14-.07-.28-.14-.4-.24-.18-.15-.38-.21-.6-.2-.06,0-.12-.02-.16-.06-.03-.03-.03-.07-.01-.1,.16-.07,.33,0,.49,0,.29,.01,.5,.2,.72,.34,.17,.1,.33,.21,.5,.32,.38,.23,.67,.56,.93,.91,.06,.08,.1,.17,.2,.23,.08,.05,.12,.13,.16,.22,.2,.42,.35,.87,.59,1.28,.08,.15,.09,.32,.09,.48,0,2.19,.04,4.39-.02,6.58-.08,3.12-.02,6.23-.05,9.35,0,.23,0,.45-.04,.68-.04,.2-.04,.41,.02,.62,.06,.18-.01,.35-.07,.51-.04,.11-.14,.21-.28,.21-.35,0-.71,.07-1.05,.04-.96-.07-1.91-.03-2.87-.04-1.45-.02-2.89,.02-4.34-.01-5.76-.11-11.52-.03-17.28-.06-.21,0-.42,0-.62,0-.39,0-.65-.24-.6-.63,.04-.29-.03-.58,0-.86,.03-.5,.06-.99,.05-1.49,0-.58-.03-1.17,0-1.75,.08-1.13,0-2.26,.07-3.39,.05-.93,0-1.87,.06-2.8,.09-1.22,.01-2.43,.06-3.64,.11-2.75,0-5.51,.07-8.26,.03-1.17,0-2.35,.06-3.52,.06-1.17,0-2.35,.06-3.52,.03-.57,.04-1.14,.04-1.71-.03-.12-.03-.25,0-.37Z"/><path class="cls-39" d="M54.85,27.64c.13-.35,.38-.64,.54-.98,.23-.51,.67-.83,1.06-1.19,.36-.33,.79-.55,1.25-.71,.04-.01,.08-.03,.11-.05,.26-.23,.59-.25,.91-.25,2.26,0,4.51-.04,6.77,0,3.52,.07,7.05,.01,10.57,.04,.09,0,.19,0,.28,0,.2,.02,.28,.1,.29,.29,0,.08,0,.17,0,.25,0,8.62,0,17.24,0,25.86,0,.11,.02,.23-.03,.34-.06,.13-.26,.25-.42,.2-.19-.05-.37-.04-.56-.04-1.78,0-3.56,.02-5.34-.02-4.92-.1-9.84,0-14.75-.07-2.04-.03-4.08,.02-6.11-.06-1.5-.06-2.99-.02-4.49-.05-.13,0-.28-.02-.4,.02-.18,.06-.25,0-.31-.15-.05-.14-.11-.28,.03-.41,.13-.07,.22-.05,.27,.1,.05,.21,.22,.16,.35,.16,.75,0,1.5-.02,2.25,0,2.51,.08,5.03,0,7.54,.07,2.23,.06,4.45,0,6.67,.05,3.59,.08,7.17,.02,10.76,.08,1.28,.02,2.56,.02,3.83,.04,.47,0,.53-.07,.45-.53-.05-.27,.04-.51,.04-.77,0-2.73,.04-5.47-.01-8.2-.11-5.46-.01-10.92-.05-16.37,0-.65,0-.65-.64-.65-5.56,0-11.13,0-16.69,0-.39,0-.76,.03-1.1,.25-.42,.24-.89,.39-1.27,.71-.24,.09-.38,.31-.57,.48-.05,.05-.1,.1-.15,.15-.08,.08-.16,.16-.21,.25-.01,.02-.03,.05-.04,.07-.07,.13-.14,.26-.22,.38-.03,.05-.05,.09-.07,.14-.05,.08-.08,.17-.13,.26-.01,.03-.03,.05-.05,.07-.18,.21-.17,.45-.15,.7,.01,.11,.06,.22-.01,.33-.03,.02-.06,.03-.09,.02-.09-.06-.14-.15-.18-.25-.06-.2,.04-.38,.05-.58Z"/><path class="cls-27" d="M51.06,32.51c-.12-.06-.23-.14-.38-.13,.04-.21,.22-.22,.38-.25,.22-.04,.15-.22,.15-.35,0-1.13,0-2.27,0-3.4,0-.72-.02-1.44,0-2.15,.09-2.76,0-5.53,.07-8.29,.09-3.34-.02-6.67,.06-10.01,.06-2.4,.02-4.8,.05-7.2,0-.49-.02-.51-.51-.51-1.22,0-2.43-.02-3.65,0-7.29,.14-14.58,.02-21.87,.06-.09,0-.19,0-.28,0-.19,0-.28,.1-.29,.29,0,.12,0,.25,0,.37,0,5.51,0,11.02-.01,16.54,0,.61,.17,1.13,.41,1.66,.26,.61,.67,1.09,1.13,1.55,.11,.1,.26,.19,.21,.38-.31-.1-.49-.37-.7-.59-.06-.07-.11-.15-.18-.21-.25-.22-.43-.48-.5-.8-.01-.06-.04-.12-.09-.16-.12-.1-.15-.23-.19-.38-.05-.21-.21-.38-.28-.59-.04-.13-.08-.25-.08-.39,0-.96-.02-1.91,0-2.87,.12-4.53,.03-9.06,.06-13.6,0-.32,.12-.64,.04-.96-.04-.17,.03-.25,.12-.35,.11-.12,.24-.1,.38-.1,2.57,0,5.14,0,7.71,0,2.44,0,4.89,.05,7.33-.02,2.48-.07,4.97-.04,7.45-.03,1.03,0,2.06,.03,3.08,.04,.14,0,.29,0,.43-.03,.24-.06,.43,.08,.47,.33,0,.06,0,.12,0,.19,0,1.97,.03,3.93-.01,5.9-.1,4.39-.01,8.77-.06,13.16,0,.37-.05,.74-.05,1.12,0,.28,.08,.55,.06,.84-.11,1.9,0,3.8-.08,5.7-.06,1.61-.02,3.22-.04,4.83,0,.36-.04,.39-.38,.43Z"/><path class="cls-23" d="M26.54,21.07c-.02-.1-.1-.15-.17-.22-.32-.32-.64-.65-.91-1.02-.2-.27-.29-.59-.44-.88-.05-.09-.06-.21-.13-.28-.18-.22-.2-.47-.19-.73,0-4.03,.01-8.07,.02-12.1,0-1.73,0-3.45,0-5.18,0-.07,0-.15,0-.22,.01-.15,.1-.22,.24-.24,.06,0,.12,0,.19,0,7.09,0,14.19,0,21.28-.03,1.52,0,3.03-.01,4.55-.03,.05,0,.1,0,.16,0,.28,0,.36,.08,.36,.38,0,.18,0,.35,0,.53,0,1.89,.03,3.79-.01,5.68-.08,3.53,0,7.07-.07,10.6-.05,2.43,.01,4.86-.06,7.29-.07,2.19-.03,4.39-.05,6.58,0,.27,0,.54,0,.81,0,.24-.05,.27-.31,.2-.15-.1-.24-.23-.21-.43,.15-.11,.21,.12,.33,.1,.07-.08,0-.15,0-.23-.01-.05-.02-.1-.02-.15-.01-.52,.01-1.04-.01-1.55,.01-1.08-.04-2.15,.02-3.23,.03-.12,.05-.24,.05-.37,0-2.82,0-5.65,0-8.47-.01-.22-.01-.44,0-.67,.14-2.18,.01-4.36,.07-6.54,.05-1.62,.07-3.24,.05-4.86,0-1.67-.03-3.34,.01-5.01,0-.14,.13-.28,0-.41-.03-.02-.06-.03-.1-.04-.12-.01-.23,0-.34,0-8.29,0-16.59,0-24.88,0-.18,0-.35-.02-.53,.04-.06,.01-.12,.03-.18,.02-.25-.01-.33,.13-.31,.35,0,.1,0,.21,0,.31,0,4.6,0,9.2,0,13.81,0,.75-.04,1.5-.08,2.24-.05,.84,.23,1.55,.61,2.25,.52,.96,1.33,1.61,2.29,2.08,.2,.11,.41,.05,.62,.07,.09,.01,.17,.04,.22,.13,.01,.04,0,.07-.02,.1-.14,.04-.27,0-.41,0h-.45c-.36-.18-.67-.45-1.04-.6-.05-.02-.09-.04-.14-.06Z"/><path class="cls-26" d="M44.31,50.73c-.11,.11-.04,.25-.07,.37-.29-.28-.32-.59-.1-.92,.04-.06,.04-.12,.05-.18,.07-.35,.22-.66,.38-.97,.17-.33,.32-.67,.47-1.01,.13-.29,.24-.59,.4-.87,.13-.24,.25-.49,.39-.73,.15-.25,.24-.55,.33-.83,.09-.28,.22-.53,.4-.76,.09-.11,.13-.24,.12-.38-.01-.14,.03-.28,.14-.37,.27-.23,.38-.54,.46-.87,.08-.32,.24-.6,.42-.86,.17-.24,.26-.51,.36-.78,.03-.07,.04-.16,.09-.19,.29-.21,.36-.53,.43-.84,.07-.32,.26-.56,.41-.83,.03-.04,.08-.08,.09-.12,.13-.58,.55-1.04,.71-1.61,.04-.15,.12-.29,.21-.41,.17-.24,.29-.5,.37-.78,.06-.22,.13-.43,.31-.6,.09-.09,.16-.22,.17-.36,0-.32,.17-.6,.27-.89,.03-.09,.08-.19,.15-.23,.33-.22,.38-.61,.53-.92,.13-.26,.23-.53,.38-.78,.09-.16,.16-.32,.2-.49,.05-.25,.18-.46,.31-.67,.17-.27,.33-.55,.42-.86,.06-.19,.2-.34,.31-.5,.16-.22,.28-.44,.33-.72,.05-.37,.15-.73,.49-.97,.08-.06,.1-.14,.12-.24,.05-.24,.11-.49,.34-.63,.11-.07,.06-.2,.14-.26,0,.21,0,.41,0,.62,.03,.08-.02,.14-.06,.2-.36,.52-.61,1.11-.88,1.68-.31,.65-.65,1.3-.95,1.95-.35,.75-.76,1.48-1.03,2.26-.1,.3-.28,.55-.42,.83-.36,.7-.66,1.42-1,2.13-.56,1.17-1.1,2.35-1.67,3.51-.64,1.32-1.26,2.66-1.89,3.98-.74,1.54-1.45,3.1-2.2,4.64-.2,.41-.33,.84-.45,1.28Z"/><path class="cls-13" d="M25.34,43.43c-.09-.03-.15-.13-.25-.13,.33-.15,.69-.13,1.04-.11,.14,.01,.28,.09,.38,.2,.26,.27,.6,.41,.94,.52,.35,.12,.68,.24,.98,.46,.14,.1,.29,.18,.45,.21,.32,.06,.59,.2,.82,.41,.33,.3,.75,.39,1.14,.56,.1,.05,.21,.09,.32,.13,.43,.14,.86,.28,1.23,.56,.27,.2,.59,.33,.89,.49,.13,.07,.21,.22,.36,.24,.35,.03,.63,.26,.95,.37,.26,.09,.52,.21,.76,.35,.2,.12,.38,.28,.59,.4,.15,.09,.31,.17,.49,.21,.6,.12,1.14,.37,1.63,.73,.27,.2,.56,.31,.87,.39,.14,.04,.28,.09,.41,.15,.3,.16,.59,.37,.91,.47,.49,.16,.89,.49,1.36,.67,.74,.28,1.43,.66,2.11,1.04,.36,.2,.76,.33,1.11,.56,.07,.04,.15,.08,.23,.08,.37,.04,.67,.23,.94,.44,.18,.14,.4,.2,.61,.28,.31,.12,.61,.27,.91,.39,.17,.07,.3,.2,.4,.34,.13,.18,.29,.28,.49,.32-.17,0-.33,0-.5,.01-.1,.09-.2,.05-.27-.04-.28-.36-.69-.49-1.08-.65-.52-.22-1-.5-1.5-.74-.17-.08-.35-.14-.52-.2-.77-.44-1.57-.8-2.37-1.16-.8-.36-1.58-.77-2.38-1.16-.72-.35-1.47-.66-2.19-1.04-.5-.26-1.01-.54-1.56-.7-.53-.23-1.01-.57-1.55-.8-1.24-.52-2.41-1.16-3.63-1.72-1.13-.51-2.22-1.11-3.36-1.6-.55-.24-1.06-.57-1.63-.77-.19-.07-.4-.02-.56-.16Z"/><path class="cls-18" d="M29.33,40.76c-.24-.3-.23-.68-.3-1.03-.02-.1-.03-.21-.06-.31-.2-.75-.14-1.51-.12-2.26,0-.26,.08-.51,.14-.76,.05-.23,.11-.46,.1-.71,0-.11,.02-.21,.09-.29,.11-.15,.17-.31,.16-.49,0-.15,.08-.25,.13-.38,.15-.41,.35-.79,.54-1.18,.16-.34,.39-.65,.64-.95,.28-.34,.52-.73,.83-1.04,.4-.4,.85-.75,1.31-1.09,.59-.44,1.25-.76,1.9-1.1,.19-.1,.41-.13,.62-.19,.2-.05,.39-.11,.58-.19,.23-.1,.47-.17,.73-.15,.18,.01,.36-.02,.52-.09,.19-.09,.38-.1,.58-.1,.41,0,.81,0,1.22,0,.24,0,.47,0,.69,.11,.18,.1,.4,.08,.61,.07,.17,0,.34,0,.49,.08,.38,.18,.78,.27,1.18,.4,.25,.09,.51,.19,.73,.33,.3,.2,.63,.36,.93,.55,.68,.43,1.25,.98,1.82,1.54,.27,.27,.55,.55,.74,.88,.15,.27,.34,.51,.49,.78,.18,.33,.33,.66,.49,.99,.11,.24,.15,.52,.34,.72,.02,.46,.21,.88,.28,1.33,.08,.47,.11,.94,.16,1.41,.04,.35,.02,.7-.02,1.06-.05,.47-.16,.92-.23,1.38-.06,.38-.16,.77-.35,1.12-.11,.2-.18,.41-.26,.63-.05,.13-.08,.25-.15,.37-.2,.36-.38,.73-.65,1.04-.02-.02-.04-.04-.05-.07-.05-.19,.12-.29,.16-.45,.04-.15,.15-.27,.21-.41,.03-.05,.05-.1,.09-.14,.02-.02,.04-.04,.06-.06,.05-.04,.08-.09,.11-.15,0-.02,.02-.05,.03-.07,.02-.06,.03-.13,.03-.19,.03-.15,.11-.28,.19-.41,.04-.06,.05-.12,.06-.19,.01-.11,.08-.2,.12-.3,0-.02,.02-.05,.03-.07,.02-.04,.04-.09,.06-.14,.02-.06,.03-.12,.04-.18,0-.02,.01-.05,.02-.07,.02-.04,.03-.09,.05-.14,0-.02,.01-.05,.02-.07,.02-.05,.03-.09,.04-.14,0-.03,.01-.05,.02-.07,.03-.09,.01-.18,.02-.28,0-.04,.01-.09,.02-.13,.04-.13,.02-.27,.03-.4,0-.08,0-.15,.02-.23,.03-.09,.05-.18,.06-.27,0-.03,.01-.06,.02-.09,.02-.3,.04-.61-.02-.91,0-.03-.02-.06-.02-.1-.02-.21,.02-.43-.04-.64-.02-.06-.02-.13-.03-.19,0-.12,.01-.24-.02-.35,0-.03-.01-.05-.02-.08-.01-.09,0-.19-.03-.28,0-.02-.01-.05-.02-.07-.01-.06-.02-.12-.04-.18,0-.02-.02-.05-.02-.07-.01-.06-.03-.12-.05-.17,0-.02-.01-.05-.02-.07,0-.06-.02-.12-.04-.18-.01-.04-.02-.07-.02-.11,0-.05-.02-.11-.06-.15-.03-.03-.06-.05-.08-.09-.02-.02-.03-.04-.04-.07-.05-.14-.1-.28-.13-.42-.01-.06-.02-.12-.06-.17-.04-.05-.07-.1-.1-.16-.03-.05-.05-.09-.07-.14-.04-.07-.07-.14-.11-.22-.01-.02-.02-.05-.03-.08-.14-.26-.21-.56-.44-.77-.02-.02-.04-.05-.05-.07-.23-.35-.45-.7-.76-.99-.02-.02-.04-.04-.05-.07-.29-.37-.67-.63-1.01-.95-.04-.02-.07-.05-.1-.08-.25-.17-.43-.42-.72-.53-.03-.01-.05-.02-.07-.04-.06-.05-.12-.1-.19-.14-.02-.01-.04-.03-.06-.04-.03-.02-.06-.05-.09-.07-.05-.04-.11-.06-.17-.08-.1-.03-.19-.09-.28-.14-.08-.05-.16-.09-.25-.12-.06-.03-.13-.05-.19-.07-.03-.01-.05-.02-.08-.04-.21-.21-.5-.22-.76-.31-.34-.11-.67-.26-1.03-.32-.03,0-.06-.01-.09-.02-.11-.04-.23-.03-.35-.03-.06,0-.12-.01-.18-.02-.14-.05-.28-.03-.42-.05-.03,0-.07-.01-.1-.02-.5-.02-1-.04-1.5,.01-.03,.01-.06,.02-.1,.02-.16,.02-.32,0-.48,.04-.04,.01-.09,.02-.13,.02-.11,0-.23,0-.34,.02-.03,0-.05,.02-.08,.02-.12,.02-.24,.03-.35,.08-.02,.01-.05,.02-.07,.03-.05,.02-.1,.03-.15,.05-.02,0-.05,.02-.07,.02-.05,.01-.1,.03-.14,.05-.02,0-.05,.01-.07,.02-.05,0-.1,.02-.14,.03-.02,0-.05,.02-.07,.02-.05,.01-.09,.03-.14,.04-.02,0-.05,.02-.07,.02-.06,.01-.12,.02-.17,.04-.02,0-.05,.02-.07,.02-.06,.02-.12,.05-.17,.08-.3,.18-.63,.28-.93,.45-.07,.03-.14,.07-.2,.12-.03,.03-.06,.05-.09,.07-.02,.01-.05,.02-.07,.03-.06,.02-.11,.06-.15,.11-.04,.04-.08,.06-.14,.08-.08,.02-.14,.06-.2,.11-.14,.1-.29,.2-.44,.3-.08,.05-.14,.1-.2,.17-.82,.58-1.39,1.39-1.93,2.21-.44,.67-.78,1.41-1,2.2-.3,1.04-.43,2.1-.42,3.18,0,.53,.21,1.03,.23,1.56,0,.22,.14,.41,.14,.64,0,.07-.02,.14-.08,.18Z"/><path class="cls-35" d="M29.33,40.76v-.21c.22,.13,.25,.37,.32,.58,.49,1.39,1.28,2.58,2.36,3.58,.79,.74,1.69,1.35,2.69,1.77,.36,.15,.73,.29,1.11,.39,.13,.06,.26,.1,.4,.13,.03,0,.06,.01,.08,.02,.11,.04,.23,.02,.35,.05,.03,0,.06,.02,.09,.03,.76,.1,1.52,.17,2.29,.09,.43-.05,.86-.09,1.29-.15,.03,0,.06-.01,.09-.02,.14-.02,.28-.05,.41-.1,.02,0,.05-.02,.08-.02,.06-.01,.13-.02,.19-.04,.02,0,.05-.02,.07-.02,.05-.01,.1-.03,.14-.05,.02-.01,.05-.02,.07-.03,.14-.04,.28-.09,.41-.16,.03-.01,.05-.02,.08-.04,.9-.34,1.71-.85,2.44-1.46,.58-.48,1.1-1.04,1.56-1.65,.08-.11,.13-.27,.31-.27v.08c0,.12-.08,.21-.15,.29-.51,.61-1.01,1.24-1.65,1.72-.35,.26-.67,.56-1.05,.76-.32,.17-.61,.41-1,.49-.21,.04-.39,.22-.61,.29-.05,.02-.09,.05-.14,.07-.58,.15-1.14,.36-1.74,.43-.62,.08-1.24,.13-1.86,.11-.72-.02-1.43-.1-2.11-.32-.28-.09-.59-.13-.84-.31-.02-.01-.04-.02-.06-.02-.7-.16-1.28-.55-1.87-.94-.67-.44-1.29-.94-1.82-1.54-.41-.46-.8-.94-1.08-1.51-.1-.21-.25-.4-.37-.61-.21-.37-.31-.79-.49-1.17-.03-.07-.02-.16-.03-.25Z"/><path class="cls-13" d="M24.89,43.87c0,.12,0,.25,0,.37-.08-.12-.08-.25,0-.37Z"/><path class="cls-41" d="M18.42,50.99c-.12,.1-.26,.06-.39,.06-4.78,0-9.57,0-14.35,0-1,0-2,0-3,0-.34,0-.37-.03-.38-.37,0-.35,0-.71,0-1.06-.05-3.64-.03-7.28-.08-10.92-.06-4.64-.02-9.27-.05-13.91,0-.05,0-.1,0-.16,.01-.22,.06-.27,.28-.29,.16,0,.31,0,.47,0,1.21,0,2.41,0,3.62,0,5.5,.07,11,.02,16.51,.07,3.11,.03,6.22,.02,9.33,.05,.38,0,.77,.03,1.15,.04,.12-.04,.24-.01,.36-.02,.1,0,.21-.01,.26,.1,.03,.06,0,.12-.04,.17-.09,.09-.18,.17-.32,.07-.06-.12-.16-.1-.27-.1-1.31,.04-2.62,.03-3.93,0-.52,0-1.04-.04-1.55,0-.53,.05-1.06-.06-1.59-.06-4.03,0-8.05,.02-12.08,0-1.4,0-2.81-.01-4.21-.07-2.46-.09-4.93-.01-7.39-.05-.11,0-.23,0-.34,.04-.15,.07-.11,.21-.11,.33,0,1.13-.03,2.27,0,3.4,.13,3.75-.02,7.5,.07,11.26,.09,3.61,.02,7.21,.05,10.82,0,.44,.04,.48,.48,.48,5.65,0,11.29,0,16.94,0,.18,0,.38-.06,.54,.09Z"/><path class="cls-33" d="M18.42,50.99c-.7,0-1.39,0-2.09,0-5.16,0-10.32,0-15.48,0-.03,0-.06,0-.09,0-.37,0-.39-.01-.39-.38,0-3.31,.05-6.61-.02-9.92-.08-3.9,.02-7.8-.06-11.69-.03-1.39-.01-2.78-.04-4.17,0-.13-.04-.28,.13-.35,.14,.17,.09,.38,.09,.57,0,4.27-.05,8.55,.02,12.82,.06,4.16,.01,8.31,.05,12.47,0,.47,.02,.49,.49,.49,5.62,0,11.23,0,16.85,0,.28,0,.52-.09,.78-.19,.75-.29,1.41-.71,1.96-1.29,.42-.44,.64-1.01,.92-1.55,.09-.2-.04-.37-.07-.55-.01-.1-.02-.21,.04-.3,.12-.06,.14,.04,.16,.11,.05,.16,.1,.32,.11,.49,.03,.27-.03,.5-.19,.73-.19,.28-.34,.59-.5,.89-.07,.12-.16,.22-.26,.31-.29,.26-.59,.52-.89,.78-.09,.08-.18,.14-.29,.18-.41,.19-.82,.37-1.24,.56Z"/><path class="cls-9" d="M31.83,24.83c.05,0,.11,0,.15-.02,.07-.03,.15-.08,.14-.18-.02-.1-.11-.11-.19-.11-.13,0-.26,0-.4-.01,.17-.08,.34-.04,.52-.05,.08,0,.18-.02,.21,.09,.02,.09,.02,.19-.06,.25-.04,.03-.08,.06-.12,.09-.07,.09-.19,.1-.28,.16-.06,.03-.13,.05-.19,.09-.11,.07-.22,.13-.34,.19-1,.56-2.01,1.1-3.02,1.63-1.2,.63-2.39,1.29-3.6,1.92-.94,.49-1.86,1.01-2.79,1.52-1.14,.62-2.29,1.23-3.43,1.86-.88,.49-1.77,.96-2.66,1.44-.86,.47-1.72,.92-2.58,1.39-.96,.53-1.95,1.02-2.9,1.57-.29,.17-.59,.31-.89,.46-.25,.13-.27,.23-.03,.36,.53,.28,1.02,.64,1.54,.94,.16,.09,.38,.15,.38,.4-.1,.08-.2,.05-.29-.01-.35-.25-.75-.43-1.12-.66-.07-.09-.16-.15-.26-.21-.02-.01-.05-.03-.07-.04-.08-.06-.17-.09-.26-.12-.1-.04-.18-.1-.27-.16-.3-.22-.3-.42,.03-.62,.15-.09,.33-.12,.46-.26,.02-.02,.04-.04,.06-.06,.04-.02,.08-.04,.12-.04,.08-.01,.16-.02,.22-.08,.02-.02,.05-.03,.07-.04,.07-.04,.14-.08,.2-.13,.03-.03,.07-.05,.11-.07,.51-.2,.98-.5,1.46-.76,1.18-.63,2.36-1.26,3.53-1.9,.86-.46,1.7-.95,2.56-1.4,1.51-.8,3.01-1.63,4.52-2.44,.65-.35,1.32-.68,1.96-1.08,.41-.26,.86-.46,1.3-.67,.15-.07,.3-.15,.41-.27,1-.57,2.03-1.09,3.04-1.64,.75-.41,1.5-.81,2.25-1.21,.15-.08,.29-.22,.49-.11Z"/><path class="cls-37" d="M21.91,47.36l-.12,.04c-.15-.19-.06-.37,.07-.5,.46-.46,.61-1.08,.88-1.63,.29-.58,.58-1.17,.83-1.77,.3-.73,.69-1.41,.98-2.14,.34-.65,.64-1.32,.94-2,.29-.65,.58-1.31,.98-1.91,.09-.06,.1-.25,.27-.19,.07,.13-.02,.24-.07,.35-.24,.51-.51,1.02-.75,1.53-.29,.65-.57,1.31-.89,1.94-.28,.55-.55,1.11-.79,1.68-.51,1.18-1.13,2.3-1.64,3.47h0c-.16,.42-.24,.88-.69,1.13Z"/><path class="cls-22" d="M31.76,25.02c.07-.13,.19-.13,.31-.13,.11,.07,.24,.11,.27,.26-.08,.45-.29,.85-.49,1.26-.15,.31-.31,.62-.41,.96-.09,.31-.3,.56-.43,.86-.25,.54-.5,1.09-.79,1.61-.13,.23-.22,.49-.32,.74-.11,.28-.26,.54-.35,.82-.05,.16-.15,.32-.24,.47-.15,.27-.26,.56-.4,.83-.19,.23-.32,.48-.38,.77-.02,.1-.03,.24-.19,.23-.13-.33,.06-.6,.21-.84,.32-.53,.54-1.1,.79-1.66,.38-.82,.75-1.64,1.15-2.45,.35-.7,.66-1.41,.98-2.12,.11-.36,.33-.67,.47-1.01,.03-.08,.09-.19,.02-.26-.08-.08-.17,0-.26,.03-.11,.03-.21,.09-.32,.12-.07,.02-.16,.03-.2-.04-.07-.11,.05-.13,.1-.19,.09-.1,.22-.13,.33-.19,.04-.05,.13,0,.17-.06Z"/><path class="cls-12" d="M24.59,41.37c-.01,.2-.09,.39-.19,.55-.28,.46-.47,.97-.69,1.46-.21,.48-.45,.95-.69,1.42-.14,.27-.22,.55-.36,.82-.17,.32-.31,.65-.45,.98-.04,.09-.11,.14-.18,.21-.17,.16-.3,.35-.25,.6l-.02,.14c-.12-.18-.15-.41-.24-.6-.47-.85-1.2-1.5-1.81-2.24-.18-.22-.35-.44-.55-.63-.06-.06-.12-.12-.08-.22,.15-.13,.32-.1,.42,.02,.28,.32,.66,.54,.9,.9,.1,.16,.21,.31,.28,.48,.06,.15,.13,.29,.29,.34,.24,.07,.35,.25,.42,.47,.06,.21,.19,.31,.4,.32,.23,.01,.34-.13,.43-.3,.59-1.23,1.16-2.48,1.73-3.73,.13-.29,.33-.55,.45-.86,.03-.07,.07-.16,.18-.14Z"/><path class="cls-30" d="M21.91,47.36c0-.09,.05-.15,.13-.19,.17-.1,.25-.27,.32-.44,.06-.17,.14-.34,.24-.49,.01,.17,0,.33-.12,.46-.05,.06-.05,.13-.07,.2-.08,.27-.22,.48-.49,.59v-.12Z"/><path class="cls-15" d="M28.17,21.74c.14-.04,.29-.02,.43-.03,.13-.1,.25-.05,.33,.05,.26,.36,.68,.46,1.05,.64,1.17,.56,2.34,1.13,3.52,1.66,.98,.45,1.93,.95,2.92,1.39,.15,.07,.29,.16,.42,.26,.09,.11,.3,.11,.3,.31-.37,0-.64-.26-.96-.39-.33-.14-.64-.34-.99-.44-.22-.06-.38-.24-.59-.33-.55-.24-1.09-.49-1.62-.77-.48-.25-1.01-.41-1.46-.72-.03-.02-.08-.03-.12-.04-.6-.23-1.17-.51-1.75-.8-.26-.13-.52-.26-.78-.37-.08-.04-.15-.08-.2-.14-.13-.17-.3-.24-.5-.27Z"/><path class="cls-30" d="M22.59,46.24c-.01-.12,.05-.22,.1-.32,.18-.37,.35-.74,.53-1.12,.11-.23,.22-.47,.33-.7,.02-.05,.04-.1,.07-.14,.33-.45,.4-1.02,.69-1.48,.24-.4,.4-.84,.61-1.25,.27-.52,.52-1.06,.74-1.6,.22-.55,.53-1.06,.77-1.6,.11-.25,.25-.49,.3-.77v-.05c.28-.55,.48-1.15,.8-1.68,.1-.16,.17-.33,.21-.52,.07-.25,.25-.45,.32-.7,.15-.27,.33-.53,.45-.82,.02-.04,.05-.06,.09-.05-.02,.27-.1,.52-.26,.74-.08,.11-.15,.22-.2,.35-.15,.39-.32,.78-.49,1.17-.04,.08-.09,.16-.14,.24-.16,.24-.29,.5-.35,.79-.01,.06-.02,.13-.05,.18-.2,.28-.3,.61-.47,.9-.05,.09-.11,.18-.15,.28-.26,.62-.65,1.18-.85,1.82-.15,.45-.39,.84-.59,1.26-.28,.59-.51,1.21-.85,1.78-.17,.29-.23,.64-.4,.94-.31,.56-.6,1.13-.84,1.73-.09,.22-.19,.46-.37,.63Z"/><path class="cls-5" d="M37.14,26.02c-.08-.12-.26-.11-.31-.25,.26-.09,.46,.09,.67,.17,.36,.13,.69,.34,1.03,.5,.61,.29,1.2,.61,1.82,.87,.27,.11,.53,.23,.79,.37,.3,.17,.6,.32,.94,.42,.45,.14,.84,.41,1.26,.61,.32,.15,.63,.31,.94,.47,.29,.18,.58,.35,.88,.51,.03,.01,.05,.02,.07,.04,.07,.04,.15,.07,.22,.1,.03,.01,.05,.03,.07,.05v.08c-.31,.04-.52-.16-.75-.29-.28-.16-.56-.31-.87-.4-.32-.09-.59-.3-.88-.44-.66-.32-1.35-.59-2-.94-.43-.23-.88-.41-1.33-.6-.12-.05-.2-.14-.31-.2-.25-.13-.51-.22-.77-.32-.35-.13-.66-.35-.99-.51-.16-.07-.34-.09-.47-.23Z"/><path class="cls-48" d="M50.81,31.76c0,.17,.13,.29,.18,.44-.11,.05-.23,.09-.31,.18-.27-.07-.53-.16-.77-.29-.19-.1-.38-.21-.56-.32-.07-.05-.15-.06-.23-.08-.23-.05-.44-.16-.63-.31-.05-.06-.19-.08-.1-.21,.37,.02,.68,.22,1.01,.37,.26,.12,.51,.27,.77,.4,.26,.13,.28,.11,.27-.18-.01-.26,.08-.32,.33-.23,.05,.07,.09,.13,.04,.22Z"/><path class="cls-5" d="M48.37,31.2l.12,.19c-.32-.16-.67-.27-.99-.44-.26-.14-.52-.29-.82-.37-.3-.08-.53-.28-.8-.41-.13-.06-.31-.06-.39-.23h0s.09-.06,.14-.05c.03,0,.05,.01,.08,.02,.07,.04,.14,.07,.21,.1,.03,.01,.05,.02,.07,.04,.23,.1,.44,.26,.69,.33,.03,0,.05,.02,.08,.03,.08,.06,.17,.08,.26,.1,.03,0,.05,.02,.08,.04,.33,.18,.67,.34,1.01,.5,.03,0,.05,.02,.08,.03,.05,.02,.1,.04,.15,.07l.03,.03Z"/><path class="cls-37" d="M28.58,33.44c-.08,.06-.1,.15-.13,.24-.09,.23-.18,.46-.37,.64l-.03-.03s-.02-.08-.02-.13c0-.03,.02-.05,.03-.08,.08-.1,.12-.22,.16-.34,.02-.04,.05-.07,.1-.06,.13-.15,.17-.35,.24-.53,.07-.19,.16-.36,.33-.47-.03,.17-.16,.28-.22,.43-.04,.1-.11,.2-.1,.32Z"/><path class="cls-1" d="M48.06,54.25c.26-.06,.48-.01,.69,.17,.2,.17,.46,.28,.69,.41,.26,.14,.48,.33,.67,.55,.22,.25,.43,.51,.65,.76,.1,.11,.12,.27,.19,.39,.2,.33,.3,.7,.46,1.05,.07,.15,.08,.32,.08,.49,0,1.13,0,2.27-.02,3.4-.06,2.43-.01,4.87-.06,7.3-.04,1.75-.02,3.49-.06,5.24-.01,.47-.03,.93-.03,1.4,0,.27-.08,.35-.36,.35-1.27,0-2.54,.03-3.81-.02-1.05-.04-2.1-.03-3.15-.03-3.17-.02-6.35,.02-9.52-.03-3.15-.05-6.3-.02-9.45-.04-.37,0-.44-.07-.44-.44,0-.79-.03-1.58,.02-2.37,.12-2.3,.08-4.59,.13-6.89,.04-1.78,0-3.56,.06-5.33,.05-1.47,0-2.93,.06-4.4,.06-1.28,0-2.56,.06-3.83,.07-1.5,0-2.99,.06-4.49,.04-1.32,.04-2.64,.04-3.96,0-.09,0-.19,.02-.28,.03-.14,.12-.16,.23-.08,.22,.29,.41,.59,.51,.94,0,.07,0,.13-.06,.17-.15,.02-.16-.12-.2-.2-.09-.19-.2-.36-.35-.55,0,.38,0,.74,.01,1.1,0,2.94,.04,5.89-.01,8.83-.03,1.41,.02,2.83-.06,4.24-.07,1.34,0,2.68-.06,4.02-.06,1.16,0,2.33-.06,3.49-.09,1.72,.01,3.43-.07,5.14-.06,1.38-.03,2.76-.05,4.15,0,.49,.02,.51,.51,.51,3.99,0,7.99-.05,11.98,.02,4.36,.08,8.72,0,13.07,.05,.63,0,.64,0,.63-.63-.03-2.73,.04-5.47,.08-8.2,.04-2.69,.11-5.38,.11-8.07,0-.44-.06-.86-.22-1.27-.31-.79-.8-1.45-1.41-2.03-.21-.2-.48-.33-.74-.46-.14-.07-.28-.14-.4-.25-.19-.22-.45-.01-.66-.1q-.04-.14,.21-.2Z"/><path class="cls-17" d="M48.06,54.25c-.05,.1-.18,.08-.25,.15-.05,.12-.17,.18-.27,.18-.44,.02-.71,.32-1,.58-.65,.58-1.33,1.12-1.98,1.7-.27,.24-.48,.52-.69,.8-.62,.86-1.32,1.65-1.89,2.54-.33,.51-.61,1.06-.91,1.59-.66,1.15-1.38,2.27-2.07,3.4-.12,.19-.25,.38-.36,.58-.12,.17-.22,.35-.32,.53-.1,.18-.27,.32-.32,.53-.04,.14-.13,.24-.28,.25-.16,0-.29-.07-.36-.21-.1-.2-.21-.4-.31-.61-.81-1.6-1.66-3.18-2.5-4.77-.88-1.65-1.76-3.29-2.63-4.94-.42-.79-.84-1.59-1.25-2.39-.4-.78-.81-1.56-1.25-2.32-.09-.15-.15-.32-.25-.47-.06-.1-.09-.21-.01-.32,.15-.05,.17,.1,.22,.17,.39,.57,.67,1.2,.98,1.8,.89,1.69,1.81,3.36,2.68,5.06,.44,.87,.94,1.71,1.39,2.57,.55,1.05,1.1,2.09,1.66,3.13,.49,.93,.98,1.85,1.46,2.78,.09,.17,.18,.17,.27,.01,.57-1.01,1.22-1.98,1.82-2.97,.4-.66,.78-1.32,1.21-1.96,.2-.3,.34-.64,.52-.96,.43-.76,.94-1.47,1.48-2.15,.44-.55,.84-1.13,1.3-1.67,.26-.32,.6-.54,.9-.81,.56-.51,1.16-.97,1.73-1.48,.3-.27,.69-.36,1.1-.38,.03-.01,.06,0,.09,0l.13,.03Z"/><path class="cls-19" d="M25.72,44.49c-.15-.22-.19-.51-.4-.7-.06-.06-.05-.16-.05-.24l.08-.13c.45,0,.84,.15,1.23,.37,.32,.18,.66,.33,.99,.5,.29,.15,.62,.22,.9,.41,.19,.13,.4,.22,.62,.28,.29,.08,.53,.28,.8,.41,.12,.06,.22,.16,.35,.2,.46,.14,.86,.41,1.3,.59,.63,.26,1.22,.6,1.84,.89,.46,.22,.92,.42,1.39,.62,.32,.14,.62,.32,.92,.5,.13,.08,.29,.12,.4,.24,.37,.1,.68,.32,1.02,.47,.04,.02,.06,.05,.05,.1-.2,.11-.36-.02-.52-.09-.9-.4-1.76-.89-2.67-1.28-.67-.29-1.3-.64-1.96-.96-.93-.44-1.86-.88-2.78-1.34-.94-.47-1.9-.88-2.84-1.35-.13-.06-.31-.21-.43-.08-.12,.14,.03,.31,.11,.45,.23,.43,.35,.91,.64,1.31,.07,.1,.11,.26-.04,.33-.17,.07-.23-.09-.3-.2-.04-.13-.12-.24-.19-.35-.14-.32-.28-.64-.45-.94Z"/><path class="cls-5" d="M47.92,54.22l-.07,.02c-.21,.05-.38-.02-.54-.16-.23-.21-.51-.35-.8-.47-.42-.17-.81-.38-1.2-.59-.23-.12-.46-.23-.71-.31-.12-.04-.31-.04-.27-.26,.08-.02,.16-.03,.24,.02,.18,0,.34,.08,.5,.16,.58,.29,1.16,.59,1.76,.86,.15,.07,.3,.14,.45,.21,.17,.08,.33,.17,.43,.35,.05,.1,.14,.11,.24,.11v.06Z"/><path class="cls-54" d="M56.59,25.59c.25-.25,.57-.39,.89-.53,.11-.05,.22-.11,.33-.17,.66-.38,1.38-.28,2.09-.28,1.63,0,3.27-.02,4.9,0,3.7,.05,7.4,.01,11.1,.03,.47,0,.52,.05,.52,.51,0,5.23-.02,10.46,0,15.69,.02,2.96,0,5.92,.02,8.89,0,.38-.05,.76-.01,1.15,.03,.29-.09,.38-.4,.35-.08,0-.17,0-.25,0-3.07,0-6.13-.05-9.2-.03-2.1,.01-4.2-.07-6.3-.07-1,0-2-.02-2.99-.02-1.75,0-3.49-.02-5.24-.05-1.13-.01-2.26,0-3.4-.04-1.16-.04-2.33-.01-3.49,0-.11,.01-.18-.04-.18-.16,0-.13,.06-.23,.17-.27,.85-.3,1.58-.86,2.41-1.22,.39-.17,.73-.44,1.11-.62,1.13-.54,2.2-1.19,3.33-1.74,.62-.3,1.21-.68,1.83-1,.88-.45,1.75-.91,2.61-1.38,.74-.4,1.48-.8,2.21-1.2,.54-.29,1.08-.57,1.62-.86,.93-.5,1.86-.99,2.79-1.5,.36-.2,.74-.37,1.11-.56,.42-.21,.83-.42,1.23-.66,.72-.44,1.49-.78,2.21-1.2,.33-.19,.33-.35,.02-.56-.86-.61-1.8-1.1-2.7-1.66-.78-.48-1.55-.98-2.35-1.44-.56-.33-1.15-.61-1.71-.95-.56-.34-1.07-.74-1.58-1.15-.41-.34-.85-.63-1.28-.94-.17-.12-.33-.26-.46-.42-.6-.74-1.25-1.44-1.86-2.17-.45-.53-.7-1.15-.58-1.86,.01-.04,.03-.09,.06-.13,0-.01,.02-.03,.03-.04,.05-.06,.07-.13,.1-.2,.02-.07,.02-.14,.08-.18,.12-.1,.18-.24,.23-.38,0-.01,.01-.03,.02-.04,.05-.11,.17-.17,.22-.28,.04-.07,.09-.12,.16-.15,.21-.13,.33-.34,.53-.48Z"/><path class="cls-49" d="M54.98,28.46h.06c.06,.03,.11,.08,.12,.14,.15,.7,.74,1.08,1.15,1.59,.26,.32,.55,.62,.8,.95,.48,.62,1.1,1.06,1.72,1.52,.84,.63,1.64,1.31,2.57,1.81,.55,.3,1.1,.59,1.64,.9,.66,.39,1.31,.79,1.96,1.21,.76,.42,1.48,.91,2.23,1.37,.1,.06,.19,.13,.3,.16,.1,.03,.21,.07,.22,.19,0,.13-.1,.19-.19,.26-.33,.22-.7,.36-1.04,.55-1.07,.6-2.15,1.16-3.24,1.73-1.33,.7-2.64,1.43-3.97,2.14-1.29,.67-2.55,1.39-3.85,2.05-.53,.27-1.05,.58-1.58,.86-.63,.34-1.26,.69-1.89,1.01-.84,.43-1.67,.89-2.5,1.33-1.32,.71-2.62,1.44-3.96,2.1-.09,.04-.17,.12-.29,.09-.1-.16-.22-.11-.35-.05-.1,.05-.2,.12-.31,.02-.11-.1-.09-.23-.05-.35,.13-.37,.32-.72,.48-1.08,.64-1.43,1.31-2.84,2.01-4.24,.42-.84,.81-1.7,1.21-2.55,.5-1.06,1.02-2.1,1.5-3.17,.37-.82,.77-1.63,1.14-2.45,.26-.56,.5-1.13,.82-1.67,.33-.55,.54-1.17,.81-1.75,.43-.92,.9-1.82,1.3-2.75,.2-.47,.46-.9,.64-1.38,.1-.26,.34-.38,.53-.55Z"/><path class="cls-28" d="M45.25,50.4c.67-.34,1.36-.66,2.01-1.03,.59-.34,1.21-.63,1.8-.97,.28-.16,.57-.3,.85-.45,.31-.16,.61-.34,.91-.51,.48-.27,.95-.55,1.45-.77,.51-.23,.97-.55,1.49-.78,.32-.14,.63-.34,.94-.52,.47-.27,.96-.51,1.44-.77,.79-.44,1.6-.83,2.37-1.29,.25-.15,.52-.26,.78-.38,.06-.03,.12-.04,.18-.02,.06,.16-.08,.17-.16,.21-.81,.39-1.59,.85-2.39,1.26-.7,.36-1.38,.75-2.08,1.12-.9,.48-1.78,.98-2.68,1.44-1.08,.55-2.13,1.14-3.22,1.69-.73,.36-1.42,.8-2.15,1.16-.54,.26-1.01,.65-1.6,.81-.14,.04-.23,.18-.38,.26,.08,.07,.19,.04,.25,.12,2.11,0,4.22-.03,6.33,.02,2.82,.06,5.64,0,8.45,.06,1.55,.03,3.1,.01,4.65,.05,3.74,.09,7.49,.04,11.23,.06,.13,0,.27,0,.4,.03,.16,.03,.25-.05,.28-.22,0-.05,0-.1,0-.16,0-8.24,0-16.47,0-24.71,0-.34,0-.69,0-1.03,0-.33-.05-.38-.38-.38-2.09,0-4.18,0-6.27,0-1.2,0-2.39,.02-3.59-.01-2.43-.08-4.87-.02-7.3-.04-.23,0-.45,.02-.65,.16-.11,.08-.25,.1-.39,.08,.36-.26,.75-.33,1.19-.33,5.67,.02,11.34,.02,17.01,.02,.07,0,.15,0,.22,.01,.15,.03,.24,.11,.24,.28,0,.07,0,.15,0,.22,0,5.28-.03,10.56,.02,15.85,.03,2.97,0,5.95,.03,8.92,0,.35-.05,.7,0,1.05,.03,.29-.08,.38-.36,.37-1.13,0-2.27,.01-3.4-.02-3.06-.08-6.11,0-9.17-.07-2.76-.06-5.51,0-8.27-.06-2.02-.05-4.03-.02-6.05-.06-1.48-.03-2.97-.06-4.45-.04-.04,0-.08,0-.12,0-.24-.02-.27-.07-.18-.32,.23-.15,.44-.35,.75-.33Z"/><path class="cls-46" d="M45.25,50.4c-.26,.08-.45,.33-.75,.33-.06-.03-.13-.04-.19,0-.03-.42,.1-.79,.31-1.15,.21-.37,.38-.76,.55-1.14,.18-.39,.35-.8,.54-1.19,.33-.69,.66-1.38,1.01-2.06,.2-.39,.36-.81,.56-1.2,.24-.48,.36-1.02,.67-1.45,.28-.38,.31-.88,.63-1.23,.11-.12,.12-.33,.2-.48,.19-.4,.41-.79,.59-1.2,.37-.84,.77-1.67,1.18-2.49,.04-.07,.06-.15,.09-.23,.08-.26,.15-.51,.34-.72,.03-.04,.06-.09,.07-.14,.13-.45,.36-.86,.62-1.25,.16-.24,.2-.52,.32-.77,.24-.48,.46-.97,.69-1.45,.05-.11,.13-.21,.13-.34,0-.08,.04-.17,.1-.22,.18-.14,.24-.35,.29-.53,.06-.2,.16-.39,.26-.55,.34-.57,.52-1.22,.85-1.79,.17-.3,.32-.6,.54-.86,.09,.04,.13,.1,.12,.19,0,.1,0,.2-.12,.23-.23,.06-.31,.26-.39,.45-.07,.18-.16,.36-.25,.53-.14,.26-.27,.54-.38,.82-.08,.21-.2,.41-.29,.62-.17,.38-.36,.76-.56,1.13-.12,.23-.2,.47-.32,.7-.25,.5-.49,1.01-.7,1.52-.16,.39-.4,.73-.56,1.11,0,.02-.02,.03-.03,.05-.16,.46-.44,.86-.59,1.32-.08,.25-.21,.5-.34,.73-.13,.22-.25,.45-.33,.7-.08,.27-.26,.49-.37,.75-.17,.41-.38,.8-.57,1.19-.19,.4-.38,.8-.58,1.2-.05,.1-.12,.2-.15,.31-.08,.35-.28,.65-.44,.96-.13,.24-.21,.5-.32,.74-.23,.48-.48,.96-.71,1.44-.21,.44-.4,.88-.61,1.31-.22,.44-.42,.9-.64,1.34-.37,.75-.68,1.53-1.05,2.27-.05,.1-.08,.21-.11,.32-.02,.06,0,.13,.06,.17,.06,.05,.12,.02,.16-.03,.1-.12,.24-.11,.37-.11,.16,0,.09,.1,.09,.17Z"/><path class="cls-29" d="M64.97,36.63c-.25-.06-.42-.26-.63-.38-.56-.32-1.1-.68-1.67-1-.67-.37-1.35-.72-1.99-1.13-.42-.27-.79-.59-1.2-.88-.44-.31-.85-.66-1.29-.97-.5-.36-.92-.8-1.29-1.29-.13-.17-.28-.33-.42-.5-.36-.41-.73-.82-1.1-1.23-.12-.13-.22-.27-.23-.46,0-.11-.07-.21-.11-.32,0-.12-.04-.24-.05-.36-.03-.28-.06-.57,.23-.76v.11c-.06,.16-.12,.31-.08,.51,.12,.63,.36,1.18,.81,1.64,.6,.63,1.12,1.33,1.72,1.96,.59,.62,1.33,1.05,2,1.57,.46,.35,.92,.71,1.42,1,.9,.51,1.81,1.01,2.7,1.55,.26,.15,.53,.29,.75,.5,.14,.13,.34,.1,.46,.24,.06,.07,.22,.08,.14,.23-.06,.03-.12,.02-.18-.02Z"/><path class="cls-29" d="M56.59,25.59c-.15,.19-.29,.39-.53,.48,.15-.19,.29-.39,.53-.48Z"/><path class="cls-29" d="M55.67,26.54c0,.18-.06,.31-.23,.38,.05-.14,.14-.27,.23-.38Z"/><path class="cls-29" d="M55.91,26.22c0,.15-.11,.22-.22,.28,0-.15,.12-.21,.22-.28Z"/><path class="cls-29" d="M55.35,27.11c.02,.09,0,.17-.1,.2,0-.09,.03-.16,.1-.2Z"/><path class="cls-54" d="M51.24,17.21v.65c-.05,.11-.03,.23-.03,.34,0,2.72,0,5.44,0,8.16,0,.11,.02,.23-.02,.34v3.26c-.06,.54-.06,1.07-.01,1.61v.13c-.14,.14-.2,.14-.31-.06-.25-.43-.49-.86-.72-1.3-.49-.96-1.01-1.9-1.52-2.85-.43-.8-.82-1.63-1.28-2.41-.63-1.09-1.17-2.24-1.79-3.33-.19-.33-.39-.66-.55-1.01-.06-.39-.32-.69-.5-1.02-.36-.67-.71-1.35-1.07-2.02-.84-1.57-1.62-3.17-2.54-4.7-.05-.44-.38-.73-.57-1.1-.47-.96-.99-1.89-1.51-2.82-.18-.32-.41-.36-.6-.03-.34,.59-.72,1.16-1.08,1.74-.36,.58-.69,1.18-1.07,1.75-.42,.64-.77,1.33-1.15,1.99-.39,.68-.74,1.39-1.24,2-.5,.61-.96,1.25-1.43,1.88-.38,.51-.83,.93-1.31,1.33-.45,.38-.9,.76-1.34,1.16-.51,.45-1.11,.71-1.82,.64-.21,0-.35-.18-.52-.27-.12-.06-.23-.14-.35-.2-.27-.14-.49-.34-.7-.56-.35-.36-.67-.74-.89-1.18-.17-.33-.29-.68-.45-1.01-.08-.16-.08-.34-.07-.52,.06-3.57,.04-7.15,.05-10.72,0-2.14,0-4.28,0-6.42,0-.34,0-.34,.34-.34,.07,0,.15,0,.22,0,.11-.04,.23-.02,.34-.02,8.42,0,16.85,0,25.27,0,.11,0,.23-.03,.34,.03h.01c.06,.13,.04,.24,.01,.36,0,1.42,0,2.84-.01,4.27,0,.29,0,.58,0,.87-.05,.4-.01,.81-.02,1.21-.08,3.1-.06,6.2-.06,9.29,0,.3-.13,.59-.03,.89Z"/><path class="cls-34" d="M50.73,31.57c-.14-.08-.21-.03-.23,.12,0,.08,.03,.14,.06,.2,.03,.07,.07,.13,0,.2-.06,.05-.14,.06-.2,.03-.14-.06-.28-.13-.42-.2-.5-.29-1.02-.52-1.56-.72h0c-.05-.06-.14,0-.19-.06h0c-.37-.19-.75-.37-1.12-.56h0c-.1-.04-.23-.04-.31-.12h0c-.29-.08-.52-.29-.81-.38h0c-.07-.07-.17-.08-.25-.12h0c-.05-.06-.14,0-.19-.06h0c-.1-.05-.21-.07-.31-.13h0c-.32-.16-.58-.42-.94-.5,0,0-.01-.02-.02-.02-.46-.13-.82-.46-1.28-.6-.22-.07-.38-.24-.59-.33-.38-.16-.78-.25-1.13-.47-.45-.29-.96-.46-1.45-.68-.22-.1-.39-.28-.62-.34-.57-.16-1.03-.56-1.58-.76-.25-.09-.5-.19-.75-.28-.17-.04-.3-.17-.45-.25-.29-.15-.6-.28-.9-.4-.29-.12-.59-.24-.84-.44-.05-.04-.11-.07-.16-.09-.33-.09-.62-.27-.92-.42-.42-.21-.85-.39-1.27-.58-.63-.29-1.23-.64-1.88-.89-.41-.16-.77-.44-1.2-.57-.12-.04-.21-.14-.27-.25-.08-.14-.18-.19-.33-.17v-.06s.03-.06,.06-.07c.86-.26,1.38-.97,2.04-1.5,.33-.27,.66-.54,.97-.83,.62-.58,1.06-1.31,1.59-1.95,.81-.99,1.42-2.09,2.04-3.19,.31-.55,.65-1.09,.97-1.63,.53-.89,1.09-1.76,1.61-2.66,.14-.23,.31-.44,.43-.68,.09-.19,.23-.19,.36-.03,.17,.21,.31,.44,.43,.68,.62,1.25,1.3,2.48,1.97,3.71,.37,.67,.73,1.35,1.09,2.03,.29,.56,.59,1.12,.91,1.67,.25,.44,.48,.9,.73,1.34,.49,.87,.9,1.77,1.43,2.61,.04,.06,.06,.13,.1,.2,.61,1.11,1.2,2.22,1.8,3.33,.71,1.31,1.4,2.62,2.11,3.94,.35,.65,.71,1.28,1.03,1.94,.13,.27,.32,.51,.44,.78,.03,.08,.14,.15,.04,.24Z"/><path class="cls-50" d="M45.25,21.34c-.07-.13-.14-.25-.23-.36-.19-.25-.3-.54-.43-.82-.11-.24-.26-.45-.38-.68-.25-.47-.49-.95-.76-1.41-.24-.43-.42-.9-.71-1.3-.07-.09-.09-.21-.15-.31-.27-.49-.56-.96-.8-1.47-.22-.47-.53-.89-.71-1.38-.06-.15-.17-.28-.25-.42-.16-.28-.28-.58-.45-.85-.24-.36-.38-.78-.63-1.14-.17-.24-.27-.53-.41-.8-.23-.42-.4-.88-.7-1.27-.03-.04-.07-.08-.1-.12-.01-.01-.04-.01-.06-.02,0,0-.02,0-.03,.01-.41,.7-.87,1.38-1.26,2.09-.16,.29-.38,.54-.54,.83-.18,.34-.39,.66-.58,.99-.14,.25-.26,.53-.43,.75-.33,.44-.52,.96-.83,1.41-.15,.23-.28,.48-.42,.72-.23,.42-.51,.8-.82,1.17-.33,.39-.62,.81-.91,1.22-.48,.66-1.06,1.22-1.69,1.73-.25,.2-.48,.43-.72,.64-.3,.26-.59,.52-.9,.77-.21,.17-.48,.23-.75,.3l-.2-.07c-.01-.07,.04-.09,.09-.1,.63-.15,1.1-.56,1.55-.99,.55-.52,1.17-.95,1.7-1.5,.56-.58,.98-1.26,1.48-1.87,.6-.72,1.12-1.5,1.55-2.32,.36-.7,.76-1.38,1.16-2.05,.41-.69,.83-1.38,1.26-2.07,.33-.53,.69-1.06,.99-1.61,.07-.13,.15-.29,.34-.27,.18,.02,.24,.16,.32,.3,.45,.79,.86,1.61,1.29,2.41,.28,.53,.59,1.04,.83,1.59,.25,.36,.43,.75,.63,1.14,.31,.6,.66,1.17,.96,1.77,.26,.51,.55,.99,.79,1.51,.44,.82,.86,1.65,1.32,2.47,.02,.09,.08,.15,.13,.22,.08,.17,.17,.35,.22,.53,.04,.11,.1,.2,.17,.28,.09,.1,.13,.2,.04,.33Z"/><path class="cls-51" d="M40.94,13.11c-.34-.53-.6-1.1-.9-1.65-.34-.62-.68-1.23-.98-1.87-.09-.19-.19-.37-.29-.55-.14-.25-.31-.26-.46-.01-.35,.56-.68,1.13-1.03,1.69-.19,.3-.37,.6-.55,.9-.39,.68-.81,1.34-1.21,2.02-.54,.93-1,1.9-1.65,2.77-.46,.62-.95,1.23-1.41,1.85-.27,.36-.55,.7-.88,1-.37,.33-.75,.65-1.13,.97-.24,.2-.47,.41-.69,.62-.36,.34-.76,.56-1.23,.68-.04,0-.07,.03-.11,.05-.21-.02-.42,.06-.62-.04,.54,.01,1-.24,1.46-.45,.12-.06,.22-.15,.32-.25,.51-.51,1.08-.94,1.62-1.4,.33-.28,.64-.59,.91-.94,.42-.55,.85-1.09,1.25-1.66,.33-.46,.77-.84,.95-1.4,.03-.08,.12-.15,.16-.23,.26-.47,.5-.95,.78-1.41,.39-.62,.66-1.31,1.14-1.87,.08-.1,.14-.23,.19-.35,.07-.19,.19-.34,.3-.5,.16-.23,.32-.45,.4-.72,0-.03,.02-.06,.04-.08,.37-.4,.58-.9,.87-1.35,.1-.15,.2-.23,.38-.21,.16,.02,.24,.13,.32,.27,.26,.48,.51,.97,.8,1.44,.1,.17,.17,.35,.25,.52,.13,.26,.3,.49,.41,.76,.12,.3,.31,.57,.5,.84,.09,.13,.11,.26,.11,.41,.03,.05,.03,.09,0,.14Z"/><path class="cls-32" d="M45.25,21.34c.01-.13,0-.24-.1-.33-.08-.08-.12-.18-.15-.29,.02-.02,.04-.03,.07,0,.05,.15,.17,.25,.25,.39,.27,.51,.55,1.01,.82,1.52,.29,.58,.62,1.14,.89,1.72,.13,.28,.32,.53,.46,.8,.24,.49,.52,.96,.75,1.45,.08,.16,.22,.28,.27,.45,.08,.26,.23,.48,.36,.71,.42,.77,.82,1.55,1.25,2.32,.15,.27,.27,.55,.44,.81,.14,.22,.25,.47,.36,.72,.05,.11,.12,.2,.26,.08,.09,.12,.05,.23-.03,.34-.15-.06-.21-.21-.34-.28l-.09-.2c-.08-.17-.15-.36-.26-.52-.3-.48-.54-1-.81-1.5-.25-.46-.48-.93-.75-1.38-.15-.25-.24-.53-.41-.77-.28-.41-.49-.86-.7-1.3-.18-.37-.4-.72-.59-1.08-.25-.48-.51-.96-.77-1.44-.33-.59-.68-1.18-.96-1.81-.07-.15-.21-.26-.24-.43Z"/><path class="cls-32" d="M51.35,.31c-.96,0-1.91,0-2.87,0-7.59,0-15.18,0-22.77,0-.1,0-.21,0-.31-.01,.13-.08,.26-.04,.4-.04,7.19,0,14.39,0,21.58,0,1.22,0,2.43,0,3.65,0,.11,0,.23-.05,.32,.06Z"/><path class="cls-32" d="M51.24,17.21c-.11-.21-.06-.43-.03-.64,.02-.13,.03-.27,.03-.4,0-2-.03-4.01,.02-6.01,.03-1.38,.03-2.76,.05-4.14,0-.07-.01-.15,.05-.21,0,.61,.02,1.23,0,1.84-.07,2.93-.05,5.86-.07,8.78,0,.26-.04,.52-.06,.77Z"/><path class="cls-32" d="M51.19,26.7c0-.1-.01-.21-.01-.31,0-2.72,0-5.45,.01-8.17,0-.12-.04-.25,.05-.36,0,.74,0,1.48,0,2.21,0,2.1,0,4.2-.01,6.3,0,.11,.04,.23-.04,.33Z"/><path class="cls-32" d="M51.17,31.57s-.03-.03-.04-.05c-.03-.5-.03-1.01,0-1.51,0-.02,.02-.03,.04-.05,0,.54,0,1.07,0,1.61Z"/><path class="cls-32" d="M51.38,.68V.32c.09,.11,.06,.23,0,.35Z"/><path class="cls-43" d="M44.57,52.48h-.25c-.43-.09-.82-.27-1.2-.49-.28-.16-.57-.3-.87-.41-.38-.14-.73-.35-1.09-.52-.91-.43-1.79-.91-2.72-1.3-.38-.16-.78-.3-1.11-.56-.08-.06-.2-.08-.19-.22-.31-.19-.63-.36-.96-.5-.04-.02-.07-.03-.1-.07,.15-.02,.28,.05,.41,.11,.66,.33,1.35,.62,2,.99,.05,.03,.12,.05,.18,.06,.33,.06,.59,.27,.89,.41,.37,.17,.73,.37,1.11,.51,.21,.08,.4,.21,.6,.32,.55,.29,1.12,.55,1.7,.8,.13,.06,.25,.15,.38,.21,.14,.07,.28,.15,.42,.2,.22,.07,.44,.14,.59,.32,.05,.07,.16,.04,.21,.12Z"/><path class="cls-44" d="M33.22,30.15s.1,0,.12-.06c.05-.07,.12-.09,.19-.13,.01,0,.03,0,.04-.02,.32-.11,.6-.31,.9-.46,.47-.24,1-.31,1.48-.51,.98-.31,1.99-.37,3.01-.32,.48,.02,.96,.1,1.44,.18,.41,.13,.81,.3,1.24,.38,.19,.03,.33,.17,.5,.23h0c.05,.06,.14,.01,.19,.06,.09,.02,.18,.06,.25,.12,.09,.09,.18,.18,.31,.2,.03,0,.05,.02,.07,.03,.05,.04,.11,.06,.16,.1h0c.09,.06,.16,.13,.25,.19h0c.31,.13,.51,.42,.82,.56l.06,.06c.33,.36,.74,.63,1.06,1h0c.3,.33,.53,.72,.81,1.06h0c.24,.25,.32,.59,.5,.88h0c.05,.08,.04,.19,.14,.24,.05,.03,.05,.08,.06,.13,.02,.12,.11,.21,.14,.32,.04,.17,.1,.34,.17,.49h0c.04,.09,.14,.13,.15,.24,0,.03,0,.07,0,.1,.08,.53,.28,1.04,.31,1.58,.03,.71,.1,1.42,0,2.13-.06,.47-.11,.94-.23,1.4-.06,.13-.04,.28-.1,.41h0c-.04,.14-.16,.24-.17,.39-.07,.27-.27,.49-.3,.78-.04,.09-.08,.19-.15,.27-.01,.04,0,.1-.06,.13-.1,.14-.21,.27-.24,.44-.49,.88-1.17,1.61-1.93,2.26-.67,.58-1.41,1.09-2.25,1.4-.13,.05-.23,.15-.36,.17-.48,.1-.92,.33-1.4,.4-.91,.14-1.83,.27-2.75,.15-.29-.04-.58-.03-.87-.07-.5-.08-.98-.24-1.46-.39-.56-.16-1.08-.4-1.57-.7-1-.61-1.91-1.31-2.64-2.25-.56-.72-1.04-1.5-1.36-2.36-.23-.62-.5-1.22-.55-1.89-.08-.56-.23-1.12-.16-1.69,.1-.84,.14-1.68,.39-2.51,.23-.78,.55-1.53,.97-2.2,.54-.86,1.15-1.7,2-2.31,.03-.02,.05-.04,.07-.07,.03-.04,.05-.07,.1-.09,.19-.11,.38-.22,.55-.37,.03-.05,.07-.08,.13-.1Z"/><path class="cls-16" d="M29.21,39.49c.09,.2,.1,.41,.17,.62,.09,.28,.18,.56,.28,.84,.08,.22,.15,.45,.24,.66,.16,.36,.3,.72,.5,1.06,.18,.3,.41,.57,.62,.85,.41,.56,.88,1.08,1.44,1.5,.53,.4,1.05,.8,1.65,1.1,.21,.11,.43,.21,.62,.35,.07,.05,.15,.07,.23,.07,.24,0,.45,.06,.65,.18,.16,.09,.32,.15,.5,.14,.04,0,.09-.01,.12,.01,.24,.19,.55,.13,.81,.15,.56,.06,1.11,.12,1.68,.08,.47-.04,.95-.05,1.42-.14,.41-.08,.84-.13,1.22-.35,.14-.08,.3-.07,.46-.07,.02,.02,.02,.03,.02,.04,0,.01-.01,.02-.02,.02h0c-.16,.07-.34,.1-.5,.19h0c-.05,.05-.14,0-.19,.06h0c-.07,.06-.18,0-.25,.06h0c-.14,.06-.29,.07-.43,.13h0c-1.27,.22-2.54,.29-3.81,.07h0c-.11-.09-.26,.01-.37-.07h0c-.14-.07-.29-.07-.44-.12-.21-.05-.43-.08-.61-.21-.06-.04-.13-.06-.2-.07-.56-.1-1.02-.43-1.51-.71-.25-.14-.48-.33-.71-.5-.67-.47-1.25-1.02-1.75-1.67-.23-.29-.48-.58-.66-.9-.25-.47-.54-.93-.72-1.44-.1-.29-.22-.58-.33-.87-.02-.21-.18-.39-.13-.61-.03-.15-.05-.3,0-.45Z"/><path class="cls-36" d="M29.21,39.49v.45c-.12-.19-.05-.41-.11-.61-.19-.61-.15-1.25-.15-1.88,0-.15,.05-.29,.07-.43,.05-.37,.09-.74,.16-1.11,.11-.59,.3-1.16,.55-1.71,.18-.41,.4-.79,.6-1.18,.13-.26,.34-.47,.5-.71,.22-.32,.47-.64,.74-.92,.25-.26,.53-.5,.83-.7,.04-.03,.09-.04,.13,0-.22,.21-.44,.43-.67,.64-.4,.35-.72,.76-1.01,1.21-.07,.1-.15,.2-.23,.29-.32,.35-.44,.81-.65,1.21-.34,.64-.51,1.35-.7,2.04-.03,.11-.04,.23-.04,.34,0,.33-.07,.66-.1,.99-.04,.49-.11,.99,.06,1.48,.07,.19,.03,.39,.04,.59Z"/><path class="cls-14" d="M41.82,46.61v-.06c.27-.21,.6-.27,.89-.44,.69-.4,1.34-.84,1.93-1.39,.4-.38,.77-.78,1.12-1.21,.15-.19,.34-.37,.41-.61,.02-.07,.07-.12,.14-.16,.02-.03,.05-.03,.07,0,0,.17-.22,.24-.2,.42-.24,.25-.42,.54-.65,.79-.44,.48-.87,.97-1.41,1.35-.27,.19-.51,.42-.8,.58-.35,.19-.67,.45-1.07,.55-.15,.04-.25,.2-.42,.17Z"/><path class="cls-21" d="M47.3,40.37c0-.08,0-.17,.02-.25,.32-1.06,.25-2.15,.22-3.23-.01-.45-.17-.87-.26-1.3-.03-.15-.05-.31-.04-.46,.02-.03,.04-.03,.06,0v.12c.06,.06,.01,.14,.07,.19,0,.02,0,.04,0,.05,.05,.06,0,.14,.06,.2h0c.07,.07-.01,.18,.07,.25h0c.07,.09-.02,.22,.06,.31,0,.02,0,.03,0,.05,.06,.12-.02,.27,.05,.39v.18c.08,.23-.02,.47,.07,.69,0,.02,0,.04,0,.06,.04,.34,.05,.67,0,1.01h0c-.07,.07,0,.18-.06,.26v.24c-.08,.14,0,.3-.06,.45v.11c-.08,.09,0,.22-.07,.31h0c-.06,.05,0,.14-.06,.19h0c-.06,.05-.01,.14-.06,.19h0s-.03,.03-.06,.02l-.02-.03Z"/><path class="cls-36" d="M40.44,28.9c-.42-.05-.84-.1-1.26-.15-.53-.06-1.05-.03-1.58-.01-.59,.02-1.14,.2-1.71,.28l-.03-.02s0-.04,.02-.05h0c.05-.05,.14,0,.19-.06h0c.14-.07,.3-.07,.44-.12h0c.12-.07,.26,.02,.38-.06h.11c.17-.08,.35,.02,.51-.07,.02,0,.03,0,.05,0,.55-.04,1.09-.04,1.64,0h0c.14,.09,.3,0,.45,.06h.18c.12,.08,.26,0,.38,.06h0c.05,.1,.24-.05,.25,.14Z"/><path class="cls-36" d="M35.89,29.02c-.17,.11-.35,.17-.54,.21-.52,.11-.99,.33-1.43,.62-.11,.07-.22,.12-.35,.09,0-.03,.03-.05,.06-.06,.07-.03,.15-.06,.19-.14,.31-.22,.67-.31,1-.48,.06-.05,.14,0,.19-.06h0c.07-.06,.18,.02,.25-.06h0c.05-.05,.14,0,.19-.06h0c.05-.05,.14,0,.19-.06,.02,0,.03-.01,.05,0,.06-.03,.13-.03,.19,0h0Z"/><path class="cls-21" d="M40.44,28.9c-.05-.11-.2-.03-.25-.14,.34-.02,.63,.18,.95,.25,.17,.04,.32,.12,.5,.14,.19,.03,.37,.11,.49,.29-.02,0-.05,.01-.06,0-.36-.21-.8-.21-1.17-.4-.15-.07-.34,0-.46-.16Z"/><path class="cls-21" d="M45.31,31.76c-.37-.32-.77-.6-1.06-1,.04,.01,.09,.02,.11,.04,.29,.26,.57,.52,.85,.78,.05,.05,.11,.1,.09,.19Z"/><path class="cls-21" d="M46.13,32.82c-.1-.04-.17-.12-.22-.2-.16-.25-.32-.5-.53-.71-.04-.04-.06-.08-.05-.14,.37,.28,.61,.65,.81,1.06Z"/><path class="cls-21" d="M39.2,28.64c-.54,0-1.09,0-1.64,0,.03-.01,.05-.04,.08-.04,.49-.03,.99-.03,1.48,0,.03,0,.05,.03,.08,.05Z"/><path class="cls-21" d="M44.2,30.69s-.09,0-.12-.02c-.24-.18-.49-.33-.7-.54,.14-.04,.24,.07,.33,.13,.17,.13,.33,.28,.49,.42Z"/><path class="cls-21" d="M46.62,33.7c-.13-.13-.23-.27-.26-.45-.03-.17-.23-.24-.23-.43,.31,.21,.39,.55,.5,.88Z"/><path class="cls-36" d="M33.14,30.26c-.15,.17-.35,.28-.56,.38-.04-.02-.04-.05-.01-.08,.12-.13,.28-.21,.43-.3,.05-.02,.09-.03,.13,0Z"/><path class="cls-21" d="M46.74,41.92c.01-.31,.21-.54,.31-.81l.03,.03c0,.06,.01,.12-.02,.18-.07,.14-.16,.27-.19,.42-.06,.05-.01,.14-.06,.19h0s-.03,.03-.06,.02l-.02-.03Z"/><path class="cls-14" d="M47.69,38.63v-1.01c.09,.34,.09,.67,0,1.01Z"/><path class="cls-14" d="M47.68,37.56c-.13-.22-.04-.46-.06-.69,.11,.22,.04,.46,.06,.69Z"/><path class="cls-21" d="M47.12,34.88c-.14-.13-.16-.31-.2-.49l.02-.03s.04,0,.06,.02c.03,.17,.15,.32,.13,.5Z"/><path class="cls-21" d="M46.38,42.74h-.07c.01-.19,.1-.33,.26-.43,0,.17-.17,.27-.19,.43Z"/><path class="cls-21" d="M42.94,29.89c-.16-.03-.3-.1-.37-.26,.13,0,.19,.13,.31,.14,.04,.03,.1,.05,.06,.12Z"/><path class="cls-21" d="M36.51,28.76c-.13,.09-.28,.11-.44,.12,.12-.12,.28-.13,.44-.12Z"/><path class="cls-21" d="M37.51,28.64c-.16,.12-.34,.04-.51,.06,.16-.09,.34-.05,.51-.06Z"/><path class="cls-21" d="M47.05,41.11c0-.16,.1-.26,.2-.37,.06,.16-.11,.24-.12,.37-.02,.03-.04,.03-.06,0h-.01Z"/><path class="cls-21" d="M39.64,28.7c-.15-.01-.31,.06-.45-.06,.15,0,.31-.02,.45,.06Z"/><path class="cls-14" d="M47.57,39.57c.01-.15-.06-.31,.05-.45,0,.15,.03,.31-.05,.45Z"/><path class="cls-21" d="M47.25,40.75c0-.13-.03-.26,.05-.38h.01c.04,.1,.03,.18,0,.27,0,.05-.01,.09-.07,.11Z"/><path class="cls-21" d="M36.89,28.7c-.11,.11-.25,.05-.38,.06,.11-.09,.25-.05,.38-.06Z"/><path class="cls-21" d="M40.2,28.76c-.13-.01-.26,.05-.38-.06,.13,0,.26-.03,.38,.06Z"/><path class="cls-21" d="M46.93,34.39c-.09-.09-.13-.2-.11-.33,.07,.02,.06,.11,.12,.14,.05,.06,.04,.11,0,.17h-.02Z"/><path class="cls-21" d="M43.38,30.14c-.13,0-.19-.09-.25-.19,.13,0,.2,.08,.25,.19Z"/><path class="cls-14" d="M47.62,36.69c-.1-.12-.04-.26-.05-.39,.08,.12,.05,.26,.05,.39Z"/><path class="cls-14" d="M47.5,40c.01-.11-.04-.22,.06-.31,0,.11,.03,.22-.06,.31Z"/><path class="cls-21" d="M46.76,33.94c-.13-.03-.15-.13-.14-.24,.09,.05,.13,.14,.14,.24Z"/><path class="cls-21" d="M46.63,42.19c-.02-.11,.01-.2,.11-.26h.01c.06,.12-.03,.18-.07,.25-.02,0-.04,0-.06,0Z"/><path class="cls-14" d="M46.68,42.18l.07-.24s.04,0,.06,0c0,.1-.02,.2-.13,.24Z"/><path class="cls-14" d="M47.56,36.25c-.1-.09-.05-.21-.06-.31,.09,.09,.05,.21,.06,.31Z"/><path class="cls-14" d="M47.32,40.63v-.26s.04,0,.06,0c0,.09,0,.18-.06,.26Z"/><path class="cls-21" d="M33.53,29.96c-.03,.09-.1,.13-.19,.13,.02-.1,.08-.15,.19-.13Z"/><path class="cls-14" d="M47.63,38.88c0-.09-.04-.19,.06-.26,0,.09,.02,.19-.06,.26Z"/><path class="cls-14" d="M47.5,35.94c-.09-.06-.06-.16-.07-.25,.08,.07,.06,.16,.07,.25Z"/><path class="cls-21" d="M35.26,29.13c-.06,.1-.16,.06-.25,.06,.07-.07,.16-.06,.25-.06Z"/><path class="cls-14" d="M42.94,29.89l-.06-.12c.09,0,.14,.05,.19,.12-.04,.04-.09,.04-.13,0h0Z"/><path class="cls-21" d="M47.24,35.08c-.07-.05-.14-.1-.11-.2l.12,.07s.04,.09,0,.14Z"/><path class="cls-21" d="M33.82,29.74c-.02,.11-.09,.15-.19,.14,.05-.07,.12-.11,.19-.14Z"/><path class="cls-21" d="M32.57,30.55v.08l-.05,.06h-.13c.04-.07,.11-.11,.18-.14Z"/><path class="cls-21" d="M33.14,30.26h-.13c.06-.07,.11-.14,.21-.11l-.08,.11Z"/><path class="cls-14" d="M47.37,35.44c-.07-.05-.06-.12-.06-.19,.06,.05,.06,.12,.06,.19Z"/><path class="cls-14" d="M47.07,41.13s.04,0,.06,0c0,.07,0,.14-.06,.2v-.19Z"/><path class="cls-14" d="M46.81,41.94c0-.07-.01-.14,.06-.19,0,.07,0,.14-.06,.19Z"/><path class="cls-14" d="M47.38,40.38c0-.07-.02-.14,.06-.19,0,.07,0,.14-.06,.19Z"/><path class="cls-21" d="M42.94,29.89h.13s.05,.03,.06,.06c-.07,0-.14,0-.19-.06Z"/><path class="cls-21" d="M36.07,28.88c-.04,.08-.12,.07-.19,.06,.05-.06,.12-.06,.19-.06Z"/><path class="cls-14" d="M47.44,40.19c0-.07-.01-.14,.06-.19,0,.07,0,.14-.06,.19Z"/><path class="cls-21" d="M35.88,29.01h-.19c.05-.05,.12-.06,.2-.06,0,.02,0,.04,0,.06Z"/><path class="cls-14" d="M46.94,34.38v-.17c.06,.04,.06,.11,.06,.18-.02,0-.04,0-.06,0Z"/><path class="cls-21" d="M35.64,29.02c-.05,.07-.12,.06-.19,.06,.05-.06,.12-.06,.19-.06Z"/><path class="cls-21" d="M35.45,29.07c-.04,.08-.12,.07-.19,.06,.05-.07,.12-.06,.19-.06Z"/><path class="cls-14" d="M47.24,35.08v-.14c.08,.04,.07,.12,.07,.18h-.06s0-.03,0-.05Z"/><path class="cls-21" d="M42.32,29.51c-.07,.01-.15,.02-.19-.06,.07-.01,.15-.02,.19,.06Z"/><path class="cls-14" d="M47.43,35.69c-.07-.05-.06-.12-.06-.2,.06,.05,.06,.12,.06,.2Z"/><path class="cls-21" d="M35.01,29.2c-.05,.08-.12,.07-.19,.06,.05-.06,.12-.06,.19-.06Z"/><path class="cls-14" d="M36.63,47.12c.36,.03,.72,.04,1.08,.08,.16,.02,.3,.04,.46,0,.06-.02,.12-.02,.18-.02,.59,.06,1.17-.02,1.75-.12,.11-.02,.23,0,.34,0-.3,.12-.62,.15-.93,.18-.69,.05-1.38,.14-2.07,.02-.23-.04-.48,0-.71-.07-.04-.01-.07-.04-.1-.06Z"/><path class="cls-14" d="M41.32,46.8c.14-.14,.32-.16,.5-.19-.14,.13-.32,.17-.5,.19Z"/><path class="cls-14" d="M35.83,46.92c.16,0,.32-.01,.44,.12-.16,.01-.31-.03-.44-.12Z"/><path class="cls-14" d="M40.44,47.05c.13-.1,.28-.13,.43-.13-.13,.1-.27,.14-.43,.13Z"/><path class="cls-14" d="M36.26,47.05c.13,.01,.26-.04,.37,.07-.13-.01-.26,.04-.37-.07Z"/><path class="cls-14" d="M40.88,46.92c.07-.08,.16-.06,.25-.06-.07,.08-.16,.06-.25,.06Z"/><path class="cls-14" d="M41.13,46.86c.05-.07,.12-.07,.19-.06-.05,.07-.12,.07-.19,.06Z"/><path class="cls-54" d="M9.62,36.71s0,.02-.01,.03c-.12,.09-.25,.15-.39,.19-.19,.06-.35,.16-.4,.35-.05,.19,.17,.24,.27,.34,.04,.04,.08,.06,.13,.09,.08,.05,.16,.11,.27,.13,.03,.01,.05,.03,.07,.05,.53,.36,1.09,.66,1.64,.99,.56,.35,1.13,.69,1.69,1.04,.95,.59,1.97,1.07,2.92,1.67,.5,.31,.99,.63,1.44,1.02,.27,.23,.56,.43,.85,.63,.61,.41,1.11,.93,1.6,1.47,.24,.39,.51,.75,.86,1.05,.08,.06,.15,.13,.21,.21,.09,.18,.24,.3,.38,.43,.03,.03,.05,.07,.07,.11,.23,.38,.25,.83,.44,1.23,0,.05,0,.11-.02,.15-.23,.37-.43,.75-.63,1.14-.07,.14-.17,.26-.29,.37-.32,.27-.62,.54-.95,.81-.09,.08-.19,.15-.33,.17-.07,0-.15,.04-.2,.08-.25,.21-.59,.24-.86,.42-.12,.08-.26,.05-.4,.05-3.06,0-6.12,0-9.17,0-2.65,0-5.31,0-7.96,0q-.42,0-.42-.41c0-3.82,.04-7.63-.02-11.45-.08-4.73-.02-9.46-.05-14.19,0-.14,0-.27,0-.41,1.51,0,3.01,0,4.52,0,.43,0,.85,0,1.28,0,1.65,0,3.3,.03,4.95,.07,4.01,.09,8.02,.02,12.03,.05,.58,0,1.17-.02,1.75,.01,.4,.02,.81,.06,1.21,.04,.31-.01,.62-.07,.93-.05,1.23,.11,2.47,.03,3.71,.05,.31,0,.62,.03,.93-.04,.18-.04,.21,.02,.14,.23-.31,.04-.55,.23-.81,.37-.7,.37-1.39,.78-2.1,1.14-.45,.22-.87,.5-1.33,.7-.38,.16-.72,.4-1.08,.59-.14,.07-.28,.14-.42,.2-.57,.3-1.17,.57-1.72,.9-.76,.45-1.57,.83-2.33,1.29-.46,.27-.96,.48-1.42,.75-.62,.35-1.25,.69-1.88,1.02-.72,.38-1.43,.78-2.15,1.15-.73,.38-1.45,.78-2.16,1.21-.42,.25-.87,.46-1.31,.68-.44,.23-.85,.5-1.31,.7-.49,.22-.93,.54-1.42,.78-.29,.08-.52,.26-.77,.4Z"/><path class="cls-7" d="M21.15,46.49l-.06-.06c-.11-.16-.27-.28-.38-.44-.08-.04-.14-.11-.18-.19-.32-.33-.6-.69-.88-1.06-.24-.2-.46-.41-.65-.67-.07-.1-.16-.19-.27-.26-.51-.32-.93-.76-1.46-1.05-.09-.05-.15-.14-.23-.21-.1-.11-.21-.2-.36-.24-.09-.02-.15-.07-.2-.14-.06-.09-.14-.14-.25-.18-.05-.01-.1-.04-.13-.07-.35-.31-.77-.52-1.18-.73-.26-.13-.5-.29-.75-.43-.47-.27-.94-.51-1.4-.8-.45-.28-.93-.53-1.37-.83-.41-.29-.89-.46-1.27-.8-.06-.06-.15-.07-.22-.11-.18-.08-.36-.17-.46-.35,.04-.04,.08-.04,.13,0h0c.09,.08,.19,.15,.31,.19,.12,.16,.33,.17,.49,.28,.18,.14,.41,.23,.59,.37,.08,.06,.18,.1,.29,.09,.13-.06,.22,.03,.31,.09,.91,.58,1.86,1.1,2.78,1.66,.54,.32,1.13,.57,1.65,.92,.97,.65,1.88,1.4,2.83,2.08,.09,.1,.21,.17,.27,.3,.14,.27,.37,.46,.56,.69,.35,.42,.72,.82,1.08,1.23,.18,.21,.36,.43,.55,.63,.14,.15,.21,.33,.22,.53v.3c-.22-.16-.15-.46-.32-.65-.03-.03-.03-.07-.06-.1Z"/><path class="cls-8" d="M21.15,46.49c.17,.08,.2,.25,.25,.41,.04,.12,.05,.24,.13,.34,.07,.16,.14,.32,.13,.5-.13-.05-.15-.18-.17-.28-.08-.33-.25-.64-.33-.97Z"/><path class="cls-12" d="M18.86,43.6c-.1,0-.17-.06-.25-.12-.61-.45-1.21-.9-1.82-1.36-.21-.15-.4-.32-.62-.46-.47-.31-.98-.58-1.48-.85-.38-.2-.75-.43-1.13-.65-.32-.19-.66-.35-.97-.56-.35-.24-.71-.46-1.08-.67-.07-.04-.14-.08-.22-.12-.07-.17-.23-.24-.38-.31-.37-.17-.67-.46-1.03-.64-.21-.11-.41-.24-.62-.35-.09-.05-.21-.1-.19-.22,.02-.1,.11-.18,.21-.21,.3-.1,.55-.29,.83-.42,.29-.14,.56-.34,.86-.47,.26-.11,.48-.28,.75-.38,.08-.03,.15-.07,.22-.11,.47-.26,.93-.52,1.4-.78,.49-.27,.98-.52,1.47-.8,.45-.26,.93-.5,1.39-.75,.55-.3,1.12-.58,1.66-.89,.38-.22,.77-.42,1.16-.64,.58-.33,1.19-.63,1.77-.96,.54-.3,1.09-.58,1.63-.88,.36-.2,.73-.4,1.09-.59,.32-.17,.65-.3,.95-.52,.29-.21,.64-.33,.96-.5,.26-.13,.5-.29,.75-.43,.22-.12,.43-.24,.65-.36,.34-.18,.67-.37,1.02-.54,.45-.21,.86-.49,1.3-.71,.6-.3,1.18-.63,1.77-.94,.11-.06,.21-.13,.34-.15,0,.06-.09,.09-.06,.18,.19,.03,.33-.14,.51-.16,.04,0,.07-.05,.11-.06,.19-.06,.29,.02,.25,.21-.03,.12-.07,.24-.13,.35-.14,.29-.31,.56-.43,.86-.13-.17-.02-.34,.02-.5,.03-.09,.09-.16,.12-.25,.08-.22,0-.32-.24-.27-.19,.04-.35,.14-.51,.22-.63,.33-1.22,.71-1.85,1.03-1.03,.52-2.03,1.08-3.07,1.57-.49,.23-.9,.6-1.39,.81-.89,.39-1.7,.91-2.56,1.35-.48,.25-.94,.53-1.45,.71-.14,.05-.26,.13-.37,.22-.21,.18-.45,.29-.69,.42-.82,.41-1.64,.82-2.44,1.29-.45,.27-.89,.59-1.42,.72-.3,.08-.52,.33-.77,.51-.17,.13-.34,.21-.56,.24-.42,.06-.77,.32-1.11,.54-.44,.29-.9,.51-1.36,.75-.18,.1-.36,.2-.51,.35-.34,.24-.64,.54-1.03,.68-.09,.03-.16,.1-.23,.16-.15,.15-.13,.27,.05,.37,.13,.07,.26,.13,.39,.2,.35,.17,.74,.28,.96,.65,.02,.03,.04,.05,.07,.06,.4,.15,.73,.42,1.1,.62,.28,.16,.54,.36,.84,.46,.66,.23,1.19,.7,1.82,.98,.4,.18,.73,.47,1.06,.76,.31,.32,.7,.53,1.04,.82,.43,.36,.87,.73,1.36,1.02,.17,.1,.28,.27,.06,.44Z"/><path class="cls-40" d="M10.36,36.26c.18-.02,.29-.16,.42-.26,.48-.33,1.02-.53,1.52-.82,.41-.25,.85-.45,1.27-.67,.23-.13,.46-.26,.72-.32,.04,0,.08-.03,.1-.06,.3-.35,.77-.43,1.14-.69,.29-.21,.64-.32,.92-.54,.02-.02,.05-.04,.08-.05,.47-.11,.84-.42,1.26-.61,.29-.13,.5-.36,.82-.45,.23-.06,.44-.27,.67-.36,.31-.12,.55-.35,.87-.45,.21-.07,.38-.24,.59-.34,.09-.04,.17-.11,.27-.15,.22-.09,.41-.26,.62-.33,.33-.12,.58-.35,.88-.49,.34-.15,.67-.31,.96-.55,.03-.02,.08-.02,.12-.04,.2-.06,.39-.14,.55-.28,.09-.08,.18-.14,.3-.15,.09,0,.15-.06,.22-.11,.42-.28,.89-.47,1.33-.7,.02-.01,.06,0,.09,0-.06,.11-.15,.16-.26,.22-.46,.23-.92,.46-1.38,.7-.11,.06-.2,.15-.31,.21-.45,.23-.9,.47-1.35,.68-.15,.07-.26,.19-.41,.27-.66,.34-1.33,.67-1.97,1.05-.43,.25-.88,.46-1.31,.7-.45,.26-.92,.48-1.37,.72-.45,.25-.9,.51-1.35,.75-.52,.29-1.05,.57-1.57,.85-.59,.32-1.2,.59-1.78,.94-.58,.35-1.2,.65-1.79,.98-.3,.17-.58,.41-.94,.45-.04-.07,.03-.09,.06-.12Z"/><path class="cls-40" d="M9.23,37.75c-.18-.04-.3-.17-.43-.29-.13-.11-.08-.33,.09-.45,.21-.15,.46-.22,.71-.28-.02,.09-.1,.13-.17,.16-.09,.04-.2,.06-.28,.12-.34,.24-.37,.32-.03,.54,.09,.05,.17,.12,.25,.18l-.03,.03s-.08,0-.11-.02Z"/><path class="cls-7" d="M10.36,36.26l-.06,.12-.07,.07c-.08,.04-.18,.05-.24,.13h0c-.08,.06-.18,.06-.25,.12l-.12,.02c0-.05,.03-.1,.08-.13,.21-.12,.41-.29,.67-.32Z"/><path class="cls-40" d="M9.92,38.06c-.15,.01-.25-.06-.31-.19,.13,.01,.21,.12,.31,.19Z"/><path class="cls-40" d="M9.73,36.69c.05-.11,.14-.13,.25-.12-.05,.11-.14,.13-.25,.12Z"/><path class="cls-40" d="M9.61,37.87h-.13c-.02-.05-.16,0-.12-.12h0c.1,0,.2,.02,.25,.12Z"/><path class="cls-40" d="M9.99,36.57c.04-.11,.13-.13,.24-.13-.06,.09-.15,.11-.24,.13Z"/><path class="cls-12" d="M31.76,25.02c-.03,.08-.1,.06-.17,.06,.04-.06,.11-.06,.17-.06Z"/><path class="cls-45" d="M18.86,43.6c.07-.26,.06-.31-.16-.43-.37-.2-.68-.51-1.02-.74-.37-.25-.64-.62-1.06-.8-.12-.05-.2-.14-.26-.26,.26-.07,.47,.06,.64,.22,.29,.29,.58,.56,.97,.72,.12,.05,.22,.16,.31,.26,.22,.23,.46,.42,.75,.54,.34,.14,.5,.46,.69,.74,.1,.16,.22,.31,.39,.4,.29,.15,.47,.4,.63,.68,.16,.28,.35,.54,.64,.71,.13,.08,.21,.2,.28,.33,.09,.17,.2,.17,.31,.02,.18-.24,.38-.47,.47-.77,.12-.41,.32-.79,.52-1.16,.14-.27,.29-.52,.28-.84,0-.12,.07-.22,.13-.31,.45-.64,.78-1.34,1.06-2.07,.1-.25,.21-.5,.35-.73,.19-.31,.38-.62,.45-.99,.02-.1,.07-.2,.13-.28,.17-.23,.27-.49,.34-.77,.07-.29,.19-.55,.42-.75,.14-.12,.23-.27,.26-.45,.09-.6,.42-1.08,.76-1.55,.1-.14,.18-.27,.22-.44,.08-.33,.2-.66,.37-.96,.14-.24,.23-.49,.28-.76,.09-.43,.28-.8,.58-1.12,.13-.13,.22-.28,.25-.46,.02-.1,.06-.2,.11-.29,.3-.5,.54-1.03,.67-1.6,.01-.05,.02-.11,.06-.14,.45-.51,.54-1.18,.84-1.76,.08-.16,.15-.32,.19-.5,.07-.31,.19-.59,.44-.8,.06-.05,.1-.1,.14-.17,.05-.09,.1-.19,.02-.29-.07-.08-.17-.06-.26-.03-.38,.11-.76,.23-.99,.6-.08,.13-.22,.19-.36,.23-.58,.15-1.11,.41-1.55,.82-.18,.17-.43,.22-.66,.27-.23,.05-.43,.14-.62,.27-.16,.11-.34,.21-.53,.25-.27,.06-.51,.19-.7,.39-.31,.32-.69,.5-1.1,.62-.47,.13-.86,.4-1.25,.67-.14,.1-.27,.19-.44,.22-.07,.01-.14,.03-.21,.07-.59,.39-1.23,.69-1.87,.99-.12,.06-.22,.15-.32,.24-.26,.23-.54,.42-.9,.46-.2,.02-.35,.13-.47,.28-.14,.17-.31,.26-.52,.31-.44,.1-.83,.33-1.19,.59-.03,.02-.05,.05-.07,.06-.53,.14-.9,.55-1.37,.78-.1,.05-.2,.1-.29,.18-.25,.22-.54,.35-.84,.46-.36,.13-.73,.24-1.05,.46-.61,.4-1.29,.67-1.91,1.05-.15,.09-.3,.2-.49,.06,.36-.32,.79-.52,1.23-.7,.09-.04,.19-.09,.27-.16,.27-.22,.57-.41,.9-.54,.06-.02,.11-.06,.15-.1,.12-.13,.29-.19,.45-.18,.25,0,.42-.13,.61-.27,.32-.23,.61-.54,1.04-.58,.07,0,.17-.03,.2-.07,.26-.37,.73-.36,1.06-.6,.23-.17,.45-.37,.73-.47,.45-.17,.85-.44,1.28-.64,.34-.16,.7-.29,.99-.56,.22-.21,.53-.26,.8-.39,.06-.03,.13-.03,.17-.06,.43-.33,.94-.53,1.41-.78,.61-.32,1.17-.73,1.84-.95,.26-.09,.52-.2,.7-.44,.02-.02,.04-.06,.07-.06,.33-.06,.55-.31,.85-.43,.26-.1,.5-.24,.75-.37,.38-.2,.75-.42,1.15-.58,.06-.02,.12-.04,.17-.08,.37-.32,.86-.42,1.26-.68,.26-.16,.53-.32,.8-.47,.35-.2,.69-.41,1.06-.57,.03-.01,.06-.03,.09-.04,.14-.04,.29-.09,.41,.02,.14,.13,.04,.28-.03,.4-.12,.21-.21,.43-.2,.67-.1,.27-.21,.54-.34,.8-.22,.47-.42,.95-.66,1.4-.33,.63-.62,1.28-.92,1.92-.26,.56-.51,1.13-.76,1.7-.04,.09-.07,.17-.13,.25-.23,.28-.33,.61-.38,.97l-.06,.06c-.05,.13-.1,.27-.19,.38h0c-.07,.15-.09,.33-.18,.47-.01,.03-.03,.05-.04,.07-.08,.09-.09,.2-.11,.3-.01,.03-.02,.05-.04,.08-.12,.42-.44,.73-.57,1.15,0,.03-.02,.05-.03,.08-.07,.08-.07,.18-.11,.27-.01,.03-.02,.05-.04,.08-.17,.28-.29,.59-.46,.87-.23,.4-.44,.81-.64,1.23-.25,.51-.43,1.04-.69,1.54-.15,.28-.25,.59-.41,.86-.05,.09-.07,.2-.18,.24-.19,.36-.4,.72-.58,1.09-.27,.57-.54,1.14-.79,1.71-.22,.51-.47,1.01-.72,1.5-.07,.13-.13,.26-.17,.4-.1,.35-.52,.52-.82,.36-.08-.04-.11-.12-.14-.2-.04-.1-.06-.2-.1-.29-.04-.11-.12-.23-.23-.23-.29,0-.37-.23-.44-.41-.16-.4-.42-.71-.74-.97-.11-.09-.24-.17-.31-.3-.1-.18-.25-.19-.42-.16-.14-.04-.23-.13-.28-.26Z"/><path class="cls-22" d="M26.51,37.5c.11-.33,.18-.68,.45-.93,.05,.28-.18,.45-.25,.69h0c-.1,.05-.09,.2-.2,.24Z"/><path class="cls-37" d="M26.71,37.25c.02-.25,.2-.45,.25-.69h0c.06-.09,.05-.22,.13-.31h0c.16-.44,.47-.8,.62-1.25h0l.03-.02,.03,.03c0,.34-.22,.6-.36,.88-.1,.2-.21,.4-.28,.62-.08,.27-.23,.53-.42,.75Z"/><path class="cls-37" d="M28.09,34.32c-.01,.27-.2,.46-.31,.69h0c-.07-.14-.01-.26,.06-.38h0c.11-.08,.08-.28,.25-.31h0Z"/><path class="cls-48" d="M44.25,29.26c.09,0,.18,0,.27,.04,.24,.12,.47,.27,.67,.46-.06-.02-.12-.03-.17-.06-.26-.14-.51-.29-.76-.44Z"/><path class="cls-48" d="M45.19,29.76c.12,0,.23,.03,.31,.13-.12,0-.23-.02-.31-.13Z"/><path class="cls-48" d="M45.5,29.89c.07,0,.14,0,.19,.06h-.19s0-.04,0-.06Z"/><path class="cls-48" d="M47.06,30.57c.4,.13,.78,.31,1.12,.56-.04,0-.09,0-.12,0-.32-.16-.64-.32-.95-.48-.02-.01-.03-.05-.05-.07Z"/><path class="cls-48" d="M45.94,30.07c.17,0,.31,.1,.45,.17,.12,.06,.24,.14,.36,.21-.11,0-.22,0-.31-.08-.15-.12-.36-.15-.5-.29Z"/><path class="cls-48" d="M46.75,30.45c.11,.03,.22,.04,.31,.12-.12,0-.25,.02-.31-.12Z"/><path class="cls-48" d="M45.69,29.95c.11,0,.2,.01,.25,.12-.1,0-.19-.04-.25-.12Z"/><path class="cls-48" d="M48.18,31.14c.07,0,.14,0,.19,.06-.07,0-.14,.01-.19-.06Z"/><path class="cls-22" d="M28.08,34.32c-.11,.08-.1,.26-.25,.31,.05-.18,.13-.35,.25-.5v.19Z"/><path class="cls-22" d="M28.08,34.13c.03-.14,.09-.27,.19-.38,0,.16-.04,.29-.19,.38Z"/><path class="cls-24" d="M48.49,54.41c.15,.14,.35,.21,.52,.32,.35,.21,.74,.36,.97,.74,.15,.24,.39,.43,.58,.65,.13,.14,.17,.3,.24,.46,.14,.28,.31,.54,.37,.85,0,.01,0,.02,0,.03,.26,.29,.17,.64,.18,.98,0,1.5,.02,3-.02,4.49-.03,1.04,0,2.08-.06,3.12-.07,1.18-.02,2.37-.05,3.55-.05,1.89-.06,3.78-.06,5.67,0,.31,0,.31-.32,.31-2.15,0-4.31,0-6.46,0-2.06,0-4.12,.03-6.18-.01-4.38-.08-8.75-.02-13.13-.05-.3,0-.33-.03-.33-.35,0-1.26-.03-2.52,.02-3.77,.06-1.6,0-3.2,.06-4.8,.05-1.3,0-2.6,.06-3.89,.06-1.22,0-2.43,.06-3.65,.07-1.52,.02-3.03,.06-4.55,.09-3.03,.02-6.07,.06-9.11,0-.16,0-.31,.01-.47,.03-.33,0-.66,.03-1.05,.17,.17,.27,.33,.35,.49,.52,1,1.08,1.98,1.58,2.99,.23,.47,.51,.91,.73,1.38,.22,.47,.49,.9,.72,1.36,.24,.49,.48,.98,.77,1.45,.17,.28,.29,.61,.46,.9,.32,.56,.63,1.14,.92,1.72,.38,.75,.78,1.49,1.16,2.23,.52,1.01,1.07,2.01,1.59,3.02,.56,1.1,1.17,2.17,1.72,3.27,.36,.73,.76,1.44,1.15,2.16,.34,.65,.7,1.29,1.02,1.95,.07,.14,.13,.27,.3,.29,.13,.02,.27,0,.31-.15,.05-.2,.21-.33,.31-.5,.09-.16,.24-.29,.3-.47,.01-.03,.03-.05,.04-.08,.57-.95,1.17-1.88,1.75-2.82,.62-1.01,1.17-2.05,1.8-3.05,.41-.65,.94-1.21,1.37-1.85,.71-1.07,1.7-1.83,2.66-2.64,.22-.19,.41-.41,.66-.57,.52-.34,1.07-.55,1.7-.53Z"/><path class="cls-3" d="M38.26,66.4c.01,.13-.06,.21-.14,.29-.07,.06-.14,.12-.17,.22-.04,.17-.17,.24-.32,.25-.17,.01-.28-.1-.34-.23-.21-.47-.48-.91-.69-1.38-.09-.19-.18-.39-.32-.56-.22-.27-.32-.6-.47-.91-.11-.24-.31-.44-.36-.72-.46-.52-.61-1.21-.96-1.79-.24-.39-.45-.79-.66-1.19-.36-.68-.67-1.39-1.06-2.05-.41-.7-.75-1.44-1.15-2.15-.28-.5-.55-1.02-.82-1.53-.26-.51-.53-1.02-.8-1.53-.19-.37-.4-.74-.62-1.1-.02-.03-.06-.08-.05-.11,.03-.24-.11-.4-.24-.55-.21-.24-.25-.56-.44-.81-.22-.29-.33-.63-.45-.96-.02-.07-.07-.1-.12-.14-.07-.05-.13-.12-.15-.2-.06-.36-.31-.63-.44-.95-.08-.19-.25-.35-.27-.57,0-.06-.07-.1-.12-.14-.06-.04-.12-.09-.13-.17-.08-.36-.31-.65-.46-.97-.18-.39-.41-.77-.61-1.15-.14-.27-.34-.51-.4-.83-.03-.17-.26-.28-.31-.48-.07,.31,.02,.63-.07,.93-.02-.4-.03-.8,.02-1.2,.23,.31,.43,.62,.59,.96l.04,.02c.08,.08,.13,.17,.18,.27,.03,.07,.07,.14,.12,.19,.04,.06,.08,.12,.11,.19,0,.02,.02,.05,.02,.07,.02,.06,.04,.12,.06,.17,.01,.02,.03,.04,.04,.07,.06,.09,.11,.19,.17,.28,.15,.18,.28,.36,.31,.6,.06,.16,.14,.31,.25,.44,.13,.24,.29,.46,.38,.72,.02,.11,.09,.19,.16,.27,.03,.04,.05,.09,.07,.14,.02,.06,.04,.12,.06,.17,.01,.02,.02,.04,.03,.07,.03,.07,.06,.14,.1,.2,.03,.07,.08,.13,.12,.19,.03,.06,.04,.12,.08,.17,.02,.03,.04,.06,.06,.1,.03,.06,.05,.12,.1,.17,.23,.35,.44,.71,.6,1.1,.08,.27,.22,.51,.37,.74v.04c0,.11,0,.21,.07,.3,.21,.3,.36,.64,.53,.97,.26,.48,.5,.97,.77,1.45,.39,.72,.75,1.44,1.15,2.15,.23,.41,.43,.84,.66,1.26,.48,.86,.88,1.76,1.4,2.59,.16,.26,.27,.56,.41,.83,.1,.19,.21,.38,.31,.57,.49,.86,.91,1.77,1.4,2.63,.33,.58,.62,1.19,.92,1.79,.21,.41,.45,.81,.63,1.24,.05,.12,.15,.2,.29,.19,.14,0,.2-.1,.22-.22,.05-.23,.23-.36,.35-.54l.03,.03s0,.08-.02,.11Z"/><path class="cls-31" d="M48.49,54.41c-.22-.04-.4,.06-.6,.12-.61,.18-1.17,.45-1.6,.93-.31,.35-.71,.6-1.06,.91-.51,.44-1.03,.86-1.4,1.44-.2,.3-.45,.57-.66,.86-.18,.24-.39,.46-.53,.72-.07,.12-.17,.23-.26,.34-.23,.3-.36,.65-.57,.96-.23,.33-.42,.68-.58,1.04-.03,.06-.07,.1-.13,.13-.07,.05-.12,.11-.14,.2-.04,.23-.17,.42-.29,.61-.22,.33-.47,.66-.66,1.01-.24,.44-.48,.87-.78,1.26-.24,.32-.37,.71-.65,1.01-.06-.06-.04-.13,0-.19,.03-.23,.2-.38,.31-.56,.25-.41,.51-.81,.76-1.21,.3-.49,.63-.98,.91-1.48,.37-.66,.76-1.3,1.12-1.96,.28-.53,.63-1.02,1.02-1.48,.22-.27,.42-.56,.64-.84,.5-.63,.95-1.3,1.6-1.8,.5-.39,1-.8,1.47-1.25,.16-.16,.34-.3,.52-.45,.11-.08,.23-.17,.36-.17,.2,0,.36-.09,.54-.15,.1,.01,.2-.01,.3-.03,.13-.02,.26-.06,.38,.04Z"/><path class="cls-11" d="M26.03,45.2c-.07-.05-.12-.12-.13-.21-.02-.13-.11-.21-.18-.31h0v-.18c.16,.11,.28,.24,.31,.44,.01,.08,.04,.14,.09,.19,.1,.08,.1,.2,.1,.31l-.03,.03h-.04l-.02-.09c-.02-.06-.05-.11-.1-.15Z"/><path class="cls-11" d="M27.58,48.12l-.07-.14c-.04-.1-.13-.16-.17-.25l-.38-.75c-.1-.13-.13-.3-.25-.42-.02-.25-.2-.42-.31-.63-.03-.05-.03-.11-.02-.17l.03-.03s.02,.01,.02,.02c.06,.07,.08,.21,.21,.19,.07-.01,.06-.2-.04-.33-.22-.3-.37-.63-.48-.99-.06-.2-.22-.37-.29-.57-.03-.09-.09-.17,0-.26,.09-.08,.19-.06,.29-.02,.41,.17,.78,.41,1.19,.58,.54,.22,1.03,.54,1.58,.72,.22,.07,.44,.18,.63,.31,.32,.22,.69,.33,1.03,.51,.58,.3,1.18,.54,1.76,.83,.35,.17,.7,.35,1.05,.53,.37,.19,.76,.33,1.13,.51,.39,.19,.77,.4,1.15,.6,.28,.15,.62,.2,.88,.38,.15,.1,.31,.17,.48,.22,.04,.01,.08,0,.12,.01,.32,.19,.64,.36,.97,.52,.49,.24,1.01,.41,1.48,.68,.25,.15,.5,.31,.8,.4,.25,.07,.49,.22,.72,.35,.54,.32,1.11,.55,1.69,.77,.14,.05,.24,.16,.37,.23,.25,.13,.51,.24,.77,.34,.14,.05,.26,.13,.38,.2,.05,.07,.13,.11,.21,.13,.62,.16,1.13,.55,1.7,.8,.21,.09,.41,.19,.62,.28,.21,.09,.4,.22,.56,.38,.13,.12,.27,.18,.44,.19-.13,.04-.26,.07-.38,.11-.36,.09-.66,.26-.93,.54-.23,.24-.5,.43-.76,.64-.37,.31-.74,.64-1.12,.93-.47,.37-.81,.86-1.17,1.32-.41,.53-.82,1.06-1.22,1.6-.33,.44-.6,.93-.89,1.41-.24,.39-.35,.84-.69,1.17-.03,.03-.04,.07-.05,.11-.11,.38-.38,.66-.57,.99-.31,.54-.69,1.05-.97,1.61-.13,.25-.32,.45-.46,.69-.23,.37-.43,.76-.69,1.1-.05,.07-.06,.18-.1,.26-.05,.09-.13,.13-.23,.12-.08-.01-.12-.06-.15-.14-.12-.4-.35-.75-.55-1.11-.2-.36-.4-.72-.55-1.1-.07-.19-.21-.33-.3-.51-.18-.38-.4-.75-.6-1.12-.14-.27-.29-.54-.43-.82-.15-.31-.32-.62-.5-.92-.16-.28-.3-.58-.46-.87-.21-.39-.38-.81-.66-1.16-.08-.11-.11-.24-.17-.36-.26-.5-.53-1-.79-1.5-.23-.44-.46-.88-.68-1.32-.07-.13-.15-.24-.22-.37-.46-.84-.88-1.7-1.34-2.54-.25-.46-.51-.92-.72-1.4-.09-.19-.23-.36-.35-.54h-.01c-.17-.23-.29-.5-.42-.75-.2-.38-.39-.77-.63-1.13-.05-.05,0-.13-.06-.17l-.06-.08s0-.12-.05-.17c-.07-.05-.12-.12-.14-.21-.03-.08-.05-.17-.12-.24h0c-.06-.05,0-.14-.07-.18Z"/><path class="cls-3" d="M38.57,65.76v.19h0c-.11,.1-.1,.32-.31,.31h0c.08-.19,.16-.37,.32-.51Z"/><path class="cls-11" d="M26.22,45.42c.11,.07,.19,.17,.19,.31h0c-.12,.04-.13-.07-.18-.12h0c-.05-.06-.05-.12,0-.18h0Z"/><path class="cls-6" d="M65.15,36.63c-.17-.14-.34-.26-.54-.35-.19-.08-.34-.23-.52-.33-.36-.2-.71-.43-1.07-.64-.67-.38-1.36-.75-2.02-1.14-.37-.22-.72-.49-1.07-.74-.42-.3-.83-.61-1.24-.93-.38-.29-.78-.55-1.1-.91-.32-.37-.65-.73-.95-1.11-.3-.38-.63-.74-.96-1.1-.21-.23-.37-.47-.43-.78-.04-.2-.09-.41-.16-.6-.07-.21-.02-.38,.13-.54-.06,.75,.17,1.39,.68,1.95,.25,.28,.55,.52,.76,.82,.25,.39,.63,.66,.87,1.05,.22,.35,.55,.59,.89,.81,.42,.27,.79,.6,1.19,.89,.22,.16,.4,.4,.68,.47,.03,0,.06,.03,.08,.05,.34,.4,.8,.6,1.25,.83,.24,.12,.49,.23,.69,.42,.02,.01,.03,.03,.05,.04,.43,.09,.71,.43,1.09,.62,.34,.17,.65,.39,.98,.58,.06,.04,.12,.07,.16,.14,.02,.05,.06,.09,.11,.11,.41,.1,.71,.4,1.07,.58,.25,.13,.44,.36,.73,.4,.3,.28,.73,.38,1.02,.69,.1,.1,.24,.11,.34,.21,.17,.17,.17,.44-.04,.54-.43,.2-.82,.49-1.26,.66-.26,.1-.49,.27-.73,.4-.31,.17-.61,.35-.92,.51-.56,.29-1.11,.61-1.69,.87-.29,.13-.59,.29-.87,.47-.41,.28-.85,.52-1.3,.71-.56,.25-1.05,.6-1.59,.86-.53,.26-1.04,.54-1.57,.8-.14,.07-.27,.15-.4,.24-.29,.19-.62,.34-.92,.5-.52,.26-1.02,.57-1.54,.83-.55,.28-1.1,.57-1.65,.86-.43,.23-.83,.51-1.27,.7-.37,.16-.71,.36-1.08,.52-.3,.13-.57,.33-.86,.48-.36,.19-.72,.39-1.09,.56-.44,.2-.84,.49-1.27,.7-.42,.21-.81,.47-1.26,.64-.21,.08-.39,.23-.59,.35-.22,.14-.44,.26-.7,.31-.2,.03-.21,.2-.22,.36-.11,0-.23,0-.34,0-.04,0-.08-.04-.07-.08,0-.03,.02-.07,.04-.07,.18-.05,.3-.19,.47-.24,.26-.08,.48-.23,.72-.36,.2-.11,.41-.2,.6-.32,.5-.3,1.07-.49,1.54-.84,.13-.09,.28-.12,.41-.2,.46-.28,.94-.51,1.42-.77,.67-.35,1.33-.72,2-1.06,.67-.34,1.3-.75,2-1.05,.18-.08,.34-.19,.51-.28,.45-.23,.89-.48,1.34-.71,.31-.16,.61-.35,.92-.51,.47-.25,.95-.49,1.43-.74,.05-.02,.1-.03,.14-.06,.34-.26,.75-.4,1.11-.61,.06-.04,.14-.05,.18-.12,.1-.18,.3-.2,.46-.29,.51-.29,1.04-.55,1.55-.84,.91-.51,1.84-.99,2.76-1.48,.94-.51,1.87-1.02,2.83-1.5,.18-.09,.33-.21,.52-.28,.09-.03,.18-.12,.18-.23,0-.12-.12-.13-.2-.17-.51-.25-.98-.58-1.46-.87-.3-.18-.6-.37-.91-.54-.04-.02-.06-.05-.06-.09Z"/><path class="cls-20" d="M66.76,38.34s-.02,.08-.05,.11c-.12,.1-.22,.23-.36,.29-.31,.14-.61,.31-.9,.49-.16,.1-.32,.19-.51,.22-.12,.02-.24,.09-.34,.16-.15,.11-.32,.19-.5,.26-.08,.03-.15,.06-.22,.12-.28,.25-.62,.42-.95,.57-.23,.1-.44,.27-.71,.27-.07,0-.12,.02-.16,.08-.16,.25-.41,.36-.69,.43-.13,.03-.26,.13-.37,.21-.06,.04-.11,.1-.17,.13-.41,.15-.75,.45-1.15,.6-.64,.23-1.2,.61-1.78,.93-.23,.12-.48,.19-.7,.34-.1,.07-.21,.12-.3,.21-.04,.04-.09,.09-.15,.11-.5,.17-.93,.49-1.41,.72-.39,.19-.78,.38-1.15,.61-.19,.12-.43,.18-.65,.26-.27,.1-.54,.22-.75,.42-.12,.12-.25,.22-.41,.28-.4,.17-.78,.39-1.14,.62-.16,.1-.36,.17-.55,.22-.24,.06-.44,.17-.62,.34-.19,.19-.41,.32-.65,.41-.11,.04-.21,.08-.3,.17-.06,.06-.14,.09-.23,.09-.31,0-.55,.16-.8,.31-.04,.03-.09,.05-.13,.08-.37,.34-.86,.48-1.28,.74-.34,.21-.74,.33-1.01,.66-.06,.08-.16,.09-.25,.11-.19,.04-.33-.13-.25-.3,.25-.53,.39-1.12,.76-1.6,.09-.12,.14-.28,.18-.43,.08-.31,.28-.58,.36-.89,0-.04,.04-.08,.07-.1,.2-.14,.23-.36,.28-.57,.05-.25,.13-.45,.36-.63,.23-.17,.38-.43,.39-.75,.02-.29,.08-.57,.3-.79,.04-.04,.08-.1,.1-.16,.17-.47,.48-.87,.72-1.3,.05-.08,.06-.17,.07-.27,.06-.31,.08-.64,.29-.91,.03-.04,.05-.09,.07-.14,.14-.45,.39-.84,.71-1.18,.15-.17,.2-.39,.23-.6,.03-.19,.12-.34,.18-.52,.16-.43,.46-.79,.63-1.21,.17-.44,.37-.88,.59-1.3,.21-.41,.38-.85,.63-1.25,.02-.03,.02-.06,.04-.08,.31-.25,.3-.64,.43-.97,.14-.36,.23-.73,.46-1.05,.19-.27,.28-.6,.45-.88,.11-.18,.23-.37,.34-.55,.14-.22,.22-.46,.25-.73,.04-.43,.19-.82,.47-1.17,.15-.18,.46-.19,.67,0,.2,.18,.4,.37,.57,.58,.23,.28,.45,.57,.71,.82,.09,.09,.17,.18,.28,.24,.07,.03,.14,.09,.14,.16,.01,.21,.17,.33,.3,.45,.2,.18,.4,.36,.57,.57,.12,.15,.29,.23,.45,.33,.23,.14,.48,.28,.68,.49,.2,.2,.41,.37,.68,.48,.15,.06,.29,.16,.4,.29,.25,.3,.57,.51,.91,.7,.31,.17,.63,.31,.9,.55,.16,.14,.39,.11,.58,.21,.39,.2,.77,.41,1.09,.71,.14,.13,.28,.25,.48,.25,.13,0,.23,.09,.32,.17,.19,.18,.42,.29,.64,.44,.41,.29,.88,.46,1.3,.72,.22,.14,.33,.37,.52,.52,.02,.02,.03,.05,.04,.09Z"/><path class="cls-10" d="M65.15,36.63c.57,.28,1.08,.65,1.62,.96,.32,.18,.61,.42,.96,.55,.16,.06,.17,.16,.07,.29-.15,.2-.4,.25-.6,.37-.53,.3-1.08,.58-1.61,.86-.35,.19-.71,.38-1.06,.57-.53,.28-1.06,.56-1.59,.84-.53,.28-1.06,.55-1.59,.85-.3,.17-.62,.33-.92,.5-.31,.17-.61,.38-.95,.51h-.19c.22-.2,.5-.28,.75-.43,.29-.18,.6-.32,.9-.49,.55-.3,1.11-.58,1.66-.89,.48-.27,.98-.48,1.45-.76,.55-.33,1.13-.59,1.69-.91,.35-.2,.7-.4,1.06-.58,.24-.12,.47-.25,.71-.36,.06-.03,.11-.05,.15-.1,.07-.08,.06-.16-.04-.2-.58-.18-1-.61-1.52-.88-.36-.19-.66-.45-1.04-.61-.03-.01-.06-.06-.09-.09h.19Z"/><path class="cls-52" d="M40.94,13.11v-.14c.25,.26,.42,.56,.55,.89,.1,.23,.26,.44,.36,.68,.11,.27,.32,.48,.43,.73,.13,.29,.31,.55,.41,.85,.05,.13,.14,.25,.2,.38,.18,.39,.48,.73,.6,1.15-.12,.04-.13-.08-.19-.13-.25-.46-.54-.9-.74-1.38-.06-.14-.16-.24-.23-.36-.45-.85-.91-1.7-1.37-2.56-.02-.04-.02-.08-.04-.12Z"/><path class="cls-38" d="M43.31,17.53l.19,.13c.21,.38,.43,.75,.62,1.13,.21,.42,.43,.84,.68,1.25,.13,.21,.27,.42,.27,.68h-.07c-.13-.14-.16-.33-.25-.5-.04-.06-.07-.13-.12-.19-.05-.18-.15-.34-.25-.49-.31-.5-.55-1.03-.82-1.54-.08-.15-.2-.29-.24-.46Z"/><path class="cls-20" d="M29.65,21.76s0-.09,.02-.13c.18-.28,.38-.55,.67-.72,.23-.13,.41-.3,.58-.49,.3-.33,.63-.63,1.01-.87,.21-.14,.33-.34,.47-.53,.13-.2,.26-.39,.47-.52,.14-.09,.19-.27,.27-.41,.2-.32,.39-.65,.65-.9,.27-.26,.48-.57,.74-.83,.07-.07,.16-.14,.18-.25,.06-.36,.25-.64,.47-.92,.16-.21,.25-.47,.39-.71,.27-.45,.5-.93,.77-1.39,.21-.36,.42-.71,.66-1.05,.11-.16,.31-.24,.37-.45,.02-.08,.07-.15,.09-.23,.03-.18,.11-.34,.22-.48,.13-.17,.26-.34,.34-.55,.05-.12,.14-.23,.22-.34,.11-.14,.2-.14,.37-.05,.18,.09,.24,.25,.33,.4,.23,.39,.52,.75,.65,1.2,.07,.24,.15,.47,.27,.69,.07,.14,.15,.28,.25,.39,.28,.32,.43,.71,.59,1.09,.16,.37,.31,.74,.55,1.07,.19,.26,.35,.54,.46,.84,.02,.06,.06,.11,.1,.16,.18,.22,.33,.45,.42,.72,.07,.2,.19,.4,.33,.56,.19,.22,.28,.48,.38,.74,.1,.25,.22,.49,.37,.72,.12,.17,.21,.35,.22,.57,.02,.21,.13,.39,.27,.55,.3,.35,.54,.74,.74,1.15,.09,.19,.11,.41,.24,.6,.27,.36,.51,.74,.64,1.18,.04,.12,.16,.2,.21,.31,.18,.36,.4,.71,.49,1.09,.09,.38,.24,.7,.5,.99,.16,.19,.28,.41,.46,.59,.1,.11,.17,.24,.2,.41,.04,.23,.21,.42,.31,.63,.22,.47,.49,.93,.68,1.41,.02,.04,.02,.09,.05,.11,.24,.23,.27,.55,.37,.84,.1,.28,.33,.47,.48,.72,0,0,.02,0,.03,.02,.19,.38,.53,.68,.57,1.14,0,.09,.04,.18,.05,.27,.02,.19-.08,.3-.25,.23-.38-.15-.79-.22-1.11-.53-.21-.2-.51-.27-.78-.36-.22-.06-.44-.12-.66-.18-.11-.03-.23-.07-.3-.16-.17-.21-.41-.27-.65-.34-.07-.02-.14-.04-.21-.05-.39-.06-.67-.32-.98-.51-.3-.18-.62-.34-.97-.4-.13-.02-.25-.08-.36-.17-.2-.19-.45-.33-.66-.52-.16-.15-.4-.16-.61-.21-.16-.04-.33-.06-.49-.08-.21-.02-.36-.15-.51-.28-.23-.21-.48-.35-.8-.35-.21,0-.4-.12-.55-.26-.34-.31-.74-.47-1.16-.63-.41-.16-.84-.32-1.15-.67-.13-.15-.32-.18-.51-.18-.15,0-.27-.06-.41-.11-.46-.17-.85-.46-1.32-.61-.3-.1-.57-.29-.85-.45-.17-.1-.33-.21-.54-.2-.12,0-.22-.06-.3-.14-.18-.18-.4-.28-.64-.37-.2-.07-.41-.14-.54-.35-.05-.09-.17-.12-.27-.14-.21-.04-.43-.08-.64-.14-.3-.09-.59-.18-.84-.4-.23-.2-.53-.27-.81-.4-.2-.09-.28-.19-.29-.39Z"/><path class="cls-32" d="M44.62,20.03c.08,.04,.13,.1,.12,.19-.08-.04-.12-.1-.12-.19Z"/><path class="cls-8" d="M19.65,44.74c.2,.09,.28,.3,.41,.45,.17,.19,.35,.38,.46,.61-.04-.01-.09-.01-.11-.04-.27-.33-.6-.61-.76-1.02Z"/><path class="cls-8" d="M20.71,45.99c.16,.12,.31,.24,.38,.44-.17-.11-.33-.23-.38-.44Z"/><path class="cls-7" d="M9.36,37.75l.12,.13c-.11,0-.2-.02-.25-.13h.13Z"/><path class="cls-20" d="M11.3,36.32c.15,0,.28-.02,.41-.11,.24-.16,.48-.35,.75-.43,.42-.14,.77-.4,1.14-.63,.5-.31,1.08-.4,1.59-.69,.14-.08,.28-.14,.38-.27,.08-.11,.2-.15,.32-.17,.23-.05,.4-.18,.51-.38,.1-.17,.23-.23,.41-.21,.12,.01,.21-.03,.31-.11,.47-.37,.96-.68,1.57-.77,.11-.02,.18-.1,.24-.18,.17-.23,.38-.36,.67-.38,.31-.02,.53-.22,.75-.41,.18-.16,.35-.32,.6-.36,0,0,.02,0,.03-.01,.49-.32,1.07-.49,1.54-.86,.07-.05,.13-.1,.22-.1,.19,.01,.33-.08,.47-.21,.13-.12,.27-.23,.44-.28,.08-.03,.16-.06,.21-.13,.08-.09,.18-.13,.29-.17,.28-.09,.57-.18,.85-.29,.17-.07,.32-.19,.45-.32,.25-.26,.54-.44,.9-.52,.25-.05,.44-.21,.65-.35,.07-.05,.12-.11,.22-.11,.25,0,.46-.12,.69-.18,.05-.01,.11-.03,.14-.07,.22-.29,.56-.42,.85-.61,.22-.14,.48-.19,.73-.26,.2-.05,.34-.13,.43-.32,.07-.15,.21-.24,.34-.3,.21-.1,.42-.17,.64-.24,.12-.04,.25-.07,.35,.04,.12,.12,.04,.26,0,.38-.04,.11-.14,.18-.22,.26-.18,.15-.3,.34-.34,.58-.08,.44-.33,.8-.48,1.21-.02,.05-.06,.1-.05,.14,.03,.33-.18,.55-.35,.77-.18,.23-.28,.49-.34,.76-.08,.35-.23,.66-.41,.97-.13,.22-.28,.44-.3,.71,0,.13-.1,.23-.19,.32-.33,.33-.55,.72-.63,1.19-.03,.2-.11,.4-.21,.58-.22,.4-.41,.81-.47,1.27-.01,.09-.08,.14-.13,.2-.33,.37-.6,.79-.73,1.26-.11,.42-.23,.78-.58,1.06-.12,.09-.14,.26-.17,.4-.07,.33-.18,.64-.39,.91-.04,.06-.09,.12-.1,.19-.08,.43-.3,.79-.53,1.14-.1,.15-.19,.33-.23,.51-.08,.34-.26,.63-.4,.94-.19,.45-.41,.88-.73,1.26-.1,.12-.15,.25-.13,.4,.02,.2-.06,.35-.15,.52-.29,.5-.53,1.03-.72,1.58-.1,.28-.34,.47-.49,.71-.07,.12-.27,.07-.32-.09-.07-.25-.25-.36-.45-.49-.22-.14-.34-.36-.46-.57-.17-.29-.35-.55-.66-.72-.16-.08-.27-.21-.36-.37-.11-.2-.25-.38-.39-.56-.09-.12-.23-.19-.36-.23-.22-.08-.4-.21-.56-.38-.21-.21-.42-.41-.72-.53-.21-.08-.42-.26-.55-.44-.19-.26-.46-.33-.73-.43-.41-.37-.86-.69-1.36-.92-.34-.16-.67-.33-.94-.59-.03-.03-.08-.05-.11-.05-.2,.03-.33-.1-.49-.17-.29-.13-.52-.38-.85-.44-.02,0-.03-.02-.05-.04-.28-.24-.58-.46-.95-.55-.15-.04-.25-.19-.34-.31-.09-.14-.2-.2-.36-.26-.31-.11-.6-.28-.9-.44-.17-.09-.18-.18-.07-.33,.1-.14,.23-.27,.41-.32,.22-.06,.4-.18,.55-.34,.12-.12,.31-.13,.4-.29Z"/><path class="cls-22" d="M27.71,35c.01,.21-.12,.36-.21,.54-.12,.25-.26,.49-.42,.71,0-.13,.01-.25,.09-.35,.18-.25,.34-.52,.44-.81,.01-.03,.06-.05,.09-.08Z"/><path class="cls-22" d="M27.09,36.25c0,.12-.02,.23-.13,.31,0-.12-.02-.25,.13-.31Z"/><path class="cls-22" d="M27.83,34.63c-.02,.13-.08,.24-.06,.37h-.06c.01-.13-.04-.29,.13-.37Z"/><path class="cls-31" d="M38.26,66.27c.15-.05,.17-.25,.31-.31-.02,.2-.15,.33-.31,.44v-.13Z"/><path class="cls-1" d="M28.71,50.29c.2,.22,.3,.49,.42,.75-.25-.19-.34-.47-.42-.75Z"/><path class="cls-1" d="M26.71,46.56c.17,.09,.21,.26,.25,.42-.15-.1-.19-.27-.25-.42Z"/><path class="cls-1" d="M25.72,44.68c.12,.07,.2,.16,.18,.31-.06-.1-.18-.18-.18-.31Z"/><path class="cls-1" d="M26.21,45.61l.18,.13v.19c-.07-.1-.18-.18-.18-.32Z"/><path class="cls-1" d="M27.34,47.73c.09,.06,.18,.12,.17,.25-.1-.06-.18-.12-.17-.25Z"/><path class="cls-1" d="M27.65,48.3c.11,.05,.13,.14,.12,.24-.07-.06-.11-.15-.12-.24Z"/><path class="cls-1" d="M26.03,45.2c.09,.01,.12,.07,.1,.15-.06-.03-.1-.08-.1-.15Z"/><path class="cls-1" d="M26.21,45.43v.19c-.07-.04-.06-.11-.06-.18,.02,0,.04,0,.06,0Z"/><path class="cls-1" d="M27.58,48.12c.08,.03,.07,.11,.07,.17-.07-.04-.06-.11-.07-.17Z"/><path class="cls-1" d="M28.02,48.99c.08,.04,.07,.11,.06,.17-.07-.04-.06-.11-.06-.17Z"/><path class="cls-1" d="M27.91,48.75c.07,.04,.06,.1,.05,.17-.06-.04-.06-.11-.05-.17Z"/><path class="cls-20" d="M26.8,44.49c.06,0,.18,.05,.3,.1,.53,.22,1.04,.46,1.55,.72,.39,.2,.8,.38,1.2,.58,.34,.16,.72,.27,1.05,.47,.1,.06,.21,.1,.32,.12,.17,.03,.29,.11,.39,.23,.11,.12,.23,.22,.38,.26,.53,.15,.99,.46,1.49,.69,.18,.08,.36,.16,.55,.22,.32,.1,.65,.2,.93,.42,.16,.12,.35,.19,.54,.24,.14,.04,.28,.1,.4,.18,.12,.08,.24,.16,.4,.16,.09,0,.15,.06,.22,.11,.53,.41,1.13,.68,1.76,.89,.08,.03,.15,.07,.23,.1,.41,.2,.81,.41,1.22,.61,.12,.06,.24,.12,.34,.21,.17,.15,.39,.19,.6,.24,.14,.03,.25,.09,.37,.16,.45,.28,.92,.5,1.39,.73,.38,.19,.77,.35,1.16,.5,.3,.12,.62,.21,.86,.45,.04,.04,.11,.08,.17,.08,.41,.02,.7,.27,1,.52,.13,.1,.27,.18,.44,.22,.21,.06,.43,.09,.59,.25,.16,.16,.18,.26,.01,.42-.19,.19-.4,.37-.61,.53-.21,.17-.39,.37-.62,.52-.15,.1-.29,.23-.45,.33-.2,.13-.39,.27-.52,.48-.1,.15-.25,.28-.4,.38-.17,.12-.3,.28-.43,.44-.38,.46-.69,.98-1.08,1.44-.3,.36-.6,.74-.82,1.17-.1,.21-.25,.38-.42,.54-.12,.11-.21,.23-.23,.39,0,.03,0,.08-.02,.09-.24,.15-.22,.42-.32,.63-.19,.38-.37,.77-.67,1.07-.19,.2-.28,.45-.4,.69-.04,.08-.07,.17-.14,.23-.19,.18-.3,.41-.37,.67-.05,.18-.14,.32-.29,.46-.26,.24-.46,.53-.58,.87-.09,.24-.2,.48-.43,.63-.17,.11-.21,.11-.34-.04-.16-.18-.24-.41-.33-.63-.05-.13-.11-.24-.21-.33-.12-.12-.19-.27-.27-.41-.29-.51-.39-1.12-.81-1.56-.06-.06-.09-.14-.1-.22-.07-.35-.23-.66-.45-.95-.1-.13-.19-.28-.23-.44-.07-.28-.24-.5-.33-.76-.03-.08-.07-.14-.14-.2-.17-.14-.29-.32-.35-.54-.11-.38-.3-.72-.53-1.04-.13-.17-.2-.38-.29-.58-.16-.33-.22-.71-.48-1-.1-.11-.15-.27-.22-.41-.06-.12-.11-.24-.22-.34-.07-.06-.09-.15-.12-.24-.16-.44-.26-.91-.63-1.25-.06-.06-.11-.12-.14-.2-.2-.46-.46-.89-.61-1.38-.13-.44-.35-.84-.68-1.17-.11-.11-.18-.23-.18-.38,0-.18-.07-.32-.21-.43-.15-.11-.21-.26-.23-.45-.03-.26-.05-.54-.36-.67-.04-.02-.06-.08-.09-.12-.14-.21-.23-.44-.41-.62-.09-.09-.12-.22-.13-.34-.01-.15-.08-.27-.17-.39-.15-.2-.29-.41-.27-.68,0-.04,0-.1-.02-.12-.22-.21-.22-.56-.47-.76-.26-.21-.4-.49-.47-.82-.05-.23-.17-.44-.19-.68-.02-.17-.17-.27-.31-.37-.23-.16-.37-.39-.34-.69,.02-.17,.1-.23,.33-.23Z"/></g><path class="cls-4" d="M128.47,54.51c-.29-.1-.6-.07-.9-.12-.67-.1-1.33-.21-1.97-.43-.22-.08-.23-.08-.2-.32,.14-1.07,.29-2.15,.43-3.21,.1-.01,.15,.04,.21,.07,.96,.49,1.99,.73,3.06,.81,.63,.05,1.27,.06,1.9-.05,.29-.05,.58-.13,.84-.27,.75-.41,.91-1.34,.34-1.98-.22-.25-.51-.41-.81-.55-.49-.22-1-.36-1.51-.51-.63-.18-1.26-.37-1.86-.62-.56-.24-1.08-.54-1.52-.96-.63-.6-.96-1.34-1.08-2.18-.1-.73-.08-1.45,.14-2.16,.3-.99,.93-1.71,1.8-2.24,.77-.46,1.6-.71,2.48-.85,1.53-.24,3.05-.22,4.58,.05,.39,.07,.77,.19,1.14,.35,.11,.05,.16,.1,.14,.23-.11,.99-.2,1.97-.3,2.95-.07,.06-.14,.01-.2-.01-1.26-.49-2.57-.63-3.92-.51-.36,.03-.71,.11-1.04,.24-.2,.08-.39,.18-.54,.34-.48,.46-.47,1.19,.04,1.62,.24,.2,.52,.33,.8,.44,.66,.25,1.35,.41,2.02,.61,.65,.2,1.28,.41,1.88,.74,.83,.46,1.49,1.09,1.8,2.01,.45,1.35,.37,2.68-.26,3.96-.45,.9-1.2,1.48-2.11,1.88-.8,.35-1.65,.53-2.52,.62-.1,.01-.21-.02-.29,.06h-2.58Z"/><path class="cls-4" d="M195.66,29.47c-.09,.11-.05,.23-.06,.35-.1,1.26-.48,2.42-1.25,3.43-.76,.99-1.77,1.6-2.96,1.9-1.56,.4-3.12,.4-4.66-.06-1.86-.55-3.11-1.77-3.69-3.62-.56-1.79-.56-3.61-.02-5.41,.58-1.89,1.83-3.13,3.74-3.68,1.59-.46,3.19-.46,4.78,0,2.08,.6,3.33,2.01,3.87,4.08,.11,.44,.2,.88,.2,1.33,0,.09-.01,.19,.05,.26v1.41Z"/><path class="cls-4" d="M101.82,25.39c-.12,.11-.13,.22-.16,.31-1.03,3.08-2.06,6.16-3.08,9.25-.02,.05-.04,.1-.05,.15-.03,.15-.12,.19-.26,.18-.41,0-.82,0-1.23,0-.48,0-.96,0-1.44,0-.34,0-.29,.04-.4-.29-.57-1.79-1.14-3.58-1.71-5.37-.42-1.32-.84-2.65-1.26-3.97-.02-.07,0-.17-.13-.22v9.44c0,.07,0,.14,0,.21,.01,.15-.05,.21-.2,.19-.01,0-.02,0-.03,0-.96,0-1.92,0-2.88,0-.22,0-.22,0-.23-.22,0-.05,0-.1,0-.15,0-4.1,0-8.2,0-12.31,0-.42-.06-.37,.37-.37,1.56,0,3.13,0,4.69,0,.43,0,.33-.04,.45,.34,.84,2.7,1.67,5.41,2.51,8.11,.03,.11,.02,.29,.17,.29,.15,0,.14-.18,.17-.29,.89-2.72,1.78-5.44,2.67-8.15,.1-.3,.1-.3,.39-.3,1.55,0,3.11,0,4.66,0,.06,0,.12,0,.18,0,.08,0,.11,.04,.11,.11,0,.07,0,.14,0,.21,0,4.12,0,8.24,0,12.37,0,.05,0,.1,0,.15,.02,.14-.03,.2-.18,.2-.99,0-1.98,0-2.98,0-.14,0-.18-.05-.17-.18,0-.07,0-.14,0-.21,0-3.04,0-6.08,0-9.11v-.38Z"/><path class="cls-4" d="M102.71,44.21c-.17-.91-.5-1.77-1.05-2.53-.77-1.07-1.83-1.73-3.07-2.14-1.36-.45-2.77-.59-4.2-.6-1.83-.02-3.66-.01-5.49-.01q-.3,0-.3,.3v14.67c0,.1,.04,.15,.15,.15h4.38c.87,0,1.74,.01,2.61-.08,1.04-.1,2.06-.31,3.04-.7,2.03-.82,3.34-2.29,3.86-4.43,.38-1.54,.37-3.08,.07-4.63Zm-4.06,3.72c-.36,1.72-1.54,2.85-3.27,3.15-.48,.08-.97,.12-1.46,.11h-1.17c-.12,0-.19-.04-.17-.17v-8.93c-.01-.08,.03-.14,.12-.14,1.02,.02,2.05-.07,3.05,.2,1.7,.46,2.65,1.6,2.94,3.31,.15,.82,.13,1.65-.04,2.47Z"/><path class="cls-4" d="M181.89,43.4c-.41-1.37-1.22-2.44-2.45-3.19-.73-.44-1.52-.73-2.35-.92-1.1-.25-2.22-.35-3.35-.36-1.81-.01-3.62,0-5.43,0-.35,0-.32-.04-.32,.33v14.42c0,.41-.06,.37,.38,.37h4.27c.83,0,1.67,0,2.51-.08,1.09-.11,2.16-.33,3.17-.77,1.83-.78,3.08-2.1,3.62-4.03,.54-1.92,.52-3.86-.05-5.77Zm-3.92,4.78c-.44,1.63-1.53,2.57-3.18,2.89-.46,.1-.93,.13-1.4,.12h-1.23c-.14,.01-.21-.03-.19-.19,.01-.07,0-.14,0-.21v-8.71c0-.09,.04-.13,.13-.13,1.01,.02,2.03-.07,3.02,.19,1.53,.41,2.49,1.38,2.87,2.91,.26,1.04,.26,2.09-.02,3.13Z"/><path class="cls-4" d="M152.75,53.72c-1.83-4.84-3.66-9.67-5.49-14.5-.13-.33-.05-.29-.41-.29h-4.32c-.34,0-.29-.06-.42,.28-1.89,4.84-3.77,9.69-5.66,14.53-.02,.06-.04,.12-.06,.17-.03,.1,0,.14,.1,.14h3.71q.27,0,.36-.26c.31-.88,.61-1.76,.92-2.63,.1-.28,.1-.29,.38-.29h5.18c.27,0,.27,.01,.36,.26,.31,.89,.63,1.78,.93,2.67,.11,.29,.09,.25,.37,.25h3.87c.08,0,.16,.02,.25-.03,.03-.12-.03-.21-.07-.3Zm-10.37-5.73c.63-1.94,1.25-3.86,1.88-5.78,.02,0,.03,0,.05,0,.63,1.92,1.25,3.85,1.88,5.79h-3.81Z"/><path class="cls-4" d="M118.57,53.78c-1.84-4.86-3.68-9.73-5.53-14.59-.11-.29-.06-.26-.36-.26h-4.39c-.34,0-.27-.01-.38,.28-.38,1-.76,2.01-1.14,3.01-1.45,3.83-2.9,7.66-4.35,11.49-.04,.1-.12,.2-.08,.33,.05,0,.09,.01,.13,.01,1.24,0,2.49,0,3.74,.01,.19,0,.24-.09,.29-.24,.32-.9,.64-1.81,.95-2.72,.06-.17,.14-.23,.33-.23,1.69,.01,3.39,.01,5.09,0,.19,0,.26,.07,.32,.24,.3,.89,.62,1.77,.93,2.66q.1,.28,.38,.28h3.86c.09,0,.19,.03,.27-.04,.02-.09-.03-.16-.06-.23Zm-10.23-5.79c.62-1.94,1.25-3.85,1.87-5.77h.07c.62,1.92,1.24,3.83,1.87,5.77h-3.81Z"/><path class="cls-4" d="M165.92,44.11c0,1.36,0,2.72,0,4.08,0,.77-.06,1.53-.29,2.27-.56,1.84-1.81,2.99-3.63,3.55-1.02,.31-2.06,.39-3.12,.34-.8-.04-1.59-.15-2.35-.41-1.98-.67-3.14-2.06-3.52-4.1-.1-.52-.13-1.05-.13-1.59,0-3.01,0-6.01,0-9.02,0-.06,0-.12,0-.18,0-.09,.05-.13,.13-.12,.06,0,.12,0,.18,0,1.11,0,2.23,0,3.34,0,.06,0,.12,0,.18,0,.09,0,.13,.04,.13,.13,0,.08,0,.16,0,.25,0,2.74,0,5.48,0,8.22,0,.66,.02,1.31,.19,1.95,.07,.26,.16,.51,.29,.74,.34,.63,.87,.99,1.57,1.1,.33,.05,.67,.05,1.01,0,.75-.13,1.28-.55,1.61-1.24,.22-.46,.32-.95,.37-1.45,.04-.41,.05-.82,.05-1.23,0-2.7,0-5.4,0-8.1,0-.42-.03-.36,.36-.36,1.11,0,2.23,0,3.34,0,.26,0,.27,0,.27,.27,0,1.64,0,3.27,0,4.91Z"/><path class="cls-4" d="M122.65,31c0-.11,0-.22,0-.33v-8.01c0-.06,0-.12,0-.18,0-.25,0-.26,.25-.26,.51,0,1.02,0,1.53,0,.4,0,.8,0,1.2,0,.16,0,.23,.04,.21,.21,0,.07,0,.14,0,.21,0,4.08,0,8.16,0,12.24,0,.04,0,.08,0,.12,0,.26,0,.27-.27,.27-1.25,0-2.49,0-3.74,0-.22,0-.32-.07-.42-.26-1.42-2.75-2.84-5.5-4.27-8.25-.05-.09-.08-.2-.21-.32v.38c0,2.68,0,5.36,0,8.04,0,.06,0,.12,0,.18,0,.22,0,.23-.22,.23-.32,0-.63,0-.95,0-.58,0-1.17,0-1.75,0-.26,0-.27,0-.27-.27,0-1.47,0-2.95,0-4.42,0-2.65,0-5.3,0-7.95,0-.07,0-.14,0-.21-.02-.17,.06-.2,.21-.2,1.35,0,2.7,0,4.05,0,.19,0,.24,.1,.31,.23,.85,1.7,1.7,3.4,2.55,5.1,.58,1.15,1.15,2.3,1.73,3.45h.06Z"/><path class="cls-4" d="M183.27,46.5c0-2.37,0-4.75,0-7.12,0-.05,0-.1,0-.15,0-.32-.02-.3,.3-.3,2.98,0,5.95,0,8.93,0,.36,0,.72,0,1.07,0,.14,0,.2,.03,.2,.19,0,.84,0,1.68,0,2.52,0,.14-.05,.17-.18,.17-.4,0-.8,0-1.2,0-1.6,0-3.19,0-4.79,0-.08,0-.16,0-.25,0-.08,0-.11,.04-.11,.11,0,.04,0,.08,0,.12,0,.9,0,1.8,0,2.7,0,.25,0,.25,.25,.25,1.86,0,3.72,0,5.58,0,.42,0,.36-.04,.37,.35,0,.74,0,1.47,0,2.21,0,.3,.03,.29-.3,.29-1.82,0-3.64,0-5.46,0-.07,0-.14,0-.21,0-.22,0-.22,0-.22,.22,0,.47,0,.94,0,1.41,0,.48,0,.96,0,1.44,0,.31,0,.28,.29,.28,2.06,0,4.11,0,6.17,0,.45,0,.38-.07,.38,.39,0,.75,0,1.49,0,2.24,0,.22,0,.22-.22,.22-.51,0-1.02,0-1.53,0-2.88,0-5.77,0-8.65,0-.08,0-.16,0-.25,0-.11,0-.17-.03-.17-.16,0-.08,0-.16,0-.25,0-2.38,0-4.77,0-7.15Z"/><path class="cls-4" d="M176.21,33.54c-.37-1.03-.74-2.05-1.15-3.07-.24-.61-.57-1.13-1.21-1.38-.01,0-.01-.02-.02-.03,.01,0,.02-.01,.03-.01,.09-.03,.17-.05,.26-.08,.7-.21,1.29-.59,1.65-1.24,.56-1.02,.67-2.1,.27-3.2-.33-.91-1.04-1.46-1.92-1.81-.67-.26-1.36-.34-2.08-.34h-5.79c-.35,0-.33-.01-.33,.34v12.27q0,.28,.29,.28h2.91c.1,0,.15-.04,.15-.15-.01-.07,0-.14,0-.21v-4.57c-.02-.12,.04-.16,.16-.16,.25,.01,.51,.01,.76,.01,.71-.01,1.21,.33,1.54,.94,.21,.38,.36,.79,.5,1.21,.31,.95,.63,1.9,.93,2.86,.05,.17,.13,.24,.32,.23,1.06-.01,2.13,0,3.19,0,.06,0,.14,.02,.21-.06-.22-.6-.45-1.22-.67-1.83Zm-4.06-6.14c-.33,.21-.7,.3-1.07,.34-.54,.07-1.08,.05-1.62,.06-.15,0-.2-.05-.2-.19,.01-.44,.01-.88,.01-1.32s0-.9-.01-1.35c0-.13,.04-.18,.18-.18,.67,.01,1.35-.02,2.01,.1,.15,.03,.3,.07,.44,.12,.5,.17,.82,.51,.87,1.05,.05,.56-.11,1.05-.61,1.37Z"/><path class="cls-4" d="M154.79,28.74v-6.14c0-.06,0-.12,0-.18-.02-.17,.06-.2,.21-.2,.7,0,1.39,0,2.09,0,2.15,0,4.29,0,6.44,0,.37,0,.33-.03,.33,.32,0,.64,0,1.29,0,1.93,0,.28,0,.28-.29,.28-1.69,0-3.37,0-5.06,0-.44,0-.39-.05-.39,.4,0,.68,0,1.35,0,2.03,0,.28,0,.28,.29,.28,1.59,0,3.17,0,4.76,0,.07,0,.14,0,.21,0,.12,0,.16,.05,.16,.17,0,.69,0,1.37,0,2.06,0,.12-.05,.17-.16,.16-.07,0-.14,0-.21,0-1.54,0-3.09,0-4.63,0-.07,0-.14,0-.21,0-.15-.01-.2,.05-.19,.2,0,.49,0,.98,0,1.47,0,.39,0,.78,0,1.17,0,.14,.04,.21,.19,.2,.07,0,.14,0,.21,0,1.76,0,3.52,0,5.28,0,.07,0,.14,0,.21,0,.12,0,.16,.05,.16,.16,0,.69,0,1.37,0,2.06,0,.12-.04,.17-.16,.16-.06,0-.12,0-.18,0-2.89,0-5.79,0-8.68,0-.02,0-.04,0-.06,0-.3,0-.3,0-.3-.3,0-2.08,0-4.15,0-6.23Z"/><path class="cls-4" d="M143.01,25.07c-.49-.22-.95-.39-1.43-.48-.91-.17-1.83-.21-2.74-.04-.15,.03-.3,.07-.44,.14-.39,.19-.61,.5-.63,.94-.03,.43,.18,.72,.53,.93,.3,.18,.63,.29,.96,.39,.68,.21,1.38,.37,2.05,.62,.48,.18,.94,.4,1.35,.71,.6,.45,1,1.05,1.18,1.78,.2,.83,.17,1.66-.08,2.48-.3,.97-.94,1.66-1.83,2.13-.71,.38-1.49,.58-2.28,.67-1.43,.17-2.86,.11-4.26-.23-.28-.07-.55-.16-.82-.26-.09-.04-.15-.08-.15-.2,.05-.84,.1-1.67,.16-2.52,.1-.02,.17,.04,.24,.07,1.34,.58,2.75,.77,4.2,.64,.18-.02,.36-.07,.54-.12,.92-.3,.91-1.44,.45-1.89-.22-.22-.48-.37-.77-.5-.47-.21-.96-.35-1.45-.5-.61-.19-1.22-.4-1.79-.71-.77-.42-1.38-.99-1.67-1.84-.31-.91-.32-1.83-.01-2.74,.26-.77,.78-1.33,1.47-1.75,.65-.39,1.36-.62,2.1-.73,1.53-.24,3.06-.21,4.57,.1,.19,.04,.37,.11,.56,.16,.1,.03,.16,.07,.15,.19-.05,.84-.1,1.67-.16,2.56Z"/><path class="cls-4" d="M150.49,30.11v4.75c0,.07,0,.14,0,.21,.02,.15-.05,.2-.19,.2-.34,0-.67,0-1.01,0-.66,0-1.33,0-1.99,0-.3,0-.3,0-.3-.3,0-2.08,0-4.15,0-6.23,0-1.19,0-2.37,0-3.56,0-.26,0-.27-.27-.27-.89,0-1.78,0-2.67,0-.24,0-.25,0-.25-.22,0-.76,0-1.51,0-2.27,0-.16,.04-.23,.21-.21,.1,.01,.2,0,.31,0,3,0,6.01,0,9.01,0,.39,0,.34-.04,.34,.34,0,.67,0,1.35,0,2.02,0,.38,.04,.33-.35,.34-.84,0-1.68,0-2.51,0-.34,0-.32-.04-.32,.31,0,1.63,0,3.25,0,4.88Z"/><path class="cls-4" d="M111.2,28.73c0,2.05,0,4.09,0,6.14,0,.07,0,.14,0,.21,.01,.15-.05,.2-.2,.19-.33,0-.65,0-.98,0-.7,0-1.39,0-2.09,0-.23,0-.24,0-.24-.24,0-1.2,0-2.39,0-3.59,0-2.92,0-5.85,0-8.77,0-.07,0-.14,0-.21,0-.23,0-.23,.24-.23,.99,0,1.98,0,2.97,0,.3,0,.28-.02,.28,.28,0,1.91,0,3.82,0,5.74v.49Z"/><path class="cls-4" d="M177.69,28.73c0-2.04,0-4.07,0-6.11,0-.07,0-.14,0-.21-.02-.15,.05-.2,.19-.19,.53,0,1.06,0,1.59,0,.5,0,1,0,1.5,0,.15,0,.23,.03,.21,.2,0,.06,0,.12,0,.18,0,4.1,0,8.2,0,12.3,0,.4,.05,.36-.36,.36-.93,0-1.86,0-2.79,0-.05,0-.1,0-.15,0-.14,.01-.22-.03-.2-.19,0-.07,0-.14,0-.21,0-2.05,0-4.09,0-6.14Z"/><path class="cls-4" d="M131.89,28.73c0,2.05,0,4.09,0,6.14,0,.07,0,.14,0,.21,.01,.15-.05,.2-.2,.19-.31,0-.61,0-.92,0-.72,0-1.43,0-2.15,0-.23,0-.24,0-.24-.24,0-1.26,0-2.52,0-3.77,0-2.86,0-5.73,0-8.59,0-.07,0-.14,0-.21,0-.23,0-.23,.24-.23,.99,0,1.98,0,2.97,0,.3,0,.29-.02,.29,.28,0,1.95,0,3.91,0,5.86v.37Z"/><path class="cls-25" d="M157.55,38.71c1.29-.4,2.59-.8,3.92-1.21,0,.4,0,.77,0,1.14,0,.09-.05,.13-.13,.13-.04,0-.08,0-.12,0-1.19,0-2.39,0-3.58,0-.03,0-.05,0-.08-.01v-.06Z"/><path class="cls-53" d="M157.54,20.88l3.93-1.21c0,.41,0,.78,0,1.14,0,.09-.04,.13-.13,.12-.03,0-.06,0-.09,0-1.2,0-2.39,0-3.59,0-.04,0-.07,0-.11,0v-.05Z"/><path class="cls-2" d="M186.14,28.66c0-.67,.08-1.39,.32-2.08,.1-.28,.22-.55,.39-.8,.49-.73,1.18-1.12,2.05-1.17,1.31-.08,2.24,.49,2.8,1.67,.26,.55,.4,1.14,.45,1.74,.08,.9,.04,1.8-.22,2.67-.1,.32-.23,.63-.41,.92-.45,.72-1.1,1.14-1.95,1.23-.33,.03-.65,.06-.98,.02-.8-.1-1.39-.51-1.79-1.19-.33-.54-.48-1.14-.58-1.76-.06-.4-.07-.79-.07-1.25Z"/></svg>