<?xml version="1.0" encoding="UTF-8"?><svg id="Camada_1" xmlns="http://www.w3.org/2000/svg" viewBox="0 0 53.8 17.51"><defs><style>.cls-1{fill:#fff;}.cls-2{fill:#212b73;}.cls-3{fill:#232d74;}.cls-4{fill:#222c73;}</style></defs><path class="cls-2" d="M20.03,17.51c-.15-.05-.3-.04-.45-.06-.34-.05-.67-.11-.99-.21-.11-.04-.11-.04-.1-.16,.07-.54,.15-1.08,.22-1.61,.05,0,.08,.02,.11,.03,.48,.25,1,.37,1.54,.41,.32,.02,.64,.03,.95-.03,.15-.03,.29-.07,.42-.14,.38-.21,.46-.67,.17-1-.11-.13-.25-.21-.4-.28-.24-.11-.5-.18-.76-.26-.32-.09-.63-.18-.93-.31-.28-.12-.54-.27-.76-.48-.31-.3-.48-.67-.54-1.1-.05-.37-.04-.73,.07-1.08,.15-.5,.47-.86,.91-1.12,.39-.23,.81-.36,1.24-.43,.77-.12,1.53-.11,2.3,.03,.2,.04,.39,.09,.57,.17,.05,.02,.08,.05,.07,.12-.05,.5-.1,.99-.15,1.48-.04,.03-.07,0-.1,0-.63-.25-1.29-.32-1.97-.26-.18,.02-.36,.05-.52,.12-.1,.04-.19,.09-.27,.17-.24,.23-.24,.6,.02,.81,.12,.1,.26,.17,.4,.22,.33,.13,.68,.21,1.02,.31,.32,.1,.64,.21,.94,.37,.42,.23,.75,.55,.9,1.01,.23,.68,.19,1.35-.13,1.99-.22,.45-.6,.74-1.06,.95-.4,.18-.83,.26-1.27,.31-.05,0-.1-.01-.15,.03h-1.3Z"/><path class="cls-2" d="M53.8,4.92c-.04,.05-.02,.12-.03,.18-.05,.63-.24,1.22-.63,1.73-.38,.5-.89,.8-1.49,.95-.78,.2-1.57,.2-2.34-.03-.94-.28-1.56-.89-1.85-1.82-.28-.9-.28-1.81,0-2.72,.29-.95,.92-1.57,1.88-1.85,.8-.23,1.6-.23,2.4,0,1.05,.3,1.68,1.01,1.95,2.05,.06,.22,.1,.44,.1,.67,0,.04,0,.09,.03,.13v.71Z"/><path class="cls-2" d="M6.64,2.87c-.06,.06-.06,.11-.08,.16-.52,1.55-1.03,3.1-1.55,4.65,0,.02-.02,.05-.02,.07-.01,.08-.06,.09-.13,.09-.21,0-.41,0-.62,0-.24,0-.48,0-.72,0-.17,0-.15,.02-.2-.14-.29-.9-.57-1.8-.86-2.7-.21-.67-.42-1.33-.63-2-.01-.04,0-.08-.06-.11V7.63s0,.07,0,.11c0,.07-.03,.1-.1,.1,0,0-.01,0-.02,0-.48,0-.97,0-1.45,0-.11,0-.11,0-.11-.11,0-.03,0-.05,0-.08,0-2.06,0-4.12,0-6.18,0-.21-.03-.19,.19-.19,.79,0,1.57,0,2.36,0,.21,0,.17-.02,.22,.17,.42,1.36,.84,2.72,1.26,4.07,.02,.05,0,.14,.09,.14,.08,0,.07-.09,.09-.14,.45-1.37,.9-2.73,1.34-4.1,.05-.15,.05-.15,.2-.15,.78,0,1.56,0,2.34,0,.03,0,.06,0,.09,0,.04,0,.05,.02,.05,.06v.11c0,2.07,0,4.14,0,6.21,0,.03,0,.05,0,.08,0,.07-.02,.1-.09,.1-.5,0-1,0-1.5,0-.07,0-.09-.03-.09-.09,0-.04,0-.07,0-.11,0-1.53,0-3.05,0-4.58v-.19Z"/><path class="cls-2" d="M0,13.47c0-1.18,0-2.36,0-3.55,0-.03,0-.06,0-.09,0-.15,0-.15,.15-.15,.92,0,1.84,0,2.76,0,.72,0,1.43,.08,2.11,.3,.62,.21,1.15,.54,1.54,1.08,.28,.38,.44,.81,.53,1.27,.15,.78,.15,1.55-.03,2.32-.26,1.08-.92,1.82-1.94,2.23-.49,.2-1,.3-1.53,.35-.44,.04-.87,.04-1.31,.04-.7,0-1.4,0-2.1,0-.04,0-.07,0-.11,0-.05,0-.07-.02-.07-.08,0-.04,0-.08,0-.12,0-1.2,0-2.41,0-3.61Z"/><path class="cls-2" d="M39.9,13.47c0-1.21,0-2.42,0-3.62,0-.19-.02-.17,.16-.17,.91,0,1.82,0,2.73,0,.57,0,1.13,.05,1.68,.18,.42,.1,.82,.24,1.19,.46,.62,.38,1.03,.92,1.23,1.6,.29,.96,.3,1.94,.02,2.9-.27,.97-.9,1.63-1.82,2.02-.51,.22-1.05,.33-1.6,.38-.42,.04-.84,.04-1.26,.04-.68,0-1.37,0-2.05,0-.03,0-.06,0-.09,0-.22,0-.19,.02-.19-.19,0-.47,0-.94,0-1.4v-2.22Z"/><path class="cls-2" d="M32.27,17.26s-.09,.01-.13,.01c-.65,0-1.29,0-1.94,0-.14,0-.13,.02-.18-.13-.16-.45-.31-.89-.47-1.34-.05-.13-.05-.13-.18-.13-.87,0-1.74,0-2.61,0-.14,0-.14,0-.19,.14-.15,.44-.31,.88-.46,1.32-.05,.13-.05,.13-.18,.13-.6,0-1.19,0-1.79,0-.03,0-.05,0-.08,0-.05,0-.07-.02-.05-.07,0-.03,.02-.06,.03-.09,.95-2.44,1.9-4.87,2.84-7.3,.07-.17,.04-.14,.21-.14,.72,0,1.45,0,2.17,0,.18,0,.14-.02,.2,.14,.92,2.43,1.84,4.86,2.76,7.29,.02,.05,.05,.09,.04,.15Z"/><path class="cls-2" d="M15.09,17.26s-.09,.02-.13,.02c-.65,0-1.3,0-1.94,0-.14,0-.14,0-.19-.14-.16-.45-.31-.89-.47-1.34-.03-.08-.07-.12-.16-.12-.85,0-1.71,0-2.56,0-.09,0-.13,.03-.16,.12-.15,.46-.32,.91-.48,1.37-.03,.08-.05,.12-.15,.12-.63,0-1.25,0-1.88,0-.02,0-.04,0-.06,0-.02-.06,.02-.11,.04-.16,.73-1.93,1.46-3.85,2.19-5.78,.19-.5,.38-1.01,.57-1.51,.05-.14,.02-.14,.19-.14,.73,0,1.47,0,2.2,0,.15,0,.13-.01,.18,.13,.93,2.44,1.85,4.89,2.78,7.33,.01,.04,.04,.07,.03,.12Z"/><path class="cls-2" d="M38.85,12.28c0,.68,0,1.37,0,2.05,0,.39-.03,.77-.14,1.14-.28,.93-.91,1.5-1.82,1.78-.51,.16-1.04,.2-1.57,.17-.4-.02-.8-.07-1.18-.2-1-.34-1.58-1.03-1.77-2.06-.05-.26-.07-.53-.07-.8,0-1.51,0-3.02,0-4.53,0-.03,0-.06,0-.09,0-.05,.02-.06,.07-.06,.03,0,.06,0,.09,0,.56,0,1.12,0,1.68,0,.03,0,.06,0,.09,0,.04,0,.07,.02,.07,.06,0,.04,0,.08,0,.12,0,1.38,0,2.76,0,4.13,0,.33,0,.66,.1,.98,.04,.13,.08,.25,.15,.37,.17,.32,.44,.5,.79,.55,.17,.03,.34,.03,.51,0,.38-.06,.64-.28,.81-.62,.11-.23,.16-.48,.18-.73,.02-.2,.03-.41,.03-.62,0-1.36,0-2.71,0-4.07,0-.21-.02-.18,.18-.18,.56,0,1.12,0,1.68,0,.13,0,.13,0,.13,.14,0,.82,0,1.64,0,2.47Z"/><path class="cls-2" d="M17.11,5.69c0-.05,0-.11,0-.16V1.5s0-.06,0-.09c0-.13,0-.13,.12-.13,.26,0,.51,0,.77,0,.2,0,.4,0,.6,0,.08,0,.11,.02,.1,.1,0,.04,0,.07,0,.11V7.64s0,.04,0,.06c0,.13,0,.13-.13,.13-.63,0-1.25,0-1.88,0-.11,0-.16-.04-.21-.13-.71-1.38-1.43-2.76-2.14-4.15-.02-.05-.04-.1-.11-.16V7.63s0,.06,0,.09c0,.11,0,.11-.11,.11-.16,0-.32,0-.48,0-.29,0-.59,0-.88,0-.13,0-.13,0-.13-.14,0-.74,0-1.48,0-2.22,0-1.33,0-2.66,0-3.99,0-.04,0-.07,0-.11-.01-.09,.03-.1,.11-.1,.68,0,1.36,0,2.03,0,.09,0,.12,.05,.16,.12,.43,.85,.85,1.71,1.28,2.56,.29,.58,.58,1.16,.87,1.74h.03Z"/><path class="cls-2" d="M47.57,13.48c0-1.19,0-2.38,0-3.58,0-.03,0-.05,0-.08,0-.16,0-.15,.15-.15,1.5,0,2.99,0,4.49,0,.18,0,.36,0,.54,0,.07,0,.1,.02,.1,.09,0,.42,0,.84,0,1.26,0,.07-.03,.09-.09,.09-.2,0-.4,0-.6,0-.8,0-1.6,0-2.4,0-.04,0-.08,0-.12,0-.04,0-.06,.02-.06,.06,0,.02,0,.04,0,.06,0,.45,0,.9,0,1.36,0,.12,0,.13,.13,.13,.94,0,1.87,0,2.81,0,.21,0,.18-.02,.18,.18,0,.37,0,.74,0,1.11,0,.15,.02,.15-.15,.15-.91,0-1.83,0-2.74,0-.04,0-.07,0-.11,0-.11,0-.11,0-.11,.11,0,.24,0,.47,0,.71,0,.24,0,.48,0,.72,0,.16,0,.14,.14,.14,1.03,0,2.07,0,3.1,0,.22,0,.19-.03,.19,.2,0,.38,0,.75,0,1.13,0,.11,0,.11-.11,.11-.26,0-.51,0-.77,0-1.45,0-2.9,0-4.35,0-.04,0-.08,0-.12,0-.06,0-.09-.02-.08-.08,0-.04,0-.08,0-.12,0-1.2,0-2.4,0-3.59Z"/><path class="cls-2" d="M42.83,4.72h0c.32,.14,.49,.4,.61,.71,.2,.51,.39,1.03,.58,1.54,.11,.31,.22,.62,.33,.92-.03,.04-.07,.03-.11,.03-.53,0-1.07,0-1.6,0-.09,0-.13-.03-.16-.12-.15-.48-.31-.96-.47-1.44-.07-.21-.15-.42-.25-.61-.17-.3-.42-.47-.77-.47-.13,0-.26,0-.39,0-.06,0-.09,.02-.08,.08,0,.04,0,.07,0,.11,0,.73,0,1.46,0,2.19,0,.04,0,.07,0,.11,0,.05-.02,.07-.07,.07-.03,0-.06,0-.09,0-.46,0-.91,0-1.37,0-.14,0-.14,0-.14-.14,0-.9,0-1.81,0-2.71,0-1.15,0-2.3,0-3.45,0-.18-.01-.17,.17-.17,.97,0,1.94,0,2.91,0,.36,0,.71,.04,1.04,.17,.44,.17,.8,.45,.97,.91,.2,.55,.14,1.09-.14,1.61-.18,.33-.48,.52-.83,.62-.04,.01-.09,.03-.13,.04h-.01Z"/><path class="cls-2" d="M33.26,4.56V1.47s0-.06,0-.09c-.01-.08,.03-.1,.11-.1,.35,0,.7,0,1.05,0,1.08,0,2.16,0,3.24,0,.19,0,.17-.02,.17,.16,0,.32,0,.65,0,.97,0,.14,0,.14-.14,.14-.85,0-1.7,0-2.54,0-.22,0-.19-.02-.2,.2,0,.34,0,.68,0,1.02,0,.14,0,.14,.14,.14,.8,0,1.59,0,2.39,0,.04,0,.07,0,.11,0,.06,0,.08,.03,.08,.08,0,.34,0,.69,0,1.03,0,.06-.02,.08-.08,.08-.04,0-.07,0-.11,0h-2.33s-.07,0-.11,0c-.07,0-.1,.03-.1,.1,0,.25,0,.49,0,.74,0,.2,0,.39,0,.59,0,.07,.02,.11,.1,.1,.04,0,.07,0,.11,0h2.65s.07,0,.11,0c.06,0,.08,.02,.08,.08,0,.34,0,.69,0,1.03,0,.06-.02,.09-.08,.08-.03,0-.06,0-.09,0-1.45,0-2.91,0-4.36,0-.01,0-.02,0-.03,0-.15,0-.15,0-.15-.15,0-1.04,0-2.09,0-3.13Z"/><path class="cls-2" d="M27.34,2.71c-.25-.11-.48-.2-.72-.24-.46-.09-.92-.11-1.38-.02-.08,.01-.15,.04-.22,.07-.2,.1-.3,.25-.32,.47-.01,.22,.09,.36,.27,.47,.15,.09,.32,.15,.48,.2,.34,.1,.69,.18,1.03,.31,.24,.09,.47,.2,.68,.36,.3,.23,.5,.53,.59,.89,.1,.42,.09,.84-.04,1.25-.15,.49-.47,.83-.92,1.07-.36,.19-.75,.29-1.15,.34-.72,.08-1.44,.05-2.14-.12-.14-.03-.28-.08-.41-.13-.05-.02-.08-.04-.07-.1,.03-.42,.05-.84,.08-1.27,.05,0,.09,.02,.12,.03,.68,.29,1.38,.39,2.11,.32,.09,0,.18-.03,.27-.06,.46-.15,.46-.72,.23-.95-.11-.11-.24-.19-.39-.25-.24-.1-.48-.17-.73-.25-.31-.1-.62-.2-.9-.36-.39-.21-.69-.5-.84-.92-.16-.46-.16-.92,0-1.38,.13-.39,.39-.67,.74-.88,.33-.2,.68-.31,1.06-.37,.77-.12,1.54-.11,2.3,.05,.1,.02,.19,.05,.28,.08,.05,.01,.08,.04,.07,.1-.03,.42-.05,.84-.08,1.28Z"/><path class="cls-2" d="M31.1,5.24v2.39s0,.07,0,.11c0,.07-.02,.1-.1,.1-.17,0-.34,0-.51,0-.33,0-.67,0-1,0-.15,0-.15,0-.15-.15,0-1.04,0-2.09,0-3.13,0-.6,0-1.19,0-1.79,0-.13,0-.13-.13-.13-.45,0-.89,0-1.34,0-.12,0-.12,0-.12-.11,0-.38,0-.76,0-1.14,0-.08,.02-.11,.1-.11,.05,0,.1,0,.15,0,1.51,0,3.02,0,4.53,0,.2,0,.17-.02,.17,.17,0,.34,0,.68,0,1.02,0,.19,.02,.17-.18,.17-.42,0-.84,0-1.26,0-.17,0-.16-.02-.16,.15,0,.82,0,1.63,0,2.45Z"/><path class="cls-2" d="M11.36,4.55c0,1.03,0,2.06,0,3.08,0,.04,0,.07,0,.11,0,.07-.03,.1-.1,.1-.16,0-.33,0-.49,0-.35,0-.7,0-1.05,0-.12,0-.12,0-.12-.12,0-.6,0-1.2,0-1.8,0-1.47,0-2.94,0-4.41,0-.04,0-.07,0-.11,0-.11,0-.12,.12-.12,.5,0,1,0,1.49,0,.15,0,.14,0,.14,.14,0,.96,0,1.92,0,2.88v.25Z"/><path class="cls-2" d="M44.77,4.55V1.48s0-.07,0-.11c0-.07,.02-.1,.1-.1,.27,0,.53,0,.8,0,.25,0,.5,0,.76,0,.08,0,.12,.02,.11,.1,0,.03,0,.06,0,.09,0,2.06,0,4.12,0,6.18,0,.2,.03,.18-.18,.18-.47,0-.94,0-1.4,0-.03,0-.05,0-.08,0-.07,0-.11-.02-.1-.09,0-.04,0-.07,0-.11v-3.08Z"/><path class="cls-2" d="M21.75,4.55v3.08s0,.07,0,.11c0,.08-.03,.1-.1,.1-.15,0-.31,0-.46,0-.36,0-.72,0-1.08,0-.12,0-.12,0-.12-.12,0-.63,0-1.26,0-1.9,0-1.44,0-2.88,0-4.32,0-.04,0-.07,0-.11,0-.11,0-.12,.12-.12,.5,0,1,0,1.49,0,.15,0,.14,0,.14,.14,0,.98,0,1.96,0,2.94v.19Z"/><path class="cls-3" d="M34.65,9.56l1.97-.61c0,.2,0,.39,0,.58,0,.05-.02,.06-.07,.06h-.06c-.6,0-1.2,0-1.8,0-.01,0-.03,0-.04,0v-.03Z"/><path class="cls-4" d="M34.64,.61l1.98-.61c0,.21,0,.39,0,.57,0,.05-.02,.06-.07,.06-.02,0-.03,0-.05,0-.6,0-1.2,0-1.8,0-.02,0-.04,0-.06,0v-.02Z"/><path class="cls-1" d="M49.01,4.52c0-.34,.04-.7,.16-1.04,.05-.14,.11-.28,.2-.4,.24-.37,.59-.56,1.03-.59,.66-.04,1.12,.24,1.41,.84,.13,.28,.2,.57,.23,.87,.04,.45,.02,.9-.11,1.34-.05,.16-.11,.32-.2,.46-.23,.36-.55,.57-.98,.62-.16,.02-.33,.03-.49,0-.4-.05-.7-.26-.9-.6-.16-.27-.24-.57-.29-.89-.03-.2-.04-.4-.04-.63Z"/><path class="cls-1" d="M2,13.52c0-.71,0-1.43,0-2.14,0-.04,0-.07,0-.11,0-.04,.02-.07,.06-.07,.51,0,1.03-.04,1.53,.1,.86,.23,1.33,.81,1.48,1.67,.07,.41,.06,.83-.02,1.24-.18,.86-.77,1.43-1.64,1.58-.24,.04-.49,.06-.74,.06-.2,0-.39,0-.59,0-.06,0-.1-.02-.09-.09,0-.03,0-.06,0-.09v-2.14Z"/><path class="cls-1" d="M41.9,13.51c0-.71,0-1.43,0-2.14,0-.04,0-.07,0-.11,0-.05,.02-.07,.07-.06,.51,0,1.02-.04,1.52,.09,.77,.2,1.25,.69,1.45,1.46,.13,.52,.13,1.05-.01,1.57-.22,.82-.77,1.29-1.6,1.46-.23,.05-.47,.06-.7,.06-.21,0-.41,0-.62,0-.07,0-.11-.02-.1-.1,0-.04,0-.07,0-.11,0-.71,0-1.42,0-2.13Z"/><path class="cls-1" d="M28,11.32l.94,2.91h-1.91l.94-2.91h.03Z"/><path class="cls-1" d="M11.83,14.23h-1.91l.94-2.9h.03l.94,2.9Z"/><path class="cls-1" d="M40.54,3.32c0-.23,0-.45,0-.68,0-.06,.02-.09,.09-.09,.34,0,.68-.01,1.01,.05,.08,.01,.15,.03,.22,.06,.25,.09,.41,.26,.43,.52,.03,.28-.05,.53-.31,.69-.16,.11-.35,.15-.54,.17-.27,.03-.54,.02-.81,.03-.07,0-.1-.02-.1-.1,0-.22,0-.44,0-.66Z"/></svg>