<?xml version="1.0" encoding="UTF-8"?><svg id="Camada_1" xmlns="http://www.w3.org/2000/svg" viewBox="0 0 287.92 149.99"><defs><style>.cls-1{fill:#015aab;}.cls-2{fill:#0d62ae;}.cls-3{fill:#005aaa;}</style></defs><path class="cls-3" d="M157.05,50.21c43.29,0,85.33,.03,127.37-.06,3.04,0,3.51,1.16,3.49,3.8-.11,13.82-.12,27.63,0,41.45,.02,2.74-.63,3.72-3.56,3.7-17.31-.13-34.63-.12-51.94,0-2.52,.02-3.95-1.23-5.49-2.8-13.16-13.44-26.38-26.82-39.48-40.32-1.99-2.05-4.02-3.01-6.89-3.22-7.44-.56-14.92-.83-23.51-2.55Z"/><path class="cls-3" d="M229.12,103.69c-25.99,.95-51.52-.93-77.03-3.24-.66-.06-1.32-.16-1.98-.24-4.07-.52-9.54,.89-11.8-2.03-1.96-2.55-.72-7.63-.74-11.59-.05-10.64,.07-21.29-.07-31.93-.04-3.12,.41-4.38,4.07-3.83,12.33,1.85,24.75,3.03,37.21,3.67,1.86,.09,3.5,.35,4.94,1.82,14.99,15.35,30.04,30.65,45.05,45.97,.19,.19,.15,.6,.34,1.42Z"/><path class="cls-3" d="M212.54,47.38c-6.83,0-13.66-.09-20.48,.04-2.56,.05-3.48-.72-3.46-3.38,.11-13.66,.1-27.31,0-40.97-.02-2.42,.81-3.1,3.16-3.08,14.16,.09,28.31,.08,42.47,0,2.27-.01,3.27,.51,3.25,3.02-.09,13.66-.09,27.31,0,40.97,.02,2.61-.86,3.49-3.47,3.44-7.16-.14-14.32-.05-21.48-.05Z"/><path class="cls-3" d="M209.14,106.48c6.81,0,13.63,.16,20.43-.08,2.6-.09,3.37,.49,3.6,3.12,1.09,12.24,2.3,24.48,3.79,36.68,.41,3.38-.7,3.81-3.63,3.78-13.63-.13-27.26-.14-40.88,0-2.7,.03-3.78-.83-4.22-3.43-2.09-12.31-3.16-24.71-3.47-37.19-.07-2.74,.88-3.33,3.47-3.14,6.96,.49,13.93,.69,20.9,1v-.75Z"/><path class="cls-1" d="M107.92,51.43c2.5,0,5,.1,7.49-.03,2.43-.13,3.59,.53,3.59,3.3,0,2.66-.88,3.51-3.46,3.36-2.98-.18-5.99-.03-8.98-.02-2.66,0-4.58,1.2-5.09,3.84-.53,2.76,1.09,4.34,3.58,5.17,2.21,.74,4.42,1.46,6.63,2.21,8.3,2.83,12.3,9.3,11.22,18.14-.93,7.56-7.28,13.85-15.05,14.31-5.97,.35-11.98-.03-17.97,.16-3.18,.1-2.87-1.83-2.92-3.88-.06-2.19,0-3.92,3.05-3.77,4.15,.2,8.32-.02,12.48,.06,3.53,.07,5.87-1.49,6.35-4.97,.49-3.5-1.44-5.6-4.8-6.52-2.73-.75-5.45-1.52-8.12-2.45-7.21-2.51-11.1-8.88-10.09-16.37,.91-6.72,6.38-11.81,13.62-12.42,2.81-.24,5.65-.04,8.48-.04v-.09Z"/><path class="cls-3" d="M41.91,70.66c0-5.15,.19-10.32-.06-15.46-.25-5.26,3.88-3.74,5.77-3.17,3.12,.94,8.92-3.97,9.27,3.15,.48,9.79,.1,19.61,.13,29.42,.02,6.62,3.2,10.29,8.78,10.27,5.54-.02,8.83-3.78,8.86-10.3,.05-9.64,.07-19.29-.02-28.93-.02-2.51,.22-3.95,3.4-3.94,3.15,.01,3.9,1.09,3.85,4.05-.17,9.81,.06,19.62-.1,29.43-.17,10.56-8.52,18.14-19.72,18.19-11.53,.05-19.94-7.53-20.14-18.25-.09-4.82-.01-9.64-.02-14.46Z"/><path class="cls-3" d="M12.91,101.82c-2.49,0-5-.16-7.48,.04-2.9,.23-4.15-.57-4.15-3.79,0-3.19,1.19-4,4.12-3.86,3.98,.2,7.98,.02,11.97,.05,3.08,.02,5.15-1.38,5.79-4.39,.68-3.23-.75-5.59-3.79-6.7-2.8-1.03-5.75-1.65-8.59-2.59C3.57,78.22-.69,71.76,.09,64.53c.76-7.03,6.62-12.56,14.21-12.98,5.31-.29,10.64-.01,15.96-.15,2.46-.07,3.06,.98,3.11,3.26,.06,2.57-.74,3.58-3.4,3.41-2.98-.2-5.98-.07-8.98-.02-2.61,.04-4.58,1.12-5.03,3.86-.45,2.76,1.04,4.36,3.58,5.17,2.22,.7,4.43,1.43,6.63,2.19,8.06,2.77,12,9.45,10.85,18.38-1.01,7.87-7.5,13.78-15.64,14.14-2.82,.12-5.65,.02-8.48,.02v.02Z"/><path class="cls-2" d="M238.76,135.54c-3.18-11.81-1.12-23-4.4-33.62,3-1.03,4.55-.31,4.47,3.62-.2,9.65-.07,19.31-.07,30Z"/></svg>