<?xml version="1.0" encoding="UTF-8"?><svg id="Camada_1" xmlns="http://www.w3.org/2000/svg" viewBox="0 0 225.34 169.97"><defs><style>.cls-1{fill:#16914f;}.cls-2{fill:#090909;}.cls-3{fill:#f6f6f6;}.cls-4{fill:#0a0a0a;}.cls-5{fill:#851a22;}.cls-6{fill:#ed3335;}.cls-7{fill:#080808;}.cls-8{fill:#fbfbfb;}.cls-9{fill:#f9f9f9;}.cls-10{fill:#387abe;}.cls-11{fill:#f58632;}.cls-12{fill:#123c63;}.cls-13{fill:#fec72b;}.cls-14{fill:#a7cf50;}</style></defs><path class="cls-11" d="M119.05,66.3c-6.04,.74-11.63,3.2-17.51,4.59-20.42,4.82-40.94,7.07-61.72,2.44-3.26-.73-6.38-2.03-9.58-3.03-6.69-2.1-9.02-7.13-9.35-13.86,7.83,7.44,17.76,7.91,27.34,8.45,23.43,1.3,46.47-1.11,68.72-9.08,1.39-.5,2.69-1.2,4.04-1.81,4.74-2.55,9.34-5.43,14.87-6.03,1.62,2.97,1.51,6.56,3.35,9.45-.38,1.42-1.74,1.64-2.79,2.14-5.63,2.65-11.2,5.48-17.37,6.74Z"/><path class="cls-14" d="M140.89,68.28c.17,3.25,.34,6.5,.51,9.75-.13,1.46-1.26,2.05-2.34,2.62-8.09,4.29-16.62,7.51-25.29,10.39-.83,.28-1.69,.38-2.54,.07-12.11,2.77-24.39,4.66-36.75,5.74-11.27,.98-22.57,1.17-33.68-1.91-4.8-1.33-8.17-3.94-9.89-8.69-.7-1.93-1.69-3.75-2.74-6.03,13.15,7.29,26.85,7.82,40.88,6.83,15.43-1.08,30.54-3.67,45.28-8.38,.7-.22,1.38-.54,2.06-.81,1.02-1.16,2.41-1.64,3.82-2.13,5.82-2,11.51-4.36,17.19-6.73,1.11-.46,2.17-1.24,3.49-.72Z"/><path class="cls-1" d="M140.59,91.82c.36,3.67-1.49,7.24-.5,10.94,0,1.5-1.32,1.67-2.25,2.11-12.67,5.94-25.88,10.21-39.67,12.62-1.56,.27-3.2,.6-4.78-.08-11.08,.78-22.09,.79-32.92-2.22-7.41-2.06-13.46-6.03-18.18-12.79,14.02,4.96,28.03,5.93,42.24,4.53,6.89-.68,13.8-1.38,20.39-3.74,1.07-.63,2.12-1.25,3.35-1.58,9.85-2.63,19.57-5.63,28.79-10.08,1.1-.53,2.49-1.54,3.52,.27Z"/><path class="cls-2" d="M220.44,153.62c4.53,2.65,5.48,4.96,4.61,9.78-.73,4.05-3.47,5.7-7.12,5.78-9.82,.24-19.65,.21-29.47,.33-1.22,.01-1.84-.32-1.84-1.65,.02-9.07,.05-18.14-.02-27.21-.01-1.7,.89-1.71,2.11-1.71,9.21,.05,18.42-.01,27.62,.12,3.66,.06,6.63,1.72,7.55,5.47,.86,3.54,.59,6.99-3.44,9.09Z"/><path class="cls-2" d="M53.62,147.34c0,7.04-.09,13.01,.04,18.98,.05,2.25-.31,3.29-2.97,3.25-6.54-.09-6.55,.06-6.55-6.41,0-7.09,.08-14.18-.05-21.26-.04-2.18,.41-3.38,2.83-2.96,.12,.02,.25,.02,.37,0,7.79-1.43,13.37,1.31,17.61,8.12,2.97,4.78,7.04,8.87,11.21,14.02,0-6.89,.14-12.92-.06-18.93-.09-2.62,.66-3.34,3.28-3.27,6.23,.15,6.23,0,6.23,6.29,0,7.21-.07,14.42,.04,21.63,.03,2.12-.63,3.01-2.76,2.7-.24-.04-.5-.04-.75,0-7.37,1.32-12.62-1.31-16.72-7.68-3.17-4.93-7.41-9.18-11.78-14.47Z"/><path class="cls-12" d="M93.4,117.41c6.96-1.53,14.01-2.75,20.87-4.65,8.92-2.47,17.48-6.03,25.84-10.01,7.82-4.35,15.43-9,21.51-16.09-.12,4.84-4.02,12.72-8.38,16.91-8.04,7.73-17.89,12.35-28.2,16.16-12.91,4.78-26.23,7.29-40.74,7.44,3.33-3.58,6.21-6.67,9.1-9.77Z"/><path class="cls-7" d="M138.6,169.49c2.99-5.49,5.74-10.56,8.5-15.63,1.3-2.39,2.6-4.79,3.91-7.18,4.74-8.66,4.74-8.62,14.59-7.78,1.3,.11,1.96,.58,2.55,1.69,4.7,8.86,9.4,17.72,14.23,26.51,1.21,2.2,.46,2.52-1.57,2.4-1.61-.09-3.25-.18-4.84,.02-2.1,.27-3.36-.61-3.99-2.44-.85-2.46-2.6-2.88-4.95-2.75-3.35,.18-6.72,.16-10.07,.01-3.22-.14-6.2-.13-7.37,3.71-.39,1.29-1.47,1.48-2.69,1.45-2.57-.06-5.14-.02-8.28-.02Z"/><path class="cls-2" d="M38.03,151.04c0,3.48,.13,6.97-.03,10.44-.2,4.34-2.02,6.81-6.36,7.5-8.51,1.35-17.1,1.36-25.6-.18-3.37-.61-5.32-3.03-5.67-6.54-.71-7.19-.14-14.41-.33-21.61-.03-1.32,.63-1.58,1.81-1.73,7.29-.91,7.67-.62,7.67,6.62,0,3.85,.09,7.71-.02,11.56-.09,3.09,1.39,4.74,4.33,4.9,3.47,.19,6.97,.2,10.45,.07,3.19-.11,4.6-2.07,4.6-5.15,0-4.97,.13-9.95-.04-14.92-.08-2.38,.53-3.16,3.03-3.11,6.24,.11,6.24-.03,6.24,6.19,0,1.99,0,3.98,0,5.97h-.07Z"/><path class="cls-10" d="M140.59,91.82c-1.54-.89-2.57,.4-3.71,.94-9.67,4.53-19.82,7.63-30.1,10.35-.58,.15-1.23,.07-1.85,.09,1.94-4.11,4.75-7.77,6.3-12.09,8.53-3.26,17.26-6.03,25.38-10.29,1.63-.86,3.19-1.85,4.79-2.79,9.43-4.57,17.84-10.43,24.11-19.18,1.38,8.6-.98,15.47-7.75,20.86-4.48,3.56-9.13,6.81-14.15,9.54-1.19,.64-2.47,1.17-3.02,2.56Z"/><path class="cls-5" d="M140.89,68.28c-7.95,3.73-16,7.24-24.5,9.58,.88-3.85,1.76-7.7,2.65-11.56,2.9-2.21,6.52-2.75,9.73-4.25,3.45-1.62,6.96-3.1,10.44-4.64,5.02-2.71,9.78-5.8,14.11-9.55,4.09-3.54,7.5-7.53,8.99-13.01,4.61,10.9,3.43,15.87-5.45,23.32-4.87,4.08-10.43,7.07-15.96,10.11Z"/><path class="cls-6" d="M135.86,47.97c-4.97,1.98-9.54,4.94-14.87,6.03-1.45-7.91,1.19-12.79,9.48-15.05,5.7-1.55,10.76-5.08,15.41-8.88,4.39-3.58,8.04-7.66,8.26-13.94,7.04,7.98,6.74,13.99-.84,20.56-5.28,4.58-11.36,7.91-17.43,11.27Z"/><path class="cls-4" d="M108.33,154.19c0-4.22,.07-8.44-.03-12.65-.05-1.81,.3-2.59,2.4-2.65,7.15-.21,7.15-.31,7.15,6.81,0,4.47,.16,8.94-.06,13.4-.13,2.56,.81,3.1,3.16,3.02,4.72-.17,9.45,.16,14.16-.12,2.98-.18,3.24,1.22,3.01,3.49-.19,1.91,.86,4.21-2.83,4.1-8.07-.25-16.15-.14-24.23-.03-2.08,.03-2.84-.54-2.77-2.7,.15-4.21,.05-8.44,.05-12.65Z"/><path class="cls-13" d="M141.84,0c2.71,2.1,4.08,4.36,5.92,6.16,3.17,3.1,2.64,5.96,.13,9.09-6.5,8.12-15.25,12.86-24.69,16.62-1.5,.6-2.08,.18-2.16-1.31-.01-.25-.03-.5-.06-.74-.37-3.16-2.01-7.02-.76-9.29,1.27-2.31,5.42-2.99,8.26-4.49,2.95-1.56,6.06-2.83,8.57-5.16,3-2.8,5.36-5.86,4.79-10.87Z"/><path class="cls-4" d="M91.82,153.99c0-4.09,.08-8.18-.03-12.27-.05-1.9,.23-2.82,2.53-2.84,7.02-.08,7.02-.2,7.02,6.96,0,6.82-.07,13.64,.04,20.46,.04,2.23-.28,3.31-2.97,3.28-6.59-.09-6.59,.07-6.59-6.64,0-2.98,0-5.95,0-8.93Z"/><path class="cls-8" d="M205.08,162.34c-1.99,0-3.97-.06-5.96,.02-2,.07-3.4,.14-3.42-2.79-.02-3.19,1.81-2.57,3.58-2.58,3.97-.01,7.94,.02,11.91-.02,2.04-.02,4.34-.2,4.41,2.61,.08,3.19-2.47,2.76-4.56,2.75-1.99,0-3.97,0-5.96,0Z"/><path class="cls-3" d="M204.77,150.82c-1.98,0-3.98-.11-5.95,.03-2.11,.15-3.08-.3-3.1-2.78-.02-2.61,1.41-2.34,3.05-2.33,4.22,.03,8.43,.05,12.65,0,1.92-.03,3.17,.56,3.12,2.69-.05,2-1.44,2.38-3.07,2.39-2.23,.01-4.46,0-6.7,0Z"/><path class="cls-9" d="M161.09,146.25c1.76,3.2,3.29,5.98,4.82,8.77,.28,.52,.8,.97,.42,1.79h-10.86l5.63-10.57Z"/></svg>